<?xml version="1.0" standalone="no"?>
<!DOCTYPE svg PUBLIC "-//W3C//DTD SVG 1.1//EN" "http://www.w3.org/Graphics/SVG/1.1/DTD/svg11.dtd" >
<svg xmlns="http://www.w3.org/2000/svg" xmlns:xlink="http://www.w3.org/1999/xlink" version="1.1">
<metadata>
Created by FontForge 20161003 at Tue Jun 26 15:59:56 2018
 By www-data
Copyright (c) 2015 Swiss Typefaces. All rights reserved.
</metadata>
<defs>
<font id="SuisseIntlMedium" horiz-adv-x="678" >
  <font-face 
    font-family="SuisseIntlMedium"
    font-weight="500"
    font-stretch="normal"
    units-per-em="1000"
    panose-1="2 11 6 4 0 0 0 0 0 0"
    ascent="800"
    descent="-200"
    x-height="538"
    cap-height="725"
    bbox="-200 -234 1407 935"
    underline-thickness="80"
    underline-position="-190"
    unicode-range="U+0020-FB02"
  />
<missing-glyph horiz-adv-x="500" 
d="M0 0v725h500v-725h-500zM239 362l-220 334v-667zM260 362l221 -333v667zM250 346l-217 -327h433zM33 706l217 -328l216 328h-433z" />
    <glyph glyph-name=".notdef" horiz-adv-x="500" 
d="M0 0v725h500v-725h-500zM239 362l-220 334v-667zM260 362l221 -333v667zM250 346l-217 -327h433zM33 706l217 -328l216 328h-433z" />
    <glyph glyph-name=".null" horiz-adv-x="0" 
 />
    <glyph glyph-name="nonmarkingreturn" horiz-adv-x="333" 
 />
    <glyph glyph-name="space" unicode=" " horiz-adv-x="230" 
 />
    <glyph glyph-name="exclam" unicode="!" horiz-adv-x="240" 
d="M160 213h-78l-22 313v199h120v-199zM188 0h-136v136h136v-136z" />
    <glyph glyph-name="quotedbl" unicode="&#x22;" horiz-adv-x="327" 
d="M18 725h128l-20 -257h-88zM181 725h128l-20 -257h-88z" />
    <glyph glyph-name="numbersign" unicode="#" horiz-adv-x="702" 
d="M60 550h141l24 175h104l-24 -175h142l24 175h105l-24 -175h136l-12 -94h-137l-23 -165h136l-11 -93h-138l-27 -198h-105l27 198h-142l-27 -198h-104l27 198h-138l12 93h139l23 165h-138zM292 456l-23 -165h142l23 165h-142z" />
    <glyph glyph-name="dollar" unicode="$" horiz-adv-x="610" 
d="M274 810h56v-73q105 -10 168 -73.5t63 -162.5h-118q-1 64 -32 100.5t-81 45.5v-226l11 -2q49 -12 83 -25.5t72 -37.5t58 -62.5t20 -89.5q0 -97 -70 -153.5t-174 -62.5v-84h-56v84q-109 8 -175.5 76.5t-64.5 172.5h118q0 -71 35 -111t87 -47v245l-32 8q-194 50 -194 207
q0 89 66.5 140t159.5 58v73zM459 194q0 48 -30.5 72t-98.5 44v-232q55 2 92 32.5t37 83.5zM163 543q0 -83 104 -107l7 -2v215q-46 -2 -78.5 -30t-32.5 -76z" />
    <glyph glyph-name="percent" unicode="%" horiz-adv-x="1035" 
d="M203 310q-83 0 -127 57t-44 155q0 100 43 155t128 55q83 0 126.5 -55.5t43.5 -154.5q0 -98 -44 -155t-126 -57zM203 374q81 0 81 148q0 145 -81 145q-82 0 -82 -145q0 -148 82 -148zM330 0h-126l500 725h126zM833 -7q-83 0 -127 57t-44 155q0 100 43 155t128 55
q83 0 126.5 -55.5t43.5 -154.5q0 -98 -44 -155t-126 -57zM833 57q81 0 81 148q0 145 -81 145q-82 0 -82 -145q0 -148 82 -148z" />
    <glyph glyph-name="ampersand" unicode="&#x26;" horiz-adv-x="696" 
d="M259 -13q-108 0 -175 61t-67 153q0 78 48.5 131.5t127.5 82.5q-77 90 -77 165q0 72 56.5 115t145.5 43q50 0 91.5 -14t72 -51.5t30.5 -94.5q0 -61 -38.5 -109.5t-101.5 -77.5l116 -125q23 63 28 135h120q-13 -120 -70 -220l167 -181h-163l-77 84q-97 -97 -234 -97z
M280 84q82 0 146 74l-170 187q-115 -43 -115 -137q0 -57 37 -90.5t102 -33.5zM240 583q0 -48 70 -124l1 -1q88 39 88 116q0 35 -22.5 54.5t-57.5 19.5q-33 0 -56 -17.5t-23 -47.5z" />
    <glyph glyph-name="quotesingle" unicode="'" horiz-adv-x="164" 
d="M18 725h128l-20 -257h-88z" />
    <glyph glyph-name="parenleft" unicode="(" horiz-adv-x="258" 
d="M24 270q0 135 41.5 254t96.5 201h106q-121 -197 -121 -455q0 -259 121 -456h-106q-55 82 -96.5 201t-41.5 255z" />
    <glyph glyph-name="parenright" unicode=")" horiz-adv-x="257" 
d="M233 270q0 -137 -41.5 -256.5t-96.5 -199.5h-105q121 197 121 456q0 258 -121 455h105q55 -80 96.5 -199.5t41.5 -255.5z" />
    <glyph glyph-name="asterisk" unicode="*" horiz-adv-x="362" 
d="M215 725v-111l104 40l29 -74l-106 -37l63 -89l-61 -47l-69 92l-62 -92l-68 46l64 89l-105 38l28 74l103 -40v111h80z" />
    <glyph glyph-name="plus" unicode="+" 
d="M395 0h-110v214h-221v107h221v215h110v-215h220v-107h-220v-214z" />
    <glyph glyph-name="comma" unicode="," horiz-adv-x="240" 
d="M52 0v136h136v-146l-70 -148h-71l66 158h-61z" />
    <glyph glyph-name="hyphen" unicode="-" horiz-adv-x="422" 
d="M374 216h-326v107h326v-107z" />
    <glyph glyph-name="period" unicode="." horiz-adv-x="240" 
d="M188 0h-136v136h136v-136z" />
    <glyph glyph-name="slash" unicode="/" horiz-adv-x="386" 
d="M109 0h-114l282 725h114z" />
    <glyph glyph-name="zero" unicode="0" horiz-adv-x="656" 
d="M328 79q79 0 122 73t43 211t-43 211t-122 73t-121.5 -73t-42.5 -211t42.5 -211t121.5 -73zM328 -13q-140 0 -214 102t-74 274q0 171 74 273t214 102q141 0 215 -101.5t74 -273.5q0 -173 -74 -274.5t-215 -101.5z" />
    <glyph glyph-name="one" unicode="1" horiz-adv-x="356" 
d="M281 0h-119v552h-162v82q87 2 127 18.5t66 72.5h88v-725z" />
    <glyph glyph-name="two" unicode="2" horiz-adv-x="575" 
d="M298 738q104 0 170 -51t66 -141q0 -106 -92.5 -212t-270.5 -230h380v-104h-528v98q203 158 295 256t92 182q0 53 -31 82t-86 29q-58 0 -96.5 -37.5t-38.5 -116.5h-119q-2 110 69 177.5t190 67.5z" />
    <glyph glyph-name="three" unicode="3" horiz-adv-x="601" 
d="M292 79q65 0 106 33.5t41 91.5q0 125 -181 125h-35v99h30q168 0 168 112q0 52 -36 79.5t-90 27.5q-65 0 -102.5 -36.5t-45.5 -101.5h-116q8 105 80 167t191 62q101 0 171 -48t70 -143q0 -53 -28.5 -96t-77.5 -67q63 -23 94 -70t31 -107q0 -106 -78 -163t-194 -57
q-121 0 -191.5 68t-76.5 170h116q9 -64 48.5 -105t105.5 -41z" />
    <glyph glyph-name="four" unicode="4" horiz-adv-x="620" 
d="M366 570l-228 -297h228v297zM613 273v-103h-128v-170h-119v170h-358v99l359 456h118v-452h128z" />
    <glyph glyph-name="five" unicode="5" horiz-adv-x="604" 
d="M298 79q62 0 102.5 41.5t40.5 112.5q0 76 -43.5 117.5t-102.5 41.5q-49 0 -84 -21.5t-47 -54.5l-112 6l48 403h434v-105h-336l-23 -182q56 45 150 45q99 0 169 -66t70 -182q0 -117 -77 -182.5t-191 -65.5q-120 0 -189 67.5t-75 167.5h115q19 -143 151 -143z" />
    <glyph glyph-name="six" unicode="6" horiz-adv-x="617" 
d="M170 233q0 -71 39 -112.5t102 -41.5t102.5 41.5t39.5 112.5t-39 113t-102 42t-102.5 -42t-39.5 -113zM319 647q-73 0 -114.5 -67.5t-43.5 -180.5q57 83 174 83q102 0 171.5 -68t69.5 -179q0 -108 -73.5 -178t-190.5 -70q-137 0 -204.5 94.5t-67.5 259.5q0 82 15.5 151
t48.5 125.5t90 88.5t134 32q107 0 166 -57t68 -138h-121q-6 52 -38.5 78t-83.5 26z" />
    <glyph glyph-name="seven" unicode="7" horiz-adv-x="498" 
d="M-3 620v105h521v-105q-144 -138 -216 -282t-84 -338h-135q18 353 309 620h-395z" />
    <glyph glyph-name="eight" unicode="8" horiz-adv-x="634" 
d="M316 738q112 0 180 -52t68 -134q0 -111 -93 -165q115 -60 115 -181q0 -104 -75.5 -161.5t-194.5 -57.5t-194.5 57.5t-75.5 161.5q0 123 115 181q-46 26 -69.5 70.5t-23.5 94.5q0 82 67.5 134t180.5 52zM316 341q-67 0 -106.5 -35t-39.5 -96q0 -62 39.5 -96.5t106.5 -34.5
t106.5 34.5t39.5 96.5q0 61 -39.5 96t-106.5 35zM446 537q0 52 -35 81t-95 29t-95.5 -29.5t-35.5 -80.5q0 -52 36 -83.5t95 -31.5q60 0 95 31.5t35 83.5z" />
    <glyph glyph-name="nine" unicode="9" horiz-adv-x="609" 
d="M439 492q0 71 -39.5 113t-101.5 42q-64 0 -103 -41.5t-39 -113.5q0 -71 39 -113t102 -42q61 0 101.5 42.5t40.5 112.5zM290 79q73 0 114.5 66.5t43.5 180.5q-57 -83 -174 -83q-102 0 -171.5 68.5t-69.5 179.5q0 109 73.5 178t190.5 69q137 0 204.5 -94.5t67.5 -259.5
q0 -65 -9.5 -122t-31.5 -108t-54.5 -87.5t-82 -58t-111.5 -21.5q-106 0 -165 57t-68 138h121q6 -51 38.5 -77t83.5 -26z" />
    <glyph glyph-name="colon" unicode=":" horiz-adv-x="240" 
d="M188 402h-136v136h136v-136zM188 0h-136v136h136v-136z" />
    <glyph glyph-name="semicolon" unicode=";" horiz-adv-x="244" 
d="M188 402h-136v136h136v-136zM52 0v136h136v-146l-70 -148h-71l66 158h-61z" />
    <glyph glyph-name="less" unicode="&#x3c;" 
d="M77 317l515 223v-120l-378 -153l378 -152v-119l-515 221v100z" />
    <glyph glyph-name="equal" unicode="=" 
d="M592 318h-506v108h506v-108zM592 111h-506v107h506v-107z" />
    <glyph glyph-name="greater" unicode="&#x3e;" 
d="M601 317v-100l-515 -221v119l379 152l-379 153v120z" />
    <glyph glyph-name="question" unicode="?" horiz-adv-x="514" 
d="M269 738q98 0 167 -45.5t69 -132.5q0 -119 -126 -195q-53 -32 -72 -55t-19 -69v-31h-119v34q0 66 26.5 105t86.5 75q49 29 75 59t26 70q0 41 -33 65t-83 24q-66 0 -102 -36t-38 -99h-118q0 104 73 167.5t187 63.5zM297 0h-136v136h136v-136z" />
    <glyph glyph-name="at" unicode="@" horiz-adv-x="825" 
d="M607 153q-41 0 -70 24t-35 68q-48 -89 -146 -89q-68 0 -112 46t-44 135q0 92 57 161t149 69q85 0 116 -76q1 7 3.5 27.5t4.5 31.5h71l-29 -218q-4 -20 -4 -40q0 -67 46 -67q40 0 67.5 48t27.5 129q0 122 -76 187.5t-202 65.5q-137 0 -224 -88t-87 -221q0 -128 76 -206.5
t200 -78.5q101 0 190 44l28 -69q-101 -49 -218 -49q-158 0 -257 101t-99 261t113 268t280 108q100 0 177.5 -33t126.5 -106.5t49 -179.5q0 -116 -53.5 -184.5t-125.5 -68.5zM408 490q-54 0 -86.5 -45t-32.5 -111q0 -103 83 -103q57 0 90 47t33 116q0 96 -87 96z" />
    <glyph glyph-name="A" unicode="A" horiz-adv-x="676" 
d="M0 0l270 725h134l272 -725h-139l-57 161h-294l-56 -161h-130zM332 578l-109 -311h219z" />
    <glyph glyph-name="B" unicode="B" horiz-adv-x="667" 
d="M73 0v725h273q261 0 261 -185q0 -49 -23.5 -91.5t-57.5 -63.5q109 -49 109 -170q0 -110 -75 -162.5t-196 -52.5h-291zM200 325v-223h169q135 0 135 113q0 56 -34.5 83t-107.5 27h-162zM200 623v-201h158q120 0 120 104q0 47 -32.5 72t-87.5 25h-158z" />
    <glyph glyph-name="C" unicode="C" horiz-adv-x="726" 
d="M570 241h122q-23 -123 -104.5 -188.5t-208.5 -65.5q-157 0 -246 102.5t-89 275.5q0 171 91.5 272t249.5 101q123 0 203 -66t102 -188h-122q-17 73 -66 111.5t-121 38.5q-90 0 -148 -71t-58 -198q0 -128 57.5 -201t147.5 -73q75 0 124 38t66 112z" />
    <glyph glyph-name="D" unicode="D" horiz-adv-x="719" 
d="M544 363q0 82 -23 136.5t-66 80t-86.5 34.5t-103.5 9h-65v-521h65q60 0 103.5 9t86.5 35t66 80.5t23 136.5zM73 725h198q72 0 130.5 -10.5t110.5 -36t87.5 -66t56 -103.5t20.5 -146q0 -103 -30.5 -175.5t-87 -112.5t-126.5 -57.5t-161 -17.5h-198v725z" />
    <glyph glyph-name="E" unicode="E" horiz-adv-x="615" 
d="M73 0v725h513v-106h-386v-194h365v-105h-365v-213h386v-107h-513z" />
    <glyph glyph-name="F" unicode="F" horiz-adv-x="580" 
d="M73 0v725h506v-106h-379v-194h357v-105h-357v-320h-127z" />
    <glyph glyph-name="G" unicode="G" horiz-adv-x="764" 
d="M392 738q123 0 203 -63t103 -180h-121q-18 67 -67 103t-121 36q-96 0 -155 -69.5t-59 -199.5t57.5 -202t155.5 -72q35 0 67 8.5t61.5 26.5t47.5 52t18 80v14h-185v107h303v-379h-100l-4 87q-67 -100 -222 -100q-153 0 -241.5 103t-88.5 275q0 170 93.5 271.5t254.5 101.5
z" />
    <glyph glyph-name="H" unicode="H" horiz-adv-x="746" 
d="M546 725h127v-725h-127v320h-346v-320h-127v725h127v-300h346v300z" />
    <glyph glyph-name="I" unicode="I" horiz-adv-x="273" 
d="M200 725v-725h-127v725h127z" />
    <glyph glyph-name="J" unicode="J" horiz-adv-x="581" 
d="M260 -13q-118 0 -183.5 69.5t-65.5 188.5h126q0 -75 31.5 -114.5t91.5 -39.5q58 0 89.5 39.5t31.5 114.5v480h127v-480q0 -119 -65 -188.5t-183 -69.5z" />
    <glyph glyph-name="K" unicode="K" horiz-adv-x="675" 
d="M200 725v-345l308 345h151l-269 -295l294 -430h-150l-228 338l-106 -116v-222h-127v725h127z" />
    <glyph glyph-name="L" unicode="L" horiz-adv-x="565" 
d="M200 725v-618h365v-107h-492v725h127z" />
    <glyph glyph-name="M" unicode="M" horiz-adv-x="891" 
d="M510 0h-129l-184 587v-587h-124v725h197l176 -578l175 578h197v-725h-124v587z" />
    <glyph glyph-name="N" unicode="N" horiz-adv-x="746" 
d="M673 0h-170l-307 579v-579h-123v725h170l307 -579v579h123v-725z" />
    <glyph glyph-name="O" unicode="O" horiz-adv-x="780" 
d="M175 363q0 -128 60.5 -200t154.5 -72t154.5 72t60.5 200t-60.5 199.5t-154.5 71.5t-154.5 -71.5t-60.5 -199.5zM736 363q0 -169 -94 -272.5t-252 -103.5t-252 103.5t-94 272.5t93.5 272t252.5 103t252.5 -103t93.5 -272z" />
    <glyph glyph-name="P" unicode="P" horiz-adv-x="631" 
d="M73 725h239q54 0 94 -4t83 -18t69.5 -38t44 -66.5t17.5 -101.5q0 -66 -23 -111.5t-67 -69t-95.5 -33t-120.5 -9.5h-114v-274h-127v725zM312 623h-112v-245h118q84 0 127 23.5t43 94.5q0 34 -10.5 58t-25.5 37.5t-40 20.5t-47 9t-53 2z" />
    <glyph glyph-name="Q" unicode="Q" horiz-adv-x="780" 
d="M736 363q0 -184 -109 -287l86 -102l-78 -65l-92 109q-66 -31 -153 -31q-158 0 -252 103.5t-94 272.5t93.5 272t252.5 103t252.5 -103t93.5 -272zM175 363q0 -128 60.5 -200t154.5 -72q46 0 79 16l-59 71l77 65l62 -74q56 75 56 194q0 128 -60.5 199.5t-154.5 71.5
t-154.5 -71.5t-60.5 -199.5z" />
    <glyph glyph-name="R" unicode="R" horiz-adv-x="679" 
d="M514 0l-153 306q-12 -1 -38 -1h-123v-305h-127v725h231q167 0 245 -46.5t78 -162.5q0 -141 -136 -187l166 -329h-143zM322 623h-122v-217h126q87 0 129 23.5t42 85.5q0 65 -44 86.5t-131 21.5z" />
    <glyph glyph-name="S" unicode="S" horiz-adv-x="648" 
d="M343 312l-88 17q-209 44 -209 205q0 95 82.5 149.5t191.5 54.5q113 0 188 -53.5t96 -162.5h-123q-27 112 -168 112q-51 0 -95 -24t-44 -72q0 -75 108 -96l89 -17q53 -10 93 -24t77.5 -38.5t57.5 -63.5t20 -91q0 -104 -86 -162.5t-202 -58.5q-130 0 -211.5 67t-93.5 186
h125q35 -149 186 -149q67 0 111 29t44 80q0 50 -41.5 75t-107.5 37z" />
    <glyph glyph-name="T" unicode="T" horiz-adv-x="593" 
d="M233 0v619h-228v106h583v-106h-228v-619h-127z" />
    <glyph glyph-name="U" unicode="U" horiz-adv-x="717" 
d="M62 725h127v-428q0 -106 36.5 -156t133.5 -50q95 0 132 52t37 158v424h127v-419q0 -171 -68.5 -245t-227.5 -74t-228 71t-69 244v423z" />
    <glyph glyph-name="V" unicode="V" horiz-adv-x="637" 
d="M1 725h138l184 -575l179 575h134l-248 -725h-136z" />
    <glyph glyph-name="W" unicode="W" horiz-adv-x="896" 
d="M522 725l124 -561l110 561h133l-169 -725h-150l-122 556l-120 -556h-152l-170 725h138l116 -560l115 560h147z" />
    <glyph glyph-name="X" unicode="X" horiz-adv-x="663" 
d="M-10 0l267 371l-250 354h152l174 -247l178 247h144l-250 -348l267 -377h-152l-192 271l-195 -271h-143z" />
    <glyph glyph-name="Y" unicode="Y" horiz-adv-x="643" 
d="M-5 725h145l180 -324l185 324h143l-267 -445v-280h-127v282z" />
    <glyph glyph-name="Z" unicode="Z" horiz-adv-x="626" 
d="M588 725v-103l-405 -512h417v-110h-572v103l406 512h-374v110h528z" />
    <glyph glyph-name="bracketleft" unicode="[" horiz-adv-x="329" 
d="M70 725h244v-91h-135v-718h135v-91h-244v900z" />
    <glyph glyph-name="backslash" unicode="\" horiz-adv-x="386" 
d="M109 725l282 -725h-114l-282 725h114z" />
    <glyph glyph-name="bracketright" unicode="]" horiz-adv-x="329" 
d="M15 725h244v-900h-244v91h136v718h-136v91z" />
    <glyph glyph-name="asciicircum" unicode="^" horiz-adv-x="510" 
d="M304 725l201 -387h-120l-131 259l-131 -259h-119l200 387h100z" />
    <glyph glyph-name="underscore" unicode="_" horiz-adv-x="478" 
d="M452 -108h-426v108h426v-108z" />
    <glyph glyph-name="grave" unicode="`" horiz-adv-x="279" 
d="M164 609l-142 116h141l94 -116h-93z" />
    <glyph glyph-name="a" unicode="a" horiz-adv-x="569" 
d="M400 212v41q-130 -12 -184.5 -34.5t-54.5 -67.5q0 -35 27 -55t72 -20q67 0 103.5 34t36.5 102zM234 -13q-88 0 -143.5 44t-55.5 117q0 33 12.5 59t38.5 45t56 32.5t74.5 23.5t85 16t95.5 12v10q0 120 -112 120q-47 0 -76.5 -25t-31.5 -72h-117q6 82 69 133.5t160 51.5
q105 0 167 -54.5t60 -176.5q0 -10 -1 -61t-1 -78q0 -119 16 -184h-109q-8 44 -10 73q-51 -86 -177 -86z" />
    <glyph glyph-name="b" unicode="b" horiz-adv-x="610" 
d="M181 269q0 -90 38.5 -137.5t100.5 -47.5q61 0 98.5 49.5t37.5 135.5q0 84 -37.5 134t-98.5 50q-62 0 -100.5 -47t-38.5 -137zM67 725h119v-259q51 84 160 84q99 0 166.5 -78t67.5 -203q0 -127 -67.5 -204.5t-166.5 -77.5q-109 0 -160 84v-71h-119v725z" />
    <glyph glyph-name="c" unicode="c" horiz-adv-x="564" 
d="M294 550q90 0 157.5 -54t83.5 -142h-116q-8 43 -42.5 70t-82.5 27q-61 0 -101 -46t-40 -136t40 -136.5t98 -46.5q49 0 85 23.5t47 74.5h116q-17 -91 -88.5 -144t-161.5 -53q-116 0 -187.5 79.5t-71.5 201.5t72.5 202t191.5 80z" />
    <glyph glyph-name="d" unicode="d" horiz-adv-x="610" 
d="M424 466v259h119v-725h-119v71q-51 -84 -160 -84q-99 0 -166.5 77.5t-67.5 204.5q0 125 67.5 203t166.5 78q109 0 160 -84zM429 269q0 89 -39 136.5t-100 47.5t-98.5 -50t-37.5 -134q0 -86 37.5 -135.5t98.5 -49.5t100 48t39 137z" />
    <glyph glyph-name="e" unicode="e" horiz-adv-x="584" 
d="M553 235h-401q6 -71 48.5 -110t97.5 -39q101 0 132 75h117q-20 -72 -83.5 -123t-160.5 -51q-125 0 -198.5 82.5t-73.5 203.5t75 199t189 78q123 0 194.5 -89.5t63.5 -225.5zM295 457q-50 0 -92.5 -33t-50.5 -102h280q-2 61 -42 98t-95 37z" />
    <glyph glyph-name="f" unicode="f" horiz-adv-x="323" 
d="M83 538v33q0 91 38.5 122.5t139.5 31.5h47v-91h-34q-45 0 -58.5 -12.5t-13.5 -54.5v-29h106v-86h-106v-452h-119v452h-75v86h75z" />
    <glyph glyph-name="g" unicode="g" horiz-adv-x="609" 
d="M424 466v72h119v-484q0 -130 -65 -190q-62 -58 -191 -58q-94 0 -155 40t-75 125h118q8 -38 34.5 -54.5t80.5 -16.5q74 0 107 39q27 31 27 91v63q-51 -84 -160 -84q-99 0 -166.5 74t-67.5 197t67.5 196.5t166.5 73.5q109 0 160 -84zM429 280q0 86 -39 130.5t-100 44.5
t-98.5 -47.5t-37.5 -127.5q0 -83 37.5 -130t98.5 -47t100 45t39 132z" />
    <glyph glyph-name="h" unicode="h" horiz-adv-x="589" 
d="M186 725v-262q48 87 163 87q183 0 183 -212v-338h-119v309q0 32 -3.5 54t-13 44.5t-31 34t-54.5 11.5q-125 0 -125 -167v-286h-119v725h119z" />
    <glyph glyph-name="i" unicode="i" horiz-adv-x="253" 
d="M67 725h119v-120h-119v120zM67 538h119v-538h-119v538z" />
    <glyph glyph-name="j" unicode="j" horiz-adv-x="253" 
d="M67 725h119v-120h-119v120zM67 -13v551h119v-546q0 -101 -31.5 -134t-124.5 -33h-40v92h22q36 0 45.5 13t9.5 57z" />
    <glyph glyph-name="k" unicode="k" horiz-adv-x="535" 
d="M67 725h119v-403l199 216h143l-206 -221l229 -317h-139l-169 233l-57 -61v-172h-119v725z" />
    <glyph glyph-name="l" unicode="l" horiz-adv-x="253" 
d="M186 725v-725h-119v725h119z" />
    <glyph glyph-name="m" unicode="m" horiz-adv-x="907" 
d="M186 286v-286h-119v538h119v-75q48 87 156 87q117 0 157 -95q66 95 175 95q176 0 176 -212v-338h-119v309q0 32 -2.5 53.5t-11.5 44.5t-29.5 34.5t-51.5 11.5q-118 0 -118 -167v-286h-119v309q0 32 -2.5 53.5t-11.5 44.5t-29.5 34.5t-51.5 11.5q-118 0 -118 -167z" />
    <glyph glyph-name="n" unicode="n" horiz-adv-x="589" 
d="M186 538v-75q48 87 163 87q183 0 183 -212v-338h-119v309q0 32 -3.5 54t-13 44.5t-31 34t-54.5 11.5q-125 0 -125 -167v-286h-119v538h119z" />
    <glyph glyph-name="o" unicode="o" horiz-adv-x="592" 
d="M154 268q0 -89 40.5 -136.5t101.5 -47.5t101.5 47.5t40.5 136.5t-40.5 137t-101.5 48t-101.5 -48t-40.5 -137zM296 550q108 0 186.5 -73t78.5 -209q0 -137 -78.5 -209t-186.5 -72t-186.5 72t-78.5 209q0 136 78.5 209t186.5 73z" />
    <glyph glyph-name="p" unicode="p" horiz-adv-x="607" 
d="M181 269q0 -90 38.5 -137.5t100.5 -47.5q63 0 98 49t35 136q0 86 -35 135t-98 49q-62 0 -100.5 -47t-38.5 -137zM67 538h119v-72q51 84 160 84q101 0 166 -77.5t65 -203.5q0 -128 -65 -205t-166 -77q-109 0 -160 84v-246h-119v713z" />
    <glyph glyph-name="q" unicode="q" horiz-adv-x="607" 
d="M426 269q0 89 -39 136.5t-100 47.5q-63 0 -98 -49t-35 -135q0 -87 35 -136t98 -49q61 0 100 48t39 137zM421 466v72h119v-713h-119v246q-51 -84 -160 -84q-101 0 -166 77t-65 205q0 126 65 203.5t166 77.5q109 0 160 -84z" />
    <glyph glyph-name="r" unicode="r" horiz-adv-x="369" 
d="M361 537v-120q-30 3 -57 3q-60 0 -89 -30.5t-29 -107.5v-282h-119v538h117v-96q46 95 146 97q13 0 31 -2z" />
    <glyph glyph-name="s" unicode="s" horiz-adv-x="526" 
d="M486 391h-112q-18 68 -118 68q-41 0 -70.5 -16.5t-29.5 -42.5q0 -50 72 -64l76 -15q45 -9 76.5 -19.5t59.5 -28.5t42 -46t14 -66q0 -81 -66 -127.5t-162 -46.5q-97 0 -160 49.5t-73 127.5h116q17 -87 121 -87q48 0 78 19t30 51q0 55 -93 74l-81 16q-76 16 -119 52
t-43 105t64.5 112.5t154.5 43.5q83 0 145 -41t78 -118z" />
    <glyph glyph-name="t" unicode="t" horiz-adv-x="340" 
d="M84 538v142h119v-142h108v-86h-108v-293q0 -41 13 -54.5t51 -13.5h43v-91h-88q-85 0 -111.5 28.5t-26.5 112.5v311h-80v86h80z" />
    <glyph glyph-name="u" unicode="u" horiz-adv-x="585" 
d="M399 0v74q-48 -87 -159 -87q-180 0 -180 212v339h119v-310q0 -25 1.5 -43t7.5 -38.5t16.5 -33t29 -21t44.5 -8.5q121 0 121 167v287h119v-538h-119z" />
    <glyph glyph-name="v" unicode="v" horiz-adv-x="502" 
d="M131 538l124 -384l123 384h124l-194 -538h-112l-196 538h131z" />
    <glyph glyph-name="w" unicode="w" horiz-adv-x="734" 
d="M213 156l92 382h123l93 -382l79 382h129l-143 -538h-113l-106 398l-106 -398h-113l-143 538h129z" />
    <glyph glyph-name="x" unicode="x" horiz-adv-x="535" 
d="M519 538l-184 -258l196 -280h-140l-127 181l-129 -181h-131l196 273l-185 265h140l115 -166l119 166h130z" />
    <glyph glyph-name="y" unicode="y" horiz-adv-x="496" 
d="M100 -175h-54v91h45q43 0 62 12.5t36 61.5l6 13l-195 535h130l122 -386l122 386h122l-189 -537q-39 -107 -78.5 -141.5t-128.5 -34.5z" />
    <glyph glyph-name="z" unicode="z" horiz-adv-x="494" 
d="M26 0v91l288 356h-268v91h416v-91l-289 -356h296v-91h-443z" />
    <glyph glyph-name="braceleft" unicode="{" horiz-adv-x="314" 
d="M299 -175h-41q-100 0 -139 34.5t-39 128.5v137q0 52 -15 77.5t-61 25.5v95q46 0 61 25.5t15 77.5v136q0 94 39 128.5t139 34.5h41v-97h-28q-44 0 -60 -15.5t-16 -55.5v-144q0 -65 -21.5 -95t-64.5 -41v-3q43 -11 64.5 -41t21.5 -95v-146q0 -40 16 -55.5t60 -15.5h28v-96z
" />
    <glyph glyph-name="bar" unicode="|" horiz-adv-x="248" 
d="M73 725h102v-815h-102v815z" />
    <glyph glyph-name="braceright" unicode="}" horiz-adv-x="314" 
d="M15 -175v96h28q44 0 60 15.5t16 55.5v146q0 65 21.5 95t63.5 41v3q-42 11 -63.5 41t-21.5 95v144q0 40 -16 55.5t-60 15.5h-28v97h40q100 0 139 -34.5t39 -128.5v-136q0 -52 15.5 -77.5t61.5 -25.5v-95q-46 0 -61.5 -25.5t-15.5 -77.5v-137q0 -94 -39 -128.5t-139 -34.5
h-40z" />
    <glyph glyph-name="asciitilde" unicode="~" 
d="M439 289q57 0 61 69h93q-3 -80 -41.5 -126t-109.5 -46q-38 0 -104.5 34.5t-97.5 34.5q-58 0 -62 -69h-93q3 81 41.5 126.5t110.5 45.5q47 0 112.5 -34.5t89.5 -34.5z" />
    <glyph glyph-name="uni00A0" unicode="&#xa0;" horiz-adv-x="230" 
 />
    <glyph glyph-name="exclamdown" unicode="&#xa1;" horiz-adv-x="240" 
d="M180 13v-188h-120v188l21 312h78zM188 402h-136v136h136v-136z" />
    <glyph glyph-name="cent" unicode="&#xa2;" horiz-adv-x="557" 
d="M261 623h49v-74q85 -6 145.5 -58.5t74.5 -136.5h-116q-7 39 -34 65t-70 31v-363q91 12 108 97h116q-18 -86 -79.5 -138t-144.5 -58v-81h-49v81q-106 8 -168 86.5t-62 193.5q0 114 62 192t168 88v75zM154 269q0 -81 29 -126t78 -55v360q-107 -20 -107 -179z" />
    <glyph glyph-name="sterling" unicode="&#xa3;" horiz-adv-x="580" 
d="M304 647q-52 0 -88.5 -25t-36.5 -71q0 -54 53 -154h176v-71h-146q12 -36 12 -61q0 -50 -26.5 -92.5t-67.5 -71.5l1 -2q29 14 65 14q26 0 74 -15.5t81 -15.5q48 0 126 29l35 -87q-65 -39 -154 -39q-34 0 -102.5 21.5t-104.5 21.5q-63 0 -139 -43l-42 88q61 29 98 71
t37 112q0 34 -15 70h-125v71h90q-50 96 -50 159q0 61 38 103.5t93 60.5t121 18q121 0 189 -67t66 -178h-119q0 154 -139 154z" />
    <glyph glyph-name="currency" unicode="&#xa4;" horiz-adv-x="636" 
d="M79 346q0 78 44 139l-69 70l49 49l68 -68q63 49 144 49q83 0 147 -51l71 70l49 -49l-72 -72q44 -64 44 -137q0 -76 -44 -137l72 -71l-49 -49l-71 70q-65 -49 -147 -49q-81 0 -143 48l-69 -69l-49 49l69 70q-44 61 -44 138zM179 346q0 -61 38 -102.5t97 -41.5
q62 0 102 41.5t40 102.5q0 63 -40 105.5t-102 42.5q-59 0 -97 -42.5t-38 -105.5z" />
    <glyph glyph-name="yen" unicode="&#xa5;" horiz-adv-x="645" 
d="M560 97h-181v-97h-121v97h-174v79h174v78h-174v78h139l-225 393h140l184 -345l186 345h139l-231 -393h144v-78h-181v-78h181v-79z" />
    <glyph glyph-name="brokenbar" unicode="&#xa6;" horiz-adv-x="236" 
d="M67 725h102v-305h-102v305zM67 215h102v-305h-102v305z" />
    <glyph glyph-name="section" unicode="&#xa7;" horiz-adv-x="599" 
d="M298 -102q43 0 69.5 19.5t26.5 53.5q0 31 -20 53.5t-73 49.5l-127 66q-140 71 -140 176q0 46 31 83t81 59q-63 54 -63 128q0 70 62.5 111t146.5 41q94 0 153.5 -47.5t70.5 -129.5h-114q-17 87 -113 87q-42 0 -66 -15t-24 -40q0 -26 18 -45t60 -40l137 -71
q76 -40 114 -79.5t38 -93.5q0 -50 -31.5 -89.5t-86.5 -63.5q63 -53 63 -127q0 -81 -62 -129t-155 -48q-98 0 -160.5 56t-68.5 149h113q17 -114 120 -114zM351 345l-122 63q-82 -28 -82 -81q0 -28 18.5 -47.5t58.5 -41.5l135 -70l11 -6q78 34 78 83q0 29 -23 51.5t-74 48.5z
" />
    <glyph glyph-name="dieresis" unicode="&#xa8;" horiz-adv-x="385" 
d="M22 614v111h105v-111h-105zM258 725h105v-111h-105v111z" />
    <glyph glyph-name="copyright" unicode="&#xa9;" horiz-adv-x="825" 
d="M38 361q0 165 108.5 271t266.5 106t266 -106t108 -271q0 -164 -108 -269t-266 -105q-159 0 -267 105t-108 269zM118 361q0 -133 84.5 -217.5t210.5 -84.5q127 0 211 84.5t84 217.5q0 134 -84 219t-211 85q-126 0 -210.5 -85t-84.5 -219zM413 237q80 0 98 76l92 -23
q-16 -58 -67 -94.5t-125 -36.5q-92 0 -144 56.5t-52 150.5q0 93 54.5 149t144.5 56q72 0 121.5 -38t64.5 -100l-92 -25q-7 39 -32 61.5t-63 22.5q-44 0 -71 -32.5t-27 -93.5t27 -95t71 -34z" />
    <glyph glyph-name="ordfeminine" unicode="&#xaa;" horiz-adv-x="351" 
d="M132 431q-46 0 -76 23.5t-30 64.5q0 52 51 75.5t150 32.5v9q0 54 -54 54q-53 0 -57 -46h-81q4 46 43 76t101 30q66 0 100 -30t34 -100l-1 -32v-38q0 -84 6 -112h-84q0 4 -0.5 18t-0.5 19q-32 -44 -101 -44zM229 566v8q-59 -6 -86 -16t-27 -33q0 -16 12.5 -25t32.5 -9
q68 0 68 75z" />
    <glyph glyph-name="guillemotleft" unicode="&#xab;" horiz-adv-x="543" 
d="M175 43l-159 230l159 229h114l-134 -229l134 -230h-114zM397 43l-159 230l159 229h114l-134 -229l134 -230h-114z" />
    <glyph glyph-name="logicalnot" unicode="&#xac;" 
d="M499 322h-431v107h542v-334h-111v227z" />
    <glyph glyph-name="uni00AD" unicode="&#xad;" horiz-adv-x="422" 
d="M374 216h-326v107h326v-107z" />
    <glyph glyph-name="registered" unicode="&#xae;" horiz-adv-x="825" 
d="M38 361q0 165 108.5 271t266.5 106t266 -106t108 -271q0 -164 -108 -269t-266 -105q-159 0 -267 105t-108 269zM118 361q0 -133 84.5 -217.5t210.5 -84.5q127 0 211 84.5t84 217.5q0 134 -84 219t-211 85q-126 0 -210.5 -85t-84.5 -219zM497 175l-83 147h-11h-54v-147
h-97v400h145q90 0 137.5 -28t47.5 -100q0 -78 -72 -108l96 -164h-109zM485 446q0 24 -17 38t-49 14h-70v-101h71q65 0 65 49z" />
    <glyph glyph-name="overscore" unicode="&#xaf;" horiz-adv-x="352" 
d="M330 628h-308v88h308v-88z" />
    <glyph glyph-name="degree" unicode="&#xb0;" horiz-adv-x="337" 
d="M13 582q0 64 46 110t109 46q64 0 110 -46t46 -110q0 -63 -46 -109t-110 -46q-63 0 -109 46t-46 109zM95 582q0 -33 20.5 -55.5t52.5 -22.5q33 0 54 22.5t21 55.5q0 34 -21 57t-54 23q-32 0 -52.5 -23t-20.5 -57z" />
    <glyph glyph-name="plusminus" unicode="&#xb1;" 
d="M283 393v136h113v-136h214v-108h-214v-139h-113v139h-215v108h215zM610 0h-542v107h542v-107z" />
    <glyph glyph-name="twosuperior" unicode="&#xb2;" horiz-adv-x="355" 
d="M181 853q64 0 103.5 -30t39.5 -83q0 -60 -49.5 -115t-147.5 -115h201v-72h-308v71q10 8 30 23q50 39 74.5 58.5t55.5 48.5t43.5 51.5t12.5 44.5q0 26 -16 40t-42 14q-67 0 -67 -84h-85q-2 68 41 108t114 40z" />
    <glyph glyph-name="threesuperior" unicode="&#xb3;" horiz-adv-x="372" 
d="M186 495q32 0 51 15.5t19 44.5q0 58 -94 58h-23v70h20q89 0 89 56q0 23 -18 36t-44 13q-65 0 -75 -62h-84q6 62 51 94.5t113 32.5q59 0 102 -27.5t43 -80.5q0 -29 -16.5 -53.5t-39.5 -37.5q30 -12 47 -40t17 -58q0 -60 -46 -92.5t-114 -32.5q-67 0 -111 35.5t-51 99.5h85
q5 -34 26 -52.5t53 -18.5z" />
    <glyph glyph-name="acute" unicode="&#xb4;" horiz-adv-x="277" 
d="M255 725l-142 -116h-91l93 116h140z" />
    <glyph glyph-name="mu" unicode="&#xb5;" horiz-adv-x="582" 
d="M164 -175h-110q12 63 12 166v547h111v-294q0 -161 110 -161q60 0 89.5 45.5t29.5 122.5v287h111v-538h-111v65q-44 -74 -117 -74t-112 63v-56q0 -97 -13 -173z" />
    <glyph glyph-name="mu" unicode="&#x3bc;" horiz-adv-x="582" 
d="M164 -175h-110q12 63 12 166v547h111v-294q0 -161 110 -161q60 0 89.5 45.5t29.5 122.5v287h111v-538h-111v65q-44 -74 -117 -74t-112 63v-56q0 -97 -13 -173z" />
    <glyph glyph-name="paragraph" unicode="&#xb6;" horiz-adv-x="510" 
d="M0 548q0 85 61 131t172 46h211v-814h-79v740h-115v-740h-80v463q-70 7 -120 49.5t-50 124.5z" />
    <glyph glyph-name="middot" unicode="&#xb7;" horiz-adv-x="240" 
d="M188 201h-136v136h136v-136z" />
    <glyph glyph-name="cedilla" unicode="&#xb8;" horiz-adv-x="252" 
d="M22 -176l17 43q26 -14 58 -14q57 0 57 30q0 29 -41 29q-24 0 -38 -9l-30 17l51 83h53l-32 -51q18 3 35 3q34 -1 56 -19.5t22 -48.5q0 -37 -34 -59.5t-79 -22.5q-56 0 -95 19z" />
    <glyph glyph-name="onesuperior" unicode="&#xb9;" horiz-adv-x="241" 
d="M188 438h-86v286h-91v62q49 2 73 15t38 45h66v-408z" />
    <glyph glyph-name="ordmasculine" unicode="&#xba;" horiz-adv-x="363" 
d="M114 590q0 -92 68 -92q32 0 50.5 23t18.5 69t-18.5 68.5t-50.5 22.5q-31 0 -49.5 -22.5t-18.5 -68.5zM26 590q0 77 45.5 118t110.5 41q66 0 111.5 -41t45.5 -118t-45.5 -118t-111.5 -41t-111 41t-45 118z" />
    <glyph glyph-name="guillemotright" unicode="&#xbb;" horiz-adv-x="543" 
d="M527 273l-159 -230h-114l135 230l-135 229h114zM305 273l-159 -230h-114l135 230l-135 229h114z" />
    <glyph glyph-name="onequarter" unicode="&#xbc;" horiz-adv-x="848" 
d="M188 317h-86v286h-91v62q49 2 73 15t38 45h66v-408zM166 0h-126l500 725h126zM682 296l-104 -130h104v130zM831 166v-75h-62v-91h-87v91h-199v68l204 249h82v-242h62z" />
    <glyph glyph-name="onehalf" unicode="&#xbd;" horiz-adv-x="822" 
d="M188 317h-86v286h-91v62q49 2 73 15t38 45h66v-408zM166 0h-126l500 725h126zM647 415q64 0 103.5 -30t39.5 -83q0 -60 -49.5 -115t-147.5 -115h201v-72h-308v71q10 8 30 23q50 39 74.5 58.5t55.5 48.5t43.5 51.5t12.5 44.5q0 26 -16 40t-42 14q-67 0 -67 -84h-85
q-2 68 41 108t114 40z" />
    <glyph glyph-name="threequarters" unicode="&#xbe;" horiz-adv-x="979" 
d="M186 374q32 0 51 15.5t19 44.5q0 58 -94 58h-23v70h20q89 0 89 56q0 23 -18 36t-44 13q-65 0 -75 -62h-84q6 62 51 94.5t113 32.5q59 0 102 -27.5t43 -80.5q0 -29 -16.5 -53.5t-39.5 -37.5q30 -12 47 -40t17 -58q0 -60 -46 -92.5t-114 -32.5q-67 0 -111 35.5t-51 99.5h85
q5 -34 26 -52.5t53 -18.5zM298 0h-126l500 725h126zM814 296l-104 -130h104v130zM963 166v-75h-62v-91h-87v91h-199v68l204 249h82v-242h62z" />
    <glyph glyph-name="questiondown" unicode="&#xbf;" horiz-adv-x="514" 
d="M247 -189q-97 0 -166.5 45.5t-69.5 132.5q0 63 34 105.5t91 78.5q34 21 50 33.5t28.5 36t12.5 54.5v31h119v-34q0 -46 -16.5 -80.5t-37 -53t-59.5 -44.5q-35 -22 -52.5 -35t-32.5 -36t-15 -50q0 -41 33.5 -65t84.5 -24q64 0 99.5 37t37.5 99h118q0 -103 -73.5 -167
t-185.5 -64zM354 402h-136v136h136v-136z" />
    <glyph glyph-name="Agrave" unicode="&#xc0;" horiz-adv-x="676" 
d="M0 0l270 725h134l272 -725h-139l-57 161h-294l-56 -161h-130zM332 578l-109 -311h219zM296 773l-165 113h153l106 -113h-94z" />
    <glyph glyph-name="Aacute" unicode="&#xc1;" horiz-adv-x="676" 
d="M0 0l270 725h134l272 -725h-139l-57 161h-294l-56 -161h-130zM332 578l-109 -311h219zM545 886l-155 -113h-104l105 113h154z" />
    <glyph glyph-name="Acircumflex" unicode="&#xc2;" horiz-adv-x="676" 
d="M0 0l270 725h134l272 -725h-139l-57 161h-294l-56 -161h-130zM332 578l-109 -311h219zM392 886l135 -113h-122l-67 51l-68 -51h-121l138 113h105z" />
    <glyph glyph-name="Atilde" unicode="&#xc3;" horiz-adv-x="676" 
d="M0 0l270 725h134l272 -725h-139l-57 161h-294l-56 -161h-130zM332 578l-109 -311h219zM399 847q41 0 50 39h83q-18 -113 -128 -113q-33 0 -71.5 19.5t-56.5 19.5q-41 0 -47 -39h-85q19 113 128 113q34 0 71 -19.5t56 -19.5z" />
    <glyph glyph-name="Adieresis" unicode="&#xc4;" horiz-adv-x="676" 
d="M0 0l270 725h134l272 -725h-139l-57 161h-294l-56 -161h-130zM332 578l-109 -311h219zM168 884h105v-108h-105v108zM404 884h105v-108h-105v108z" />
    <glyph glyph-name="Aring" unicode="&#xc5;" horiz-adv-x="676" 
d="M0 0l270 725h134l272 -725h-139l-57 161h-294l-56 -161h-130zM332 578l-109 -311h219zM338 935q39 0 65 -23.5t26 -61.5q0 -37 -26 -61t-65 -24q-38 0 -64 24t-26 61t26 61t64 24zM338 893q-18 0 -30.5 -12.5t-12.5 -30.5t12.5 -30t30.5 -12t30.5 12t12.5 30t-12.5 30.5
t-30.5 12.5z" />
    <glyph glyph-name="AE" unicode="&#xc6;" horiz-adv-x="1014" 
d="M987 0h-514v151h-262l-101 -151h-136l499 725h514v-106h-387v-194h365v-105h-365v-213h387v-107zM473 542l-192 -286h192v286z" />
    <glyph glyph-name="Ccedilla" unicode="&#xc7;" horiz-adv-x="726" 
d="M570 241h122q-23 -123 -104.5 -188.5t-208.5 -65.5q-157 0 -246 102.5t-89 275.5q0 171 91.5 272t249.5 101q123 0 203 -66t102 -188h-122q-17 73 -66 111.5t-121 38.5q-90 0 -148 -71t-58 -198q0 -128 57.5 -201t147.5 -73q75 0 124 38t66 112zM264 -176l17 43
q26 -14 58 -14q57 0 57 30q0 29 -41 29q-24 0 -38 -9l-30 17l51 83h53l-32 -51q18 3 35 3q34 -1 56 -19.5t22 -48.5q0 -37 -34 -59.5t-79 -22.5q-56 0 -95 19z" />
    <glyph glyph-name="Egrave" unicode="&#xc8;" horiz-adv-x="615" 
d="M73 0v725h513v-106h-386v-194h365v-105h-365v-213h386v-107h-513zM317 773l-165 113h153l106 -113h-94z" />
    <glyph glyph-name="Eacute" unicode="&#xc9;" horiz-adv-x="615" 
d="M73 0v725h513v-106h-386v-194h365v-105h-365v-213h386v-107h-513zM526 886l-155 -113h-104l105 113h154z" />
    <glyph glyph-name="Ecircumflex" unicode="&#xca;" horiz-adv-x="615" 
d="M73 0v725h513v-106h-386v-194h365v-105h-365v-213h386v-107h-513zM393 886l135 -113h-122l-67 51l-68 -51h-121l138 113h105z" />
    <glyph glyph-name="Edieresis" unicode="&#xcb;" horiz-adv-x="615" 
d="M73 0v725h513v-106h-386v-194h365v-105h-365v-213h386v-107h-513zM169 884h105v-108h-105v108zM405 884h105v-108h-105v108z" />
    <glyph glyph-name="Igrave" unicode="&#xcc;" horiz-adv-x="273" 
d="M200 725v-725h-127v725h127zM95 773l-165 113h153l106 -113h-94z" />
    <glyph glyph-name="Iacute" unicode="&#xcd;" horiz-adv-x="273" 
d="M200 725v-725h-127v725h127zM343 886l-155 -113h-104l105 113h154z" />
    <glyph glyph-name="Icircumflex" unicode="&#xce;" horiz-adv-x="273" 
d="M200 725v-725h-127v725h127zM190 886l135 -113h-122l-67 51l-68 -51h-121l138 113h105z" />
    <glyph glyph-name="Idieresis" unicode="&#xcf;" horiz-adv-x="273" 
d="M200 725v-725h-127v725h127zM-34 884h105v-108h-105v108zM202 884h105v-108h-105v108z" />
    <glyph glyph-name="Eth" unicode="&#xd0;" horiz-adv-x="739" 
d="M93 725h198q72 0 130.5 -10.5t110.5 -36t87.5 -66t56 -103.5t20.5 -146q0 -103 -30.5 -175.5t-87 -112.5t-126.5 -57.5t-161 -17.5h-198v314h-84v106h84v305zM564 363q0 82 -23 136.5t-66 80t-86.5 34.5t-103.5 9h-65v-203h133v-106h-133v-212h65q60 0 103.5 9t86.5 35
t66 80.5t23 136.5z" />
    <glyph glyph-name="Ntilde" unicode="&#xd1;" horiz-adv-x="746" 
d="M673 0h-170l-307 579v-579h-123v725h170l307 -579v579h123v-725zM454 847q41 0 50 39h83q-18 -113 -128 -113q-33 0 -71.5 19.5t-56.5 19.5q-41 0 -47 -39h-85q19 113 128 113q33 0 71 -19.5t56 -19.5z" />
    <glyph glyph-name="Ograve" unicode="&#xd2;" horiz-adv-x="780" 
d="M175 363q0 -128 60.5 -200t154.5 -72t154.5 72t60.5 200t-60.5 199.5t-154.5 71.5t-154.5 -71.5t-60.5 -199.5zM736 363q0 -169 -94 -272.5t-252 -103.5t-252 103.5t-94 272.5t93.5 272t252.5 103t252.5 -103t93.5 -272zM348 773l-165 113h153l106 -113h-94z" />
    <glyph glyph-name="Oacute" unicode="&#xd3;" horiz-adv-x="780" 
d="M175 363q0 -128 60.5 -200t154.5 -72t154.5 72t60.5 200t-60.5 199.5t-154.5 71.5t-154.5 -71.5t-60.5 -199.5zM736 363q0 -169 -94 -272.5t-252 -103.5t-252 103.5t-94 272.5t93.5 272t252.5 103t252.5 -103t93.5 -272zM597 886l-155 -113h-104l105 113h154z" />
    <glyph glyph-name="Ocircumflex" unicode="&#xd4;" horiz-adv-x="780" 
d="M175 363q0 -128 60.5 -200t154.5 -72t154.5 72t60.5 200t-60.5 199.5t-154.5 71.5t-154.5 -71.5t-60.5 -199.5zM736 363q0 -169 -94 -272.5t-252 -103.5t-252 103.5t-94 272.5t93.5 272t252.5 103t252.5 -103t93.5 -272zM444 886l135 -113h-122l-67 51l-68 -51h-121
l138 113h105z" />
    <glyph glyph-name="Otilde" unicode="&#xd5;" horiz-adv-x="780" 
d="M175 363q0 -128 60.5 -200t154.5 -72t154.5 72t60.5 200t-60.5 199.5t-154.5 71.5t-154.5 -71.5t-60.5 -199.5zM736 363q0 -169 -94 -272.5t-252 -103.5t-252 103.5t-94 272.5t93.5 272t252.5 103t252.5 -103t93.5 -272zM451 847q41 0 50 39h83q-18 -113 -128 -113
q-33 0 -71.5 19.5t-56.5 19.5q-41 0 -47 -39h-85q19 113 128 113q34 0 71 -19.5t56 -19.5z" />
    <glyph glyph-name="Odieresis" unicode="&#xd6;" horiz-adv-x="780" 
d="M175 363q0 -128 60.5 -200t154.5 -72t154.5 72t60.5 200t-60.5 199.5t-154.5 71.5t-154.5 -71.5t-60.5 -199.5zM736 363q0 -169 -94 -272.5t-252 -103.5t-252 103.5t-94 272.5t93.5 272t252.5 103t252.5 -103t93.5 -272zM220 884h105v-108h-105v108zM456 884h105v-108
h-105v108z" />
    <glyph glyph-name="multiply" unicode="&#xd7;" 
d="M575 104l-74 -74l-166 166l-162 -163l-70 69l162 164l-161 161l74 74l162 -161l163 162l69 -69l-162 -163z" />
    <glyph glyph-name="Oslash" unicode="&#xd8;" horiz-adv-x="780" 
d="M736 363q0 -169 -94 -272.5t-252 -103.5q-130 0 -217 70l-64 -75l-49 43l67 78q-83 101 -83 260q0 169 93.5 272t252.5 103q129 0 217 -71l57 66l49 -42l-60 -70q83 -102 83 -258zM175 363q0 -95 35 -162l321 376q-59 57 -141 57q-94 0 -154.5 -71.5t-60.5 -199.5z
M605 363q0 93 -35 160l-320 -376q56 -56 140 -56q94 0 154.5 72t60.5 200z" />
    <glyph glyph-name="Ugrave" unicode="&#xd9;" horiz-adv-x="717" 
d="M62 725h127v-428q0 -106 36.5 -156t133.5 -50q95 0 132 52t37 158v424h127v-419q0 -171 -68.5 -245t-227.5 -74t-228 71t-69 244v423zM346 773l-165 113h153l106 -113h-94z" />
    <glyph glyph-name="Uacute" unicode="&#xda;" horiz-adv-x="717" 
d="M62 725h127v-428q0 -106 36.5 -156t133.5 -50q95 0 132 52t37 158v424h127v-419q0 -171 -68.5 -245t-227.5 -74t-228 71t-69 244v423zM545 886l-155 -113h-104l105 113h154z" />
    <glyph glyph-name="Ucircumflex" unicode="&#xdb;" horiz-adv-x="717" 
d="M62 725h127v-428q0 -106 36.5 -156t133.5 -50q95 0 132 52t37 158v424h127v-419q0 -171 -68.5 -245t-227.5 -74t-228 71t-69 244v423zM412 886l135 -113h-122l-67 51l-68 -51h-121l138 113h105z" />
    <glyph glyph-name="Udieresis" unicode="&#xdc;" horiz-adv-x="717" 
d="M62 725h127v-428q0 -106 36.5 -156t133.5 -50q95 0 132 52t37 158v424h127v-419q0 -171 -68.5 -245t-227.5 -74t-228 71t-69 244v423zM188 884h105v-108h-105v108zM424 884h105v-108h-105v108z" />
    <glyph glyph-name="Yacute" unicode="&#xdd;" horiz-adv-x="643" 
d="M-5 725h145l180 -324l185 324h143l-267 -445v-280h-127v282zM527 886l-155 -113h-104l105 113h154z" />
    <glyph glyph-name="Thorn" unicode="&#xde;" horiz-adv-x="619" 
d="M202 605h99q53 0 94 -4.5t83 -19t69 -39.5t44.5 -68.5t17.5 -102.5q0 -66 -23 -112.5t-66.5 -70.5t-95.5 -34.5t-121 -10.5h-101v-143h-129v725h129v-120zM301 499h-99v-250h106q83 0 126.5 24.5t43.5 96.5q0 34 -10.5 59t-25.5 38t-40.5 20.5t-47.5 9.5t-53 2z" />
    <glyph glyph-name="germandbls" unicode="&#xdf;" horiz-adv-x="645" 
d="M186 0h-119v479q0 129 58 192q64 67 206 67q105 0 170.5 -46t65.5 -134q0 -106 -90 -148q59 -18 96 -67t37 -128q0 -112 -73.5 -170t-190.5 -58q-62 0 -114 12l19 101q45 -15 94 -15q61 0 102 33.5t41 95.5q0 136 -188 136h-12v100h9q151 0 151 101q0 45 -31.5 70.5
t-88.5 25.5q-78 0 -114 -43q-28 -38 -28 -124v-480z" />
    <glyph glyph-name="agrave" unicode="&#xe0;" horiz-adv-x="569" 
d="M400 212v41q-130 -12 -184.5 -34.5t-54.5 -67.5q0 -35 27 -55t72 -20q67 0 103.5 34t36.5 102zM234 -13q-88 0 -143.5 44t-55.5 117q0 33 12.5 59t38.5 45t56 32.5t74.5 23.5t85 16t95.5 12v10q0 120 -112 120q-47 0 -76.5 -25t-31.5 -72h-117q6 82 69 133.5t160 51.5
q105 0 167 -54.5t60 -176.5q0 -10 -1 -61t-1 -78q0 -119 16 -184h-109q-8 44 -10 73q-51 -86 -177 -86zM254 609l-142 116h141l94 -116h-93z" />
    <glyph glyph-name="aacute" unicode="&#xe1;" horiz-adv-x="569" 
d="M400 212v41q-130 -12 -184.5 -34.5t-54.5 -67.5q0 -35 27 -55t72 -20q67 0 103.5 34t36.5 102zM234 -13q-88 0 -143.5 44t-55.5 117q0 33 12.5 59t38.5 45t56 32.5t74.5 23.5t85 16t95.5 12v10q0 120 -112 120q-47 0 -76.5 -25t-31.5 -72h-117q6 82 69 133.5t160 51.5
q105 0 167 -54.5t60 -176.5q0 -10 -1 -61t-1 -78q0 -119 16 -184h-109q-8 44 -10 73q-51 -86 -177 -86zM467 725l-142 -116h-91l93 116h140z" />
    <glyph glyph-name="acircumflex" unicode="&#xe2;" horiz-adv-x="569" 
d="M400 212v41q-130 -12 -184.5 -34.5t-54.5 -67.5q0 -35 27 -55t72 -20q67 0 103.5 34t36.5 102zM234 -13q-88 0 -143.5 44t-55.5 117q0 33 12.5 59t38.5 45t56 32.5t74.5 23.5t85 16t95.5 12v10q0 120 -112 120q-47 0 -76.5 -25t-31.5 -72h-117q6 82 69 133.5t160 51.5
q105 0 167 -54.5t60 -176.5q0 -10 -1 -61t-1 -78q0 -119 16 -184h-109q-8 44 -10 73q-51 -86 -177 -86zM340 725l140 -116h-110l-79 48l-80 -48h-109l143 116h95z" />
    <glyph glyph-name="atilde" unicode="&#xe3;" horiz-adv-x="569" 
d="M400 212v41q-130 -12 -184.5 -34.5t-54.5 -67.5q0 -35 27 -55t72 -20q67 0 103.5 34t36.5 102zM234 -13q-88 0 -143.5 44t-55.5 117q0 33 12.5 59t38.5 45t56 32.5t74.5 23.5t85 16t95.5 12v10q0 120 -112 120q-47 0 -76.5 -25t-31.5 -72h-117q6 82 69 133.5t160 51.5
q105 0 167 -54.5t60 -176.5q0 -10 -1 -61t-1 -78q0 -119 16 -184h-109q-8 44 -10 73q-51 -86 -177 -86zM356 691q41 0 50 44h85q-11 -70 -48.5 -98.5t-80.5 -28.5q-35 0 -73.5 22.5t-56.5 22.5q-40 0 -48 -44h-85q11 68 48.5 97.5t80.5 29.5q35 0 71.5 -22.5t56.5 -22.5z
" />
    <glyph glyph-name="adieresis" unicode="&#xe4;" horiz-adv-x="569" 
d="M400 212v41q-130 -12 -184.5 -34.5t-54.5 -67.5q0 -35 27 -55t72 -20q67 0 103.5 34t36.5 102zM234 -13q-88 0 -143.5 44t-55.5 117q0 33 12.5 59t38.5 45t56 32.5t74.5 23.5t85 16t95.5 12v10q0 120 -112 120q-47 0 -76.5 -25t-31.5 -72h-117q6 82 69 133.5t160 51.5
q105 0 167 -54.5t60 -176.5q0 -10 -1 -61t-1 -78q0 -119 16 -184h-109q-8 44 -10 73q-51 -86 -177 -86zM120 614v111h105v-111h-105zM356 725h105v-111h-105v111z" />
    <glyph glyph-name="aring" unicode="&#xe5;" horiz-adv-x="569" 
d="M400 212v41q-130 -12 -184.5 -34.5t-54.5 -67.5q0 -35 27 -55t72 -20q67 0 103.5 34t36.5 102zM234 -13q-88 0 -143.5 44t-55.5 117q0 33 12.5 59t38.5 45t56 32.5t74.5 23.5t85 16t95.5 12v10q0 120 -112 120q-47 0 -76.5 -25t-31.5 -72h-117q6 82 69 133.5t160 51.5
q105 0 167 -54.5t60 -176.5q0 -10 -1 -61t-1 -78q0 -119 16 -184h-109q-8 44 -10 73q-51 -86 -177 -86zM291 779q39 0 66 -24.5t27 -62.5t-27 -62.5t-66 -24.5t-66 24.5t-27 62.5t27 62.5t66 24.5zM291 734q-17 0 -29 -12t-12 -30t12 -29.5t29 -11.5q18 0 30 11.5t12 29.5
t-12.5 30t-29.5 12z" />
    <glyph glyph-name="ae" unicode="&#xe6;" horiz-adv-x="943" 
d="M654 457q-51 0 -93.5 -32.5t-49.5 -102.5h280q-2 61 -42 98t-95 37zM400 212v41q-130 -12 -184.5 -34.5t-54.5 -67.5q0 -35 27 -55t72 -20q67 0 103.5 34t36.5 102zM789 161h117q-20 -72 -83.5 -123t-160.5 -51q-141 0 -212 107q-63 -107 -216 -107q-88 0 -143.5 44
t-55.5 117q0 33 12.5 59t38.5 45t56 32.5t74.5 23.5t85 16t95.5 12v10q0 120 -112 120q-47 0 -76.5 -25t-31.5 -72h-117q6 82 69 133.5t160 51.5q131 0 182 -81q71 77 183 77q123 0 194.5 -89.5t63.5 -225.5h-401q6 -70 49 -109.5t97 -39.5q101 0 132 75z" />
    <glyph glyph-name="ccedilla" unicode="&#xe7;" horiz-adv-x="564" 
d="M294 550q90 0 157.5 -54t83.5 -142h-116q-8 43 -42.5 70t-82.5 27q-61 0 -101 -46t-40 -136t40 -136.5t98 -46.5q49 0 85 23.5t47 74.5h116q-17 -91 -88.5 -144t-161.5 -53q-116 0 -187.5 79.5t-71.5 201.5t72.5 202t191.5 80zM173 -176l17 43q26 -14 58 -14q57 0 57 30
q0 29 -41 29q-24 0 -38 -9l-30 17l51 83h53l-32 -51q18 3 35 3q34 -1 56 -19.5t22 -48.5q0 -37 -34 -59.5t-79 -22.5q-56 0 -95 19z" />
    <glyph glyph-name="egrave" unicode="&#xe8;" horiz-adv-x="584" 
d="M553 235h-401q6 -71 48.5 -110t97.5 -39q101 0 132 75h117q-20 -72 -83.5 -123t-160.5 -51q-125 0 -198.5 82.5t-73.5 203.5t75 199t189 78q123 0 194.5 -89.5t63.5 -225.5zM295 457q-50 0 -92.5 -33t-50.5 -102h280q-2 61 -42 98t-95 37zM243 609l-142 116h141l94 -116
h-93z" />
    <glyph glyph-name="eacute" unicode="&#xe9;" horiz-adv-x="584" 
d="M553 235h-401q6 -71 48.5 -110t97.5 -39q101 0 132 75h117q-20 -72 -83.5 -123t-160.5 -51q-125 0 -198.5 82.5t-73.5 203.5t75 199t189 78q123 0 194.5 -89.5t63.5 -225.5zM295 457q-50 0 -92.5 -33t-50.5 -102h280q-2 61 -42 98t-95 37zM466 725l-142 -116h-91l93 116
h140z" />
    <glyph glyph-name="ecircumflex" unicode="&#xea;" horiz-adv-x="584" 
d="M553 235h-401q6 -71 48.5 -110t97.5 -39q101 0 132 75h117q-20 -72 -83.5 -123t-160.5 -51q-125 0 -198.5 82.5t-73.5 203.5t75 199t189 78q123 0 194.5 -89.5t63.5 -225.5zM295 457q-50 0 -92.5 -33t-50.5 -102h280q-2 61 -42 98t-95 37zM345 725l140 -116h-110l-79 48
l-80 -48h-109l143 116h95z" />
    <glyph glyph-name="edieresis" unicode="&#xeb;" horiz-adv-x="584" 
d="M553 235h-401q6 -71 48.5 -110t97.5 -39q101 0 132 75h117q-20 -72 -83.5 -123t-160.5 -51q-125 0 -198.5 82.5t-73.5 203.5t75 199t189 78q123 0 194.5 -89.5t63.5 -225.5zM295 457q-50 0 -92.5 -33t-50.5 -102h280q-2 61 -42 98t-95 37zM119 614v111h105v-111h-105z
M355 725h105v-111h-105v111z" />
    <glyph glyph-name="igrave" unicode="&#xec;" horiz-adv-x="253" 
d="M67 538h119v-538h-119v538zM81 609l-142 116h141l94 -116h-93z" />
    <glyph glyph-name="iacute" unicode="&#xed;" horiz-adv-x="253" 
d="M67 538h119v-538h-119v538zM313 725l-142 -116h-91l93 116h140z" />
    <glyph glyph-name="icircumflex" unicode="&#xee;" horiz-adv-x="253" 
d="M67 538h119v-538h-119v538zM175 725l140 -116h-110l-79 48l-80 -48h-109l143 116h95z" />
    <glyph glyph-name="idieresis" unicode="&#xef;" horiz-adv-x="253" 
d="M67 538h119v-538h-119v538zM-44 614v111h105v-111h-105zM192 725h105v-111h-105v111z" />
    <glyph glyph-name="eth" unicode="&#xf0;" horiz-adv-x="578" 
d="M323 701l62 39l54 -27l-71 -44q173 -135 173 -358q0 -159 -71 -241.5t-188 -82.5q-113 0 -183 75t-70 204q0 131 65.5 207.5t166.5 76.5q50 0 92 -23t66 -63l1 1q-36 85 -135 154l-72 -44l-53 25l77 48q-18 10 -81 38l85 60q40 -19 82 -45zM425 269q0 89 -39 136.5
t-100 47.5q-63 0 -98 -49t-35 -135q0 -87 35 -136t98 -49q61 0 100 48t39 137z" />
    <glyph glyph-name="ntilde" unicode="&#xf1;" horiz-adv-x="589" 
d="M186 538v-75q48 87 163 87q183 0 183 -212v-338h-119v309q0 32 -3.5 54t-13 44.5t-31 34t-54.5 11.5q-125 0 -125 -167v-286h-119v538h119zM372 691q41 0 50 44h85q-11 -70 -48.5 -98.5t-80.5 -28.5q-35 0 -73.5 22.5t-56.5 22.5q-40 0 -48 -44h-85q11 68 48.5 97.5
t80.5 29.5q35 0 71.5 -22.5t56.5 -22.5z" />
    <glyph glyph-name="ograve" unicode="&#xf2;" horiz-adv-x="592" 
d="M154 268q0 -89 40.5 -136.5t101.5 -47.5t101.5 47.5t40.5 136.5t-40.5 137t-101.5 48t-101.5 -48t-40.5 -137zM296 550q108 0 186.5 -73t78.5 -209q0 -137 -78.5 -209t-186.5 -72t-186.5 72t-78.5 209q0 136 78.5 209t186.5 73zM247 609l-142 116h141l94 -116h-93z" />
    <glyph glyph-name="oacute" unicode="&#xf3;" horiz-adv-x="592" 
d="M154 268q0 -89 40.5 -136.5t101.5 -47.5t101.5 47.5t40.5 136.5t-40.5 137t-101.5 48t-101.5 -48t-40.5 -137zM296 550q108 0 186.5 -73t78.5 -209q0 -137 -78.5 -209t-186.5 -72t-186.5 72t-78.5 209q0 136 78.5 209t186.5 73zM480 725l-142 -116h-91l93 116h140z" />
    <glyph glyph-name="ocircumflex" unicode="&#xf4;" horiz-adv-x="592" 
d="M154 268q0 -89 40.5 -136.5t101.5 -47.5t101.5 47.5t40.5 136.5t-40.5 137t-101.5 48t-101.5 -48t-40.5 -137zM296 550q108 0 186.5 -73t78.5 -209q0 -137 -78.5 -209t-186.5 -72t-186.5 72t-78.5 209q0 136 78.5 209t186.5 73zM342 725l140 -116h-110l-79 48l-80 -48
h-109l143 116h95z" />
    <glyph glyph-name="otilde" unicode="&#xf5;" horiz-adv-x="592" 
d="M154 268q0 -89 40.5 -136.5t101.5 -47.5t101.5 47.5t40.5 136.5t-40.5 137t-101.5 48t-101.5 -48t-40.5 -137zM296 550q108 0 186.5 -73t78.5 -209q0 -137 -78.5 -209t-186.5 -72t-186.5 72t-78.5 209q0 136 78.5 209t186.5 73zM354 691q41 0 50 44h85
q-11 -70 -48.5 -98.5t-80.5 -28.5q-35 0 -73.5 22.5t-56.5 22.5q-40 0 -48 -44h-85q11 68 48.5 97.5t80.5 29.5q35 0 71.5 -22.5t56.5 -22.5z" />
    <glyph glyph-name="odieresis" unicode="&#xf6;" horiz-adv-x="592" 
d="M154 268q0 -89 40.5 -136.5t101.5 -47.5t101.5 47.5t40.5 136.5t-40.5 137t-101.5 48t-101.5 -48t-40.5 -137zM296 550q108 0 186.5 -73t78.5 -209q0 -137 -78.5 -209t-186.5 -72t-186.5 72t-78.5 209q0 136 78.5 209t186.5 73zM123 614v111h105v-111h-105zM359 725h105
v-111h-105v111z" />
    <glyph glyph-name="divide" unicode="&#xf7;" 
d="M272 26v130h135v-130h-135zM272 371v130h135v-130h-135zM604 210h-529v107h529v-107z" />
    <glyph glyph-name="oslash" unicode="&#xf8;" horiz-adv-x="592" 
d="M296 550q92 0 159 -50l44 51l45 -40l-45 -52q62 -72 62 -191q0 -137 -78.5 -209t-186.5 -72q-94 0 -162 51l-56 -65l-45 41l57 66q-59 74 -59 188q0 136 78.5 209t186.5 73zM438 268q0 57 -19 99l-214 -247q37 -36 91 -36q61 0 101.5 47.5t40.5 136.5zM154 268
q0 -56 16 -95l214 246q-37 34 -88 34q-61 0 -101.5 -48t-40.5 -137z" />
    <glyph glyph-name="ugrave" unicode="&#xf9;" horiz-adv-x="585" 
d="M399 0v74q-48 -87 -159 -87q-180 0 -180 212v339h119v-310q0 -25 1.5 -43t7.5 -38.5t16.5 -33t29 -21t44.5 -8.5q121 0 121 167v287h119v-538h-119zM253 609l-142 116h141l94 -116h-93z" />
    <glyph glyph-name="uacute" unicode="&#xfa;" horiz-adv-x="585" 
d="M399 0v74q-48 -87 -159 -87q-180 0 -180 212v339h119v-310q0 -25 1.5 -43t7.5 -38.5t16.5 -33t29 -21t44.5 -8.5q121 0 121 167v287h119v-538h-119zM466 725l-142 -116h-91l93 116h140z" />
    <glyph glyph-name="ucircumflex" unicode="&#xfb;" horiz-adv-x="585" 
d="M399 0v74q-48 -87 -159 -87q-180 0 -180 212v339h119v-310q0 -25 1.5 -43t7.5 -38.5t16.5 -33t29 -21t44.5 -8.5q121 0 121 167v287h119v-538h-119zM338 725l140 -116h-110l-79 48l-80 -48h-109l143 116h95z" />
    <glyph glyph-name="udieresis" unicode="&#xfc;" horiz-adv-x="585" 
d="M399 0v74q-48 -87 -159 -87q-180 0 -180 212v339h119v-310q0 -25 1.5 -43t7.5 -38.5t16.5 -33t29 -21t44.5 -8.5q121 0 121 167v287h119v-538h-119zM122 614v111h105v-111h-105zM358 725h105v-111h-105v111z" />
    <glyph glyph-name="yacute" unicode="&#xfd;" horiz-adv-x="496" 
d="M100 -175h-54v91h45q43 0 62 12.5t36 61.5l6 13l-195 535h130l122 -386l122 386h122l-189 -537q-39 -107 -78.5 -141.5t-128.5 -34.5zM435 725l-142 -116h-91l93 116h140z" />
    <glyph glyph-name="thorn" unicode="&#xfe;" horiz-adv-x="610" 
d="M186 725v-259q52 84 160 84q99 0 166.5 -77.5t67.5 -203.5q0 -127 -67.5 -204.5t-166.5 -77.5q-108 0 -160 84v-246h-119v900h119zM181 269q0 -90 39 -137.5t101 -47.5q60 0 98 50t38 135t-38 134.5t-98 49.5q-62 0 -101 -47.5t-39 -136.5z" />
    <glyph glyph-name="ydieresis" unicode="&#xff;" horiz-adv-x="496" 
d="M100 -175h-54v91h45q43 0 62 12.5t36 61.5l6 13l-195 535h130l122 -386l122 386h122l-189 -537q-39 -107 -78.5 -141.5t-128.5 -34.5zM78 614v111h105v-111h-105zM314 725h105v-111h-105v111z" />
    <glyph glyph-name="Amacron" unicode="&#x100;" horiz-adv-x="676" 
d="M0 0l270 725h134l272 -725h-139l-57 161h-294l-56 -161h-130zM332 578l-109 -311h219zM492 786h-308v87h308v-87z" />
    <glyph glyph-name="amacron" unicode="&#x101;" horiz-adv-x="569" 
d="M400 212v41q-130 -12 -184.5 -34.5t-54.5 -67.5q0 -35 27 -55t72 -20q67 0 103.5 34t36.5 102zM234 -13q-88 0 -143.5 44t-55.5 117q0 33 12.5 59t38.5 45t56 32.5t74.5 23.5t85 16t95.5 12v10q0 120 -112 120q-47 0 -76.5 -25t-31.5 -72h-117q6 82 69 133.5t160 51.5
q105 0 167 -54.5t60 -176.5q0 -10 -1 -61t-1 -78q0 -119 16 -184h-109q-8 44 -10 73q-51 -86 -177 -86zM448 628h-308v88h308v-88z" />
    <glyph glyph-name="Abreve" unicode="&#x102;" horiz-adv-x="676" 
d="M0 0l270 725h134l272 -725h-139l-57 161h-294l-56 -161h-130zM332 578l-109 -311h219zM414 886h89q-11 -117 -165 -117q-152 0 -164 117h89q7 -51 76 -51t75 51z" />
    <glyph glyph-name="abreve" unicode="&#x103;" horiz-adv-x="569" 
d="M400 212v41q-130 -12 -184.5 -34.5t-54.5 -67.5q0 -35 27 -55t72 -20q67 0 103.5 34t36.5 102zM234 -13q-88 0 -143.5 44t-55.5 117q0 33 12.5 59t38.5 45t56 32.5t74.5 23.5t85 16t95.5 12v10q0 120 -112 120q-47 0 -76.5 -25t-31.5 -72h-117q6 82 69 133.5t160 51.5
q105 0 167 -54.5t60 -176.5q0 -10 -1 -61t-1 -78q0 -119 16 -184h-109q-8 44 -10 73q-51 -86 -177 -86zM372 725h86q-14 -121 -166 -121q-155 0 -164 121h87q6 -55 78 -55q73 0 79 55z" />
    <glyph glyph-name="Aogonek" unicode="&#x104;" horiz-adv-x="676" 
d="M0 0l270 725h134l272 -725q-91 -45 -91 -78q0 -35 45 -35q27 0 46 7v-73q-36 -9 -73 -9q-29 0 -55.5 7t-48 29t-21.5 55q0 63 59 97l-57 161h-294l-56 -161h-130zM332 578l-109 -311h219z" />
    <glyph glyph-name="aogonek" unicode="&#x105;" horiz-adv-x="569" 
d="M400 212v41q-130 -12 -184.5 -34.5t-54.5 -67.5q0 -35 27 -55t72 -20q67 0 103.5 34t36.5 102zM421 0q-8 44 -10 73q-51 -86 -177 -86q-88 0 -143.5 44t-55.5 117q0 33 12.5 59t38.5 45t56 32.5t74.5 23.5t85 16t95.5 12v10q0 120 -112 120q-47 0 -76.5 -25t-31.5 -72
h-117q6 82 69 133.5t160 51.5q105 0 167 -54.5t60 -176.5q0 -10 -1 -61t-1 -78q0 -119 16 -184q-46 -22 -67.5 -39t-21.5 -38q0 -37 46 -37q8 0 42 9v-73q-33 -10 -64 -10q-56 0 -92.5 22.5t-36.5 69.5q0 29 23.5 54.5t61.5 41.5z" />
    <glyph glyph-name="Cacute" unicode="&#x106;" horiz-adv-x="726" 
d="M570 241h122q-23 -123 -104.5 -188.5t-208.5 -65.5q-157 0 -246 102.5t-89 275.5q0 171 91.5 272t249.5 101q123 0 203 -66t102 -188h-122q-17 73 -66 111.5t-121 38.5q-90 0 -148 -71t-58 -198q0 -128 57.5 -201t147.5 -73q75 0 124 38t66 112zM575 886l-155 -113h-104
l105 113h154z" />
    <glyph glyph-name="cacute" unicode="&#x107;" horiz-adv-x="564" 
d="M294 550q90 0 157.5 -54t83.5 -142h-116q-8 43 -42.5 70t-82.5 27q-61 0 -101 -46t-40 -136t40 -136.5t98 -46.5q49 0 85 23.5t47 74.5h116q-17 -91 -88.5 -144t-161.5 -53q-116 0 -187.5 79.5t-71.5 201.5t72.5 202t191.5 80zM469 725l-142 -116h-91l93 116h140z" />
    <glyph glyph-name="Ccircumflex" unicode="&#x108;" horiz-adv-x="726" 
d="M570 241h122q-23 -123 -104.5 -188.5t-208.5 -65.5q-157 0 -246 102.5t-89 275.5q0 171 91.5 272t249.5 101q123 0 203 -66t102 -188h-122q-17 73 -66 111.5t-121 38.5q-90 0 -148 -71t-58 -198q0 -128 57.5 -201t147.5 -73q75 0 124 38t66 112zM437 886l135 -113h-122
l-67 51l-68 -51h-121l138 113h105z" />
    <glyph glyph-name="ccircumflex" unicode="&#x109;" horiz-adv-x="564" 
d="M294 550q90 0 157.5 -54t83.5 -142h-116q-8 43 -42.5 70t-82.5 27q-61 0 -101 -46t-40 -136t40 -136.5t98 -46.5q49 0 85 23.5t47 74.5h116q-17 -91 -88.5 -144t-161.5 -53q-116 0 -187.5 79.5t-71.5 201.5t72.5 202t191.5 80zM341 725l140 -116h-110l-79 48l-80 -48
h-109l143 116h95z" />
    <glyph glyph-name="Cdotaccent" unicode="&#x10a;" horiz-adv-x="726" 
d="M570 241h122q-23 -123 -104.5 -188.5t-208.5 -65.5q-157 0 -246 102.5t-89 275.5q0 171 91.5 272t249.5 101q123 0 203 -66t102 -188h-122q-17 73 -66 111.5t-121 38.5q-90 0 -148 -71t-58 -198q0 -128 57.5 -201t147.5 -73q75 0 124 38t66 112zM322 884h123v-108h-123
v108z" />
    <glyph glyph-name="cdotaccent" unicode="&#x10b;" horiz-adv-x="564" 
d="M294 550q90 0 157.5 -54t83.5 -142h-116q-8 43 -42.5 70t-82.5 27q-61 0 -101 -46t-40 -136t40 -136.5t98 -46.5q49 0 85 23.5t47 74.5h116q-17 -91 -88.5 -144t-161.5 -53q-116 0 -187.5 79.5t-71.5 201.5t72.5 202t191.5 80zM230 725h105v-111h-105v111z" />
    <glyph glyph-name="Ccaron" unicode="&#x10c;" horiz-adv-x="726" 
d="M570 241h122q-23 -123 -104.5 -188.5t-208.5 -65.5q-157 0 -246 102.5t-89 275.5q0 171 91.5 272t249.5 101q123 0 203 -66t102 -188h-122q-17 73 -66 111.5t-121 38.5q-90 0 -148 -71t-58 -198q0 -128 57.5 -201t147.5 -73q75 0 124 38t66 112zM332 773l-135 113h122
l66 -52l69 52h121l-138 -113h-105z" />
    <glyph glyph-name="ccaron" unicode="&#x10d;" horiz-adv-x="564" 
d="M294 550q90 0 157.5 -54t83.5 -142h-116q-8 43 -42.5 70t-82.5 27q-61 0 -101 -46t-40 -136t40 -136.5t98 -46.5q49 0 85 23.5t47 74.5h116q-17 -91 -88.5 -144t-161.5 -53q-116 0 -187.5 79.5t-71.5 201.5t72.5 202t191.5 80zM233 609l-140 116h110l78 -48l81 48h109
l-143 -116h-95z" />
    <glyph glyph-name="Dcaron" unicode="&#x10e;" horiz-adv-x="719" 
d="M544 363q0 82 -23 136.5t-66 80t-86.5 34.5t-103.5 9h-65v-521h65q60 0 103.5 9t86.5 35t66 80.5t23 136.5zM73 725h198q72 0 130.5 -10.5t110.5 -36t87.5 -66t56 -103.5t20.5 -146q0 -103 -30.5 -175.5t-87 -112.5t-126.5 -57.5t-161 -17.5h-198v725zM300 773l-135 113
h122l66 -52l69 52h121l-138 -113h-105z" />
    <glyph glyph-name="dcaron" unicode="&#x10f;" horiz-adv-x="708" 
d="M728 725l-70 -170h-77l30 170h117zM424 466v259h119v-725h-119v71q-51 -84 -160 -84q-99 0 -166.5 77.5t-67.5 204.5q0 125 67.5 203t166.5 78q109 0 160 -84zM429 269q0 89 -39 136.5t-100 47.5t-98.5 -50t-37.5 -134q0 -86 37.5 -135.5t98.5 -49.5t100 48t39 137z" />
    <glyph glyph-name="Dcroat" unicode="&#x110;" horiz-adv-x="739" 
d="M93 725h198q72 0 130.5 -10.5t110.5 -36t87.5 -66t56 -103.5t20.5 -146q0 -103 -30.5 -175.5t-87 -112.5t-126.5 -57.5t-161 -17.5h-198v314h-84v106h84v305zM564 363q0 82 -23 136.5t-66 80t-86.5 34.5t-103.5 9h-65v-203h133v-106h-133v-212h65q60 0 103.5 9t86.5 35
t66 80.5t23 136.5z" />
    <glyph glyph-name="dslash" unicode="&#x111;" horiz-adv-x="614" 
d="M424 466v110h-134v79h134v70h119v-70h71v-79h-71v-576h-119v71q-51 -84 -160 -84q-99 0 -166.5 77.5t-67.5 204.5q0 125 67.5 203t166.5 78q109 0 160 -84zM429 269q0 89 -39 136.5t-100 47.5t-98.5 -50t-37.5 -134q0 -86 37.5 -135.5t98.5 -49.5t100 48t39 137z" />
    <glyph glyph-name="Emacron" unicode="&#x112;" horiz-adv-x="615" 
d="M73 0v725h513v-106h-386v-194h365v-105h-365v-213h386v-107h-513zM490 786h-308v87h308v-87z" />
    <glyph glyph-name="emacron" unicode="&#x113;" horiz-adv-x="584" 
d="M553 235h-401q6 -71 48.5 -110t97.5 -39q101 0 132 75h117q-20 -72 -83.5 -123t-160.5 -51q-125 0 -198.5 82.5t-73.5 203.5t75 199t189 78q123 0 194.5 -89.5t63.5 -225.5zM295 457q-50 0 -92.5 -33t-50.5 -102h280q-2 61 -42 98t-95 37zM450 628h-308v88h308v-88z" />
    <glyph glyph-name="Ebreve" unicode="&#x114;" horiz-adv-x="615" 
d="M73 0v725h513v-106h-386v-194h365v-105h-365v-213h386v-107h-513zM415 886h89q-10 -117 -165 -117q-152 0 -164 117h89q7 -51 76 -51t75 51z" />
    <glyph glyph-name="ebreve" unicode="&#x115;" horiz-adv-x="584" 
d="M553 235h-401q6 -71 48.5 -110t97.5 -39q101 0 132 75h117q-20 -72 -83.5 -123t-160.5 -51q-125 0 -198.5 82.5t-73.5 203.5t75 199t189 78q123 0 194.5 -89.5t63.5 -225.5zM295 457q-50 0 -92.5 -33t-50.5 -102h280q-2 61 -42 98t-95 37zM368 725h86q-14 -121 -166 -121
q-155 0 -164 121h87q6 -55 78 -55q73 0 79 55z" />
    <glyph glyph-name="Edotaccent" unicode="&#x116;" horiz-adv-x="615" 
d="M73 0v725h513v-106h-386v-194h365v-105h-365v-213h386v-107h-513zM268 884h123v-108h-123v108z" />
    <glyph glyph-name="edotaccent" unicode="&#x117;" horiz-adv-x="584" 
d="M553 235h-401q6 -71 48.5 -110t97.5 -39q101 0 132 75h117q-20 -72 -83.5 -123t-160.5 -51q-125 0 -198.5 82.5t-73.5 203.5t75 199t189 78q123 0 194.5 -89.5t63.5 -225.5zM295 457q-50 0 -92.5 -33t-50.5 -102h280q-2 61 -42 98t-95 37zM237 725h105v-111h-105v111z
" />
    <glyph glyph-name="Eogonek" unicode="&#x118;" horiz-adv-x="615" 
d="M73 0v725h513v-106h-386v-194h365v-105h-365v-213h386v-107h-513zM459 0h127q-91 -45 -91 -78q0 -35 45 -35q27 0 46 7v-73q-36 -9 -73 -9q-29 0 -55 7t-47 28.5t-21 55.5q0 61 69 97z" />
    <glyph glyph-name="eogonek" unicode="&#x119;" horiz-adv-x="584" 
d="M295 457q-51 0 -93.5 -32.5t-49.5 -102.5h280q-2 61 -42 98t-95 37zM426 -105v-73q-33 -10 -64 -10q-56 0 -92.5 22.5t-36.5 69.5q0 46 45 84q-114 8 -180.5 90t-66.5 195q0 121 75 199t189 78q123 0 194.5 -89.5t63.5 -225.5h-401q6 -70 49 -109.5t97 -39.5
q101 0 132 75h117q-27 -93 -114 -143q-95 -54 -95 -95q0 -37 46 -37q8 0 42 9z" />
    <glyph glyph-name="Ecaron" unicode="&#x11a;" horiz-adv-x="615" 
d="M73 0v725h513v-106h-386v-194h365v-105h-365v-213h386v-107h-513zM285 773l-135 113h122l66 -52l69 52h121l-138 -113h-105z" />
    <glyph glyph-name="ecaron" unicode="&#x11b;" horiz-adv-x="584" 
d="M553 235h-401q6 -71 48.5 -110t97.5 -39q101 0 132 75h117q-20 -72 -83.5 -123t-160.5 -51q-125 0 -198.5 82.5t-73.5 203.5t75 199t189 78q123 0 194.5 -89.5t63.5 -225.5zM295 457q-50 0 -92.5 -33t-50.5 -102h280q-2 61 -42 98t-95 37zM240 609l-140 116h110l78 -48
l81 48h109l-143 -116h-95z" />
    <glyph glyph-name="Gcircumflex" unicode="&#x11c;" horiz-adv-x="764" 
d="M392 738q123 0 203 -63t103 -180h-121q-18 67 -67 103t-121 36q-96 0 -155 -69.5t-59 -199.5t57.5 -202t155.5 -72q35 0 67 8.5t61.5 26.5t47.5 52t18 80v14h-185v107h303v-379h-100l-4 87q-67 -100 -222 -100q-153 0 -241.5 103t-88.5 275q0 170 93.5 271.5t254.5 101.5
zM446 886l135 -113h-122l-67 51l-68 -51h-121l138 113h105z" />
    <glyph glyph-name="gcircumflex" unicode="&#x11d;" horiz-adv-x="609" 
d="M424 466v72h119v-484q0 -130 -65 -190q-62 -58 -191 -58q-94 0 -155 40t-75 125h118q8 -38 34.5 -54.5t80.5 -16.5q74 0 107 39q27 31 27 91v63q-51 -84 -160 -84q-99 0 -166.5 74t-67.5 197t67.5 196.5t166.5 73.5q109 0 160 -84zM429 280q0 86 -39 130.5t-100 44.5
t-98.5 -47.5t-37.5 -127.5q0 -83 37.5 -130t98.5 -47t100 45t39 132zM355 725l140 -116h-110l-79 48l-80 -48h-109l143 116h95z" />
    <glyph glyph-name="Gbreve" unicode="&#x11e;" horiz-adv-x="764" 
d="M392 738q123 0 203 -63t103 -180h-121q-18 67 -67 103t-121 36q-96 0 -155 -69.5t-59 -199.5t57.5 -202t155.5 -72q35 0 67 8.5t61.5 26.5t47.5 52t18 80v14h-185v107h303v-379h-100l-4 87q-67 -100 -222 -100q-153 0 -241.5 103t-88.5 275q0 170 93.5 271.5t254.5 101.5
zM470 886h89q-11 -117 -165 -117q-152 0 -164 117h89q7 -51 76 -51t75 51z" />
    <glyph glyph-name="gbreve" unicode="&#x11f;" horiz-adv-x="609" 
d="M424 466v72h119v-484q0 -130 -65 -190q-62 -58 -191 -58q-94 0 -155 40t-75 125h118q8 -38 34.5 -54.5t80.5 -16.5q74 0 107 39q27 31 27 91v63q-51 -84 -160 -84q-99 0 -166.5 74t-67.5 197t67.5 196.5t166.5 73.5q109 0 160 -84zM429 280q0 86 -39 130.5t-100 44.5
t-98.5 -47.5t-37.5 -127.5q0 -83 37.5 -130t98.5 -47t100 45t39 132zM373 725h86q-14 -121 -166 -121q-155 0 -164 121h87q6 -55 78 -55q73 0 79 55z" />
    <glyph glyph-name="Gdotaccent" unicode="&#x120;" horiz-adv-x="764" 
d="M392 738q123 0 203 -63t103 -180h-121q-18 67 -67 103t-121 36q-96 0 -155 -69.5t-59 -199.5t57.5 -202t155.5 -72q35 0 67 8.5t61.5 26.5t47.5 52t18 80v14h-185v107h303v-379h-100l-4 87q-67 -100 -222 -100q-153 0 -241.5 103t-88.5 275q0 170 93.5 271.5t254.5 101.5
zM331 884h123v-108h-123v108z" />
    <glyph glyph-name="gdotaccent" unicode="&#x121;" horiz-adv-x="609" 
d="M424 466v72h119v-484q0 -130 -65 -190q-62 -58 -191 -58q-94 0 -155 40t-75 125h118q8 -38 34.5 -54.5t80.5 -16.5q74 0 107 39q27 31 27 91v63q-51 -84 -160 -84q-99 0 -166.5 74t-67.5 197t67.5 196.5t166.5 73.5q109 0 160 -84zM429 280q0 86 -39 130.5t-100 44.5
t-98.5 -47.5t-37.5 -127.5q0 -83 37.5 -130t98.5 -47t100 45t39 132zM233 725h105v-111h-105v111z" />
    <glyph glyph-name="uni0122" unicode="&#x122;" horiz-adv-x="764" 
d="M392 738q123 0 203 -63t103 -180h-121q-18 67 -67 103t-121 36q-96 0 -155 -69.5t-59 -199.5t57.5 -202t155.5 -72q35 0 67 8.5t61.5 26.5t47.5 52t18 80v14h-185v107h303v-379h-100l-4 87q-67 -100 -222 -100q-153 0 -241.5 103t-88.5 275q0 170 93.5 271.5t254.5 101.5
zM323 -131v95h101v-102l-44 -89h-60l39 96h-36z" />
    <glyph glyph-name="uni0123" unicode="&#x123;" horiz-adv-x="609" 
d="M333 700v-95h-101v102l44 89h61l-39 -96h35zM424 466v72h119v-484q0 -130 -65 -190q-62 -58 -191 -58q-94 0 -155 40t-75 125h118q8 -38 34.5 -54.5t80.5 -16.5q74 0 107 39q27 31 27 91v63q-51 -84 -160 -84q-99 0 -166.5 74t-67.5 197t67.5 196.5t166.5 73.5
q109 0 160 -84zM429 280q0 86 -39 130.5t-100 44.5t-98.5 -47.5t-37.5 -127.5q0 -83 37.5 -130t98.5 -47t100 45t39 132z" />
    <glyph glyph-name="Hcircumflex" unicode="&#x124;" horiz-adv-x="747" 
d="M546 725h127v-725h-127v320h-346v-320h-127v725h127v-300h346v300zM427 886l135 -113h-122l-67 51l-68 -51h-121l138 113h105z" />
    <glyph glyph-name="hcircumflex" unicode="&#x125;" horiz-adv-x="589" 
d="M186 725v-262q48 87 163 87q183 0 183 -212v-338h-119v309q0 32 -3.5 54t-13 44.5t-31 34t-54.5 11.5q-125 0 -125 -167v-286h-119v725h119zM182 886l135 -113h-122l-67 51l-68 -51h-121l138 113h105z" />
    <glyph glyph-name="Hbar" unicode="&#x126;" horiz-adv-x="747" 
d="M546 725h127v-115h64v-96h-64v-514h-127v320h-346v-320h-127v514h-63v96h63v115h127v-115h346v115zM200 425h346v89h-346v-89z" />
    <glyph glyph-name="hbar" unicode="&#x127;" horiz-adv-x="596" 
d="M193 725v-70h125v-79h-125v-113q48 87 163 87q183 0 183 -212v-338h-119v309q0 32 -3.5 54t-13 44.5t-31 34t-54.5 11.5q-125 0 -125 -167v-286h-119v576h-84v79h84v70h119z" />
    <glyph glyph-name="Itilde" unicode="&#x128;" horiz-adv-x="273" 
d="M200 725v-725h-127v725h127zM197 847q41 0 50 39h83q-18 -113 -128 -113q-33 0 -71.5 19.5t-56.5 19.5q-41 0 -47 -39h-85q19 113 128 113q34 0 71 -19.5t56 -19.5z" />
    <glyph glyph-name="itilde" unicode="&#x129;" horiz-adv-x="253" 
d="M67 538h119v-538h-119v538zM187 691q41 0 50 44h85q-11 -70 -48.5 -98.5t-80.5 -28.5q-35 0 -73.5 22.5t-56.5 22.5q-40 0 -48 -44h-85q11 68 48.5 97.5t80.5 29.5q35 0 71.5 -22.5t56.5 -22.5z" />
    <glyph glyph-name="Imacron" unicode="&#x12a;" horiz-adv-x="273" 
d="M200 725v-725h-127v725h127zM290 786h-308v87h308v-87z" />
    <glyph glyph-name="imacron" unicode="&#x12b;" horiz-adv-x="253" 
d="M67 538h119v-538h-119v538zM280 628h-308v88h308v-88z" />
    <glyph glyph-name="Ibreve" unicode="&#x12c;" horiz-adv-x="273" 
d="M200 725v-725h-127v725h127zM212 886h89q-11 -117 -165 -117q-152 0 -164 117h89q7 -51 76 -51t75 51z" />
    <glyph glyph-name="ibreve" unicode="&#x12d;" horiz-adv-x="253" 
d="M67 538h119v-538h-119v538zM205 725h86q-14 -121 -166 -121q-155 0 -164 121h87q6 -55 78 -55q73 0 79 55z" />
    <glyph glyph-name="Iogonek" unicode="&#x12e;" horiz-adv-x="273" 
d="M74 0h127q-91 -45 -91 -78q0 -35 45 -35q27 0 46 7v-73q-36 -9 -73 -9q-29 0 -55 7t-47 28.5t-21 55.5q0 61 69 97zM200 725v-725h-127v725h127z" />
    <glyph glyph-name="iogonek" unicode="&#x12f;" horiz-adv-x="253" 
d="M66 0h1v538h119v-538q-45 -22 -66.5 -39t-21.5 -38q0 -37 46 -37q8 0 42 9v-73q-33 -10 -64 -10q-56 0 -92.5 22.5t-36.5 69.5q0 59 73 96zM67 725h119v-120h-119v120z" />
    <glyph glyph-name="Idot" unicode="&#x130;" horiz-adv-x="273" 
d="M200 725v-725h-127v725h127zM75 884h123v-108h-123v108z" />
    <glyph glyph-name="dotlessi" unicode="&#x131;" horiz-adv-x="253" 
d="M67 538h119v-538h-119v538z" />
    <glyph glyph-name="Jcircumflex" unicode="&#x134;" horiz-adv-x="581" 
d="M260 -13q-118 0 -183.5 69.5t-65.5 188.5h126q0 -75 31.5 -114.5t91.5 -39.5q58 0 89.5 39.5t31.5 114.5v480h127v-480q0 -119 -65 -188.5t-183 -69.5zM502 886l135 -113h-122l-67 51l-68 -51h-121l138 113h105z" />
    <glyph glyph-name="jcircumflex" unicode="&#x135;" horiz-adv-x="253" 
d="M67 -13v551h119v-546q0 -101 -31.5 -134t-124.5 -33h-40v92h22q36 0 45.5 13t9.5 57zM175 725l140 -116h-110l-79 48l-80 -48h-109l143 116h95z" />
    <glyph glyph-name="uni0136" unicode="&#x136;" horiz-adv-x="675" 
d="M200 725v-345l308 345h151l-269 -295l294 -430h-150l-228 338l-106 -116v-222h-127v725h127zM301 -131v95h101v-102l-44 -89h-60l39 96h-36z" />
    <glyph glyph-name="uni0137" unicode="&#x137;" horiz-adv-x="535" 
d="M67 725h119v-403l199 216h143l-206 -221l229 -317h-139l-169 233l-57 -61v-172h-119v725zM239 -131v95h101v-102l-44 -89h-60l39 96h-36z" />
    <glyph glyph-name="Lacute" unicode="&#x139;" horiz-adv-x="565" 
d="M200 725v-618h365v-107h-492v725h127zM339 886l-155 -113h-104l105 113h154z" />
    <glyph glyph-name="lacute" unicode="&#x13a;" horiz-adv-x="252" 
d="M186 725v-725h-119v725h119zM333 886l-155 -113h-104l105 113h154z" />
    <glyph glyph-name="uni013B" unicode="&#x13b;" horiz-adv-x="565" 
d="M200 725v-618h365v-107h-492v725h127zM270 -131v95h101v-102l-44 -89h-60l39 96h-36z" />
    <glyph glyph-name="uni013C" unicode="&#x13c;" horiz-adv-x="253" 
d="M186 725v-725h-119v725h119zM77 -131v95h101v-102l-44 -89h-60l39 96h-36z" />
    <glyph glyph-name="Lcaron" unicode="&#x13d;" horiz-adv-x="565" 
d="M200 725v-618h365v-107h-492v725h127zM443 725l-70 -170h-77l30 170h117z" />
    <glyph glyph-name="lcaron" unicode="&#x13e;" horiz-adv-x="354" 
d="M374 725l-70 -170h-77l30 170h117zM186 725v-725h-119v725h119z" />
    <glyph glyph-name="Ldot" unicode="&#x13f;" horiz-adv-x="565" 
d="M357 482h123v-108h-123v108zM200 725v-618h365v-107h-492v725h127z" />
    <glyph glyph-name="ldot" unicode="&#x140;" horiz-adv-x="358" 
d="M186 725v-725h-119v725h119zM253 472h105v-111h-105v111z" />
    <glyph glyph-name="Lslash" unicode="&#x141;" horiz-adv-x="587" 
d="M222 725v-276l174 114v-112l-174 -114v-230h365v-107h-492v255l-95 -62v112l95 62v358h127z" />
    <glyph glyph-name="lslash" unicode="&#x142;" horiz-adv-x="305" 
d="M212 725v-255l73 45v-98l-73 -45v-372h-119v300l-73 -44v98l73 44v327h119z" />
    <glyph glyph-name="Nacute" unicode="&#x143;" horiz-adv-x="746" 
d="M673 0h-170l-307 579v-579h-123v725h170l307 -579v579h123v-725zM578 886l-155 -113h-104l105 113h154z" />
    <glyph glyph-name="nacute" unicode="&#x144;" horiz-adv-x="589" 
d="M186 538v-75q48 87 163 87q183 0 183 -212v-338h-119v309q0 32 -3.5 54t-13 44.5t-31 34t-54.5 11.5q-125 0 -125 -167v-286h-119v538h119zM486 725l-142 -116h-91l93 116h140z" />
    <glyph glyph-name="uni0145" unicode="&#x145;" horiz-adv-x="746" 
d="M673 0h-170l-307 579v-579h-123v725h170l307 -579v579h123v-725zM324 -131v95h101v-102l-44 -89h-60l39 96h-36z" />
    <glyph glyph-name="uni0146" unicode="&#x146;" horiz-adv-x="589" 
d="M186 538v-75q48 87 163 87q183 0 183 -212v-338h-119v309q0 32 -3.5 54t-13 44.5t-31 34t-54.5 11.5q-125 0 -125 -167v-286h-119v538h119zM245 -131v95h101v-102l-44 -89h-60l39 96h-36z" />
    <glyph glyph-name="Ncaron" unicode="&#x147;" horiz-adv-x="746" 
d="M673 0h-170l-307 579v-579h-123v725h170l307 -579v579h123v-725zM335 773l-135 113h122l66 -52l69 52h121l-138 -113h-105z" />
    <glyph glyph-name="ncaron" unicode="&#x148;" horiz-adv-x="589" 
d="M186 538v-75q48 87 163 87q183 0 183 -212v-338h-119v309q0 32 -3.5 54t-13 44.5t-31 34t-54.5 11.5q-125 0 -125 -167v-286h-119v538h119zM260 609l-140 116h110l78 -48l81 48h109l-143 -116h-95z" />
    <glyph glyph-name="Eng" unicode="&#x14a;" horiz-adv-x="747" 
d="M546 1l-350 578v-579h-123v725h170l307 -503v503h123v-734q0 -103 -36.5 -135t-139.5 -32h-54v99h26q47 0 62 12.5t15 53.5v12z" />
    <glyph glyph-name="eng" unicode="&#x14b;" horiz-adv-x="589" 
d="M413 -7v316q0 32 -3.5 54t-13 44t-31 33.5t-54.5 11.5q-125 0 -125 -166v-286h-119v538h119v-75q48 87 163 87q183 0 183 -212v-345q0 -99 -36 -133.5t-127 -34.5h-48v98h25q43 0 55 13t12 57z" />
    <glyph glyph-name="Omacron" unicode="&#x14c;" horiz-adv-x="780" 
d="M175 363q0 -128 60.5 -200t154.5 -72t154.5 72t60.5 200t-60.5 199.5t-154.5 71.5t-154.5 -71.5t-60.5 -199.5zM736 363q0 -169 -94 -272.5t-252 -103.5t-252 103.5t-94 272.5t93.5 272t252.5 103t252.5 -103t93.5 -272zM544 786h-308v87h308v-87z" />
    <glyph glyph-name="omacron" unicode="&#x14d;" horiz-adv-x="592" 
d="M154 268q0 -89 40.5 -136.5t101.5 -47.5t101.5 47.5t40.5 136.5t-40.5 137t-101.5 48t-101.5 -48t-40.5 -137zM296 550q108 0 186.5 -73t78.5 -209q0 -137 -78.5 -209t-186.5 -72t-186.5 72t-78.5 209q0 136 78.5 209t186.5 73zM447 628h-308v88h308v-88z" />
    <glyph glyph-name="Obreve" unicode="&#x14e;" horiz-adv-x="780" 
d="M175 363q0 -128 60.5 -200t154.5 -72t154.5 72t60.5 200t-60.5 199.5t-154.5 71.5t-154.5 -71.5t-60.5 -199.5zM736 363q0 -169 -94 -272.5t-252 -103.5t-252 103.5t-94 272.5t93.5 272t252.5 103t252.5 -103t93.5 -272zM466 886h89q-11 -117 -165 -117q-152 0 -164 117
h89q7 -51 76 -51t75 51z" />
    <glyph glyph-name="obreve" unicode="&#x14f;" horiz-adv-x="592" 
d="M154 268q0 -89 40.5 -136.5t101.5 -47.5t101.5 47.5t40.5 136.5t-40.5 137t-101.5 48t-101.5 -48t-40.5 -137zM296 550q108 0 186.5 -73t78.5 -209q0 -137 -78.5 -209t-186.5 -72t-186.5 72t-78.5 209q0 136 78.5 209t186.5 73zM372 725h86q-14 -121 -166 -121
q-155 0 -164 121h87q6 -55 78 -55q73 0 79 55z" />
    <glyph glyph-name="Ohungarumlaut" unicode="&#x150;" horiz-adv-x="780" 
d="M175 363q0 -128 60.5 -200t154.5 -72t154.5 72t60.5 200t-60.5 199.5t-154.5 71.5t-154.5 -71.5t-60.5 -199.5zM736 363q0 -169 -94 -272.5t-252 -103.5t-252 103.5t-94 272.5t93.5 272t252.5 103t252.5 -103t93.5 -272zM506 886l-155 -113h-104l105 113h154zM686 886
l-155 -113h-103l105 113h153z" />
    <glyph glyph-name="ohungarumlaut" unicode="&#x151;" horiz-adv-x="592" 
d="M154 268q0 -89 40.5 -136.5t101.5 -47.5t101.5 47.5t40.5 136.5t-40.5 137t-101.5 48t-101.5 -48t-40.5 -137zM296 550q108 0 186.5 -73t78.5 -209q0 -137 -78.5 -209t-186.5 -72t-186.5 72t-78.5 209q0 136 78.5 209t186.5 73zM390 725l-140 -116h-93l93 116h140z
M570 725l-142 -116h-91l92 116h141z" />
    <glyph glyph-name="OE" unicode="&#x152;" horiz-adv-x="1134" 
d="M606 365q0 129 -60 199t-156 70q-94 0 -154.5 -70.5t-60.5 -198.5q0 -129 60.5 -201.5t154.5 -72.5q95 0 155.5 72t60.5 202zM613 0v75q-79 -88 -223 -88q-158 0 -252 104t-94 274q0 168 94.5 270.5t251.5 102.5q144 0 223 -85v72h492v-106h-386v-194h364v-105h-364v-213
h386v-107h-492z" />
    <glyph glyph-name="oe" unicode="&#x153;" horiz-adv-x="987" 
d="M698 457q-51 0 -93.5 -32.5t-49.5 -102.5h280q-2 61 -42 98t-95 37zM296 453q-61 0 -101.5 -48t-40.5 -137t40.5 -136.5t101.5 -47.5t101.5 47.5t40.5 136.5t-40.5 137t-101.5 48zM833 161h117q-20 -72 -83.5 -123t-160.5 -51q-134 0 -207 99q-70 -99 -203 -99
q-108 0 -186.5 72t-78.5 209q0 136 78.5 209t186.5 73q131 0 202 -97q70 97 200 97q123 0 194.5 -89.5t63.5 -225.5h-401q6 -70 49 -109.5t97 -39.5q101 0 132 75z" />
    <glyph glyph-name="Racute" unicode="&#x154;" horiz-adv-x="679" 
d="M514 0l-153 306q-12 -1 -38 -1h-123v-305h-127v725h231q167 0 245 -46.5t78 -162.5q0 -141 -136 -187l166 -329h-143zM322 623h-122v-217h126q87 0 129 23.5t42 85.5q0 65 -44 86.5t-131 21.5zM516 886l-155 -113h-104l105 113h154z" />
    <glyph glyph-name="racute" unicode="&#x155;" horiz-adv-x="369" 
d="M361 537v-120q-30 3 -57 3q-60 0 -89 -30.5t-29 -107.5v-282h-119v538h117v-96q46 95 146 97q13 0 31 -2zM401 725l-142 -116h-91l93 116h140z" />
    <glyph glyph-name="uni0156" unicode="&#x156;" horiz-adv-x="679" 
d="M514 0l-153 306q-12 -1 -38 -1h-123v-305h-127v725h231q167 0 245 -46.5t78 -162.5q0 -141 -136 -187l166 -329h-143zM322 623h-122v-217h126q87 0 129 23.5t42 85.5q0 65 -44 86.5t-131 21.5zM290 -131v95h101v-102l-44 -89h-60l39 96h-36z" />
    <glyph glyph-name="uni0157" unicode="&#x157;" horiz-adv-x="369" 
d="M74 -131v95h101v-102l-44 -89h-60l39 96h-36zM361 537v-120q-30 3 -57 3q-60 0 -89 -30.5t-29 -107.5v-282h-119v538h117v-96q46 95 146 97q13 0 31 -2z" />
    <glyph glyph-name="Rcaron" unicode="&#x158;" horiz-adv-x="679" 
d="M514 0l-153 306q-12 -1 -38 -1h-123v-305h-127v725h231q167 0 245 -46.5t78 -162.5q0 -141 -136 -187l166 -329h-143zM322 623h-122v-217h126q87 0 129 23.5t42 85.5q0 65 -44 86.5t-131 21.5zM285 773l-135 113h122l66 -52l69 52h121l-138 -113h-105z" />
    <glyph glyph-name="rcaron" unicode="&#x159;" horiz-adv-x="369" 
d="M361 537v-120q-30 3 -57 3q-60 0 -89 -30.5t-29 -107.5v-282h-119v538h117v-96q46 95 146 97q13 0 31 -2zM165 609l-140 116h110l78 -48l81 48h109l-143 -116h-95z" />
    <glyph glyph-name="Sacute" unicode="&#x15a;" horiz-adv-x="648" 
d="M343 312l-88 17q-209 44 -209 205q0 95 82.5 149.5t191.5 54.5q113 0 188 -53.5t96 -162.5h-123q-27 112 -168 112q-51 0 -95 -24t-44 -72q0 -75 108 -96l89 -17q53 -10 93 -24t77.5 -38.5t57.5 -63.5t20 -91q0 -104 -86 -162.5t-202 -58.5q-130 0 -211.5 67t-93.5 186
h125q35 -149 186 -149q67 0 111 29t44 80q0 50 -41.5 75t-107.5 37zM529 886l-155 -113h-104l105 113h154z" />
    <glyph glyph-name="sacute" unicode="&#x15b;" horiz-adv-x="526" 
d="M486 391h-112q-18 68 -118 68q-41 0 -70.5 -16.5t-29.5 -42.5q0 -50 72 -64l76 -15q45 -9 76.5 -19.5t59.5 -28.5t42 -46t14 -66q0 -81 -66 -127.5t-162 -46.5q-97 0 -160 49.5t-73 127.5h116q17 -87 121 -87q48 0 78 19t30 51q0 55 -93 74l-81 16q-76 16 -119 52
t-43 105t64.5 112.5t154.5 43.5q83 0 145 -41t78 -118zM450 725l-142 -116h-91l93 116h140z" />
    <glyph glyph-name="Scircumflex" unicode="&#x15c;" horiz-adv-x="648" 
d="M343 312l-88 17q-209 44 -209 205q0 95 82.5 149.5t191.5 54.5q113 0 188 -53.5t96 -162.5h-123q-27 112 -168 112q-51 0 -95 -24t-44 -72q0 -75 108 -96l89 -17q53 -10 93 -24t77.5 -38.5t57.5 -63.5t20 -91q0 -104 -86 -162.5t-202 -58.5q-130 0 -211.5 67t-93.5 186
h125q35 -149 186 -149q67 0 111 29t44 80q0 50 -41.5 75t-107.5 37zM386 886l135 -113h-122l-67 51l-68 -51h-121l138 113h105z" />
    <glyph glyph-name="scircumflex" unicode="&#x15d;" horiz-adv-x="526" 
d="M486 391h-112q-18 68 -118 68q-41 0 -70.5 -16.5t-29.5 -42.5q0 -50 72 -64l76 -15q45 -9 76.5 -19.5t59.5 -28.5t42 -46t14 -66q0 -81 -66 -127.5t-162 -46.5q-97 0 -160 49.5t-73 127.5h116q17 -87 121 -87q48 0 78 19t30 51q0 55 -93 74l-81 16q-76 16 -119 52
t-43 105t64.5 112.5t154.5 43.5q83 0 145 -41t78 -118zM319 725l140 -116h-110l-79 48l-80 -48h-109l143 116h95z" />
    <glyph glyph-name="Scedilla" unicode="&#x15e;" horiz-adv-x="648" 
d="M343 312l-88 17q-209 44 -209 205q0 95 82.5 149.5t191.5 54.5q113 0 188 -53.5t96 -162.5h-123q-27 112 -168 112q-51 0 -95 -24t-44 -72q0 -75 108 -96l89 -17q53 -10 93 -24t77.5 -38.5t57.5 -63.5t20 -91q0 -104 -86 -162.5t-202 -58.5q-130 0 -211.5 67t-93.5 186
h125q35 -149 186 -149q67 0 111 29t44 80q0 50 -41.5 75t-107.5 37zM218 -176l17 43q26 -14 58 -14q57 0 57 30q0 29 -41 29q-24 0 -38 -9l-30 17l51 83h53l-32 -51q18 3 35 3q34 -1 56 -19.5t22 -48.5q0 -37 -34 -59.5t-79 -22.5q-56 0 -95 19z" />
    <glyph glyph-name="scedilla" unicode="&#x15f;" horiz-adv-x="526" 
d="M486 391h-112q-18 68 -118 68q-41 0 -70.5 -16.5t-29.5 -42.5q0 -50 72 -64l76 -15q45 -9 76.5 -19.5t59.5 -28.5t42 -46t14 -66q0 -81 -66 -127.5t-162 -46.5q-97 0 -160 49.5t-73 127.5h116q17 -87 121 -87q48 0 78 19t30 51q0 55 -93 74l-81 16q-76 16 -119 52
t-43 105t64.5 112.5t154.5 43.5q83 0 145 -41t78 -118zM162 -176l17 43q26 -14 58 -14q57 0 57 30q0 29 -41 29q-24 0 -38 -9l-30 17l51 83h53l-32 -51q18 3 35 3q34 -1 56 -19.5t22 -48.5q0 -37 -34 -59.5t-79 -22.5q-56 0 -95 19z" />
    <glyph glyph-name="Scaron" unicode="&#x160;" horiz-adv-x="648" 
d="M343 312l-88 17q-209 44 -209 205q0 95 82.5 149.5t191.5 54.5q113 0 188 -53.5t96 -162.5h-123q-27 112 -168 112q-51 0 -95 -24t-44 -72q0 -75 108 -96l89 -17q53 -10 93 -24t77.5 -38.5t57.5 -63.5t20 -91q0 -104 -86 -162.5t-202 -58.5q-130 0 -211.5 67t-93.5 186
h125q35 -149 186 -149q67 0 111 29t44 80q0 50 -41.5 75t-107.5 37zM278 773l-135 113h122l66 -52l69 52h121l-138 -113h-105z" />
    <glyph glyph-name="scaron" unicode="&#x161;" horiz-adv-x="526" 
d="M486 391h-112q-18 68 -118 68q-41 0 -70.5 -16.5t-29.5 -42.5q0 -50 72 -64l76 -15q45 -9 76.5 -19.5t59.5 -28.5t42 -46t14 -66q0 -81 -66 -127.5t-162 -46.5q-97 0 -160 49.5t-73 127.5h116q17 -87 121 -87q48 0 78 19t30 51q0 55 -93 74l-81 16q-76 16 -119 52
t-43 105t64.5 112.5t154.5 43.5q83 0 145 -41t78 -118zM216 609l-140 116h110l78 -48l81 48h109l-143 -116h-95z" />
    <glyph glyph-name="uni0162" unicode="&#x162;" horiz-adv-x="593" 
d="M245 -131v95h101v-102l-44 -89h-60l39 96h-36zM233 0v619h-228v106h583v-106h-228v-619h-127z" />
    <glyph glyph-name="uni0163" unicode="&#x163;" horiz-adv-x="340" 
d="M84 538v142h119v-142h108v-86h-108v-293q0 -41 13 -54.5t51 -13.5h43v-91h-88q-85 0 -111.5 28.5t-26.5 112.5v311h-80v86h80zM111 -131v95h101v-102l-44 -89h-60l39 96h-36z" />
    <glyph glyph-name="Tcaron" unicode="&#x164;" horiz-adv-x="593" 
d="M233 0v619h-228v106h583v-106h-228v-619h-127zM240 773l-135 113h122l66 -52l69 52h121l-138 -113h-105z" />
    <glyph glyph-name="tcaron" unicode="&#x165;" horiz-adv-x="400" 
d="M420 724l-70 -150h-77l30 150h117zM84 538v142h119v-142h108v-86h-108v-293q0 -41 13 -54.5t51 -13.5h43v-91h-88q-85 0 -111.5 28.5t-26.5 112.5v311h-80v86h80z" />
    <glyph glyph-name="Tbar" unicode="&#x166;" horiz-adv-x="590" 
d="M233 0v314h-165v106h165v199h-228v106h583v-106h-228v-199h161v-106h-161v-314h-127z" />
    <glyph glyph-name="tbar" unicode="&#x167;" horiz-adv-x="340" 
d="M90 538v142h119v-142h108v-86h-108v-80h108v-91h-108v-122q0 -41 13 -54.5t51 -13.5h43v-91h-88q-85 0 -111.5 28.5t-26.5 112.5v140h-80v91h80v80h-80v86h80z" />
    <glyph glyph-name="Utilde" unicode="&#x168;" horiz-adv-x="717" 
d="M62 725h127v-428q0 -106 36.5 -156t133.5 -50q95 0 132 52t37 158v424h127v-419q0 -171 -68.5 -245t-227.5 -74t-228 71t-69 244v423zM429 847q41 0 50 39h83q-18 -113 -128 -113q-33 0 -71.5 19.5t-56.5 19.5q-41 0 -47 -39h-85q19 113 128 113q34 0 71 -19.5t56 -19.5z
" />
    <glyph glyph-name="utilde" unicode="&#x169;" horiz-adv-x="585" 
d="M399 0v74q-48 -87 -159 -87q-180 0 -180 212v339h119v-310q0 -25 1.5 -43t7.5 -38.5t16.5 -33t29 -21t44.5 -8.5q121 0 121 167v287h119v-538h-119zM360 691q41 0 50 44h85q-11 -70 -48.5 -98.5t-80.5 -28.5q-35 0 -73.5 22.5t-56.5 22.5q-40 0 -48 -44h-85
q11 68 48.5 97.5t80.5 29.5q35 0 71.5 -22.5t56.5 -22.5z" />
    <glyph glyph-name="Umacron" unicode="&#x16a;" horiz-adv-x="717" 
d="M62 725h127v-428q0 -106 36.5 -156t133.5 -50q95 0 132 52t37 158v424h127v-419q0 -171 -68.5 -245t-227.5 -74t-228 71t-69 244v423zM512 786h-308v87h308v-87z" />
    <glyph glyph-name="umacron" unicode="&#x16b;" horiz-adv-x="585" 
d="M399 0v74q-48 -87 -159 -87q-180 0 -180 212v339h119v-310q0 -25 1.5 -43t7.5 -38.5t16.5 -33t29 -21t44.5 -8.5q121 0 121 167v287h119v-538h-119zM443 628h-308v88h308v-88z" />
    <glyph glyph-name="Ubreve" unicode="&#x16c;" horiz-adv-x="717" 
d="M62 725h127v-428q0 -106 36.5 -156t133.5 -50q95 0 132 52t37 158v424h127v-419q0 -171 -68.5 -245t-227.5 -74t-228 71t-69 244v423zM434 886h89q-11 -117 -165 -117q-152 0 -164 117h89q7 -51 76 -51t75 51z" />
    <glyph glyph-name="ubreve" unicode="&#x16d;" horiz-adv-x="585" 
d="M399 0v74q-48 -87 -159 -87q-180 0 -180 212v339h119v-310q0 -25 1.5 -43t7.5 -38.5t16.5 -33t29 -21t44.5 -8.5q121 0 121 167v287h119v-538h-119zM368 725h86q-14 -121 -166 -121q-155 0 -164 121h87q6 -55 78 -55q73 0 79 55z" />
    <glyph glyph-name="Uring" unicode="&#x16e;" horiz-adv-x="717" 
d="M62 725h127v-428q0 -106 36.5 -156t133.5 -50q95 0 132 52t37 158v424h127v-419q0 -171 -68.5 -245t-227.5 -74t-228 71t-69 244v423zM358 935q39 0 65 -23.5t26 -61.5q0 -37 -26 -61t-65 -24q-38 0 -64 24t-26 61t26 61t64 24zM358 893q-18 0 -30.5 -12.5t-12.5 -30.5
t12.5 -30t30.5 -12t30.5 12t12.5 30t-12.5 30.5t-30.5 12.5z" />
    <glyph glyph-name="uring" unicode="&#x16f;" horiz-adv-x="585" 
d="M399 0v74q-48 -87 -159 -87q-180 0 -180 212v339h119v-310q0 -25 1.5 -43t7.5 -38.5t16.5 -33t29 -21t44.5 -8.5q121 0 121 167v287h119v-538h-119zM291 779q39 0 66 -24.5t27 -62.5t-27 -62.5t-66 -24.5t-66 24.5t-27 62.5t27 62.5t66 24.5zM291 734q-17 0 -29 -12
t-12 -30t12 -29.5t29 -11.5q18 0 30 11.5t12 29.5t-12.5 30t-29.5 12z" />
    <glyph glyph-name="Uhungarumlaut" unicode="&#x170;" horiz-adv-x="717" 
d="M62 725h127v-428q0 -106 36.5 -156t133.5 -50q95 0 132 52t37 158v424h127v-419q0 -171 -68.5 -245t-227.5 -74t-228 71t-69 244v423zM464 886l-155 -113h-104l105 113h154zM644 886l-155 -113h-103l105 113h153z" />
    <glyph glyph-name="uhungarumlaut" unicode="&#x171;" horiz-adv-x="585" 
d="M386 725l-140 -116h-93l93 116h140zM566 725l-142 -116h-91l92 116h141zM399 0v74q-48 -87 -159 -87q-180 0 -180 212v339h119v-310q0 -25 1.5 -43t7.5 -38.5t16.5 -33t29 -21t44.5 -8.5q121 0 121 167v287h119v-538h-119z" />
    <glyph glyph-name="Uogonek" unicode="&#x172;" horiz-adv-x="717" 
d="M376 -188q-29 0 -55 7t-47 28.5t-21 55.5q0 51 51 86q-128 10 -185 83t-57 230v423h127v-428q0 -106 36.5 -156t133.5 -50q95 0 132 52t37 158v424h127v-419q0 -149 -49 -220.5t-166 -97.5q-33 -8 -57.5 -27.5t-24.5 -38.5q0 -35 45 -35q27 0 46 7v-73q-36 -9 -73 -9z
" />
    <glyph glyph-name="uogonek" unicode="&#x173;" horiz-adv-x="585" 
d="M399 0v74q-48 -87 -159 -87q-180 0 -180 212v339h119v-310q0 -25 1.5 -43t7.5 -38.5t16.5 -33t29 -21t44.5 -8.5q121 0 121 167v287h119v-538h-119zM398 0h120q-45 -22 -66.5 -39t-21.5 -38q0 -37 46 -37q8 0 42 9v-73q-33 -10 -64 -10q-56 0 -92.5 22.5t-36.5 69.5
q0 59 73 96z" />
    <glyph glyph-name="Wcircumflex" unicode="&#x174;" horiz-adv-x="896" 
d="M522 725l124 -561l110 561h133l-169 -725h-150l-122 556l-120 -556h-152l-170 725h138l116 -560l115 560h147zM501 886l135 -113h-122l-67 51l-68 -51h-121l138 113h105z" />
    <glyph glyph-name="wcircumflex" unicode="&#x175;" horiz-adv-x="734" 
d="M213 156l92 382h123l93 -382l79 382h129l-143 -538h-113l-106 398l-106 -398h-113l-143 538h129zM411 725l140 -116h-110l-79 48l-80 -48h-109l143 116h95z" />
    <glyph glyph-name="Ycircumflex" unicode="&#x176;" horiz-adv-x="643" 
d="M-5 725h145l180 -324l185 324h143l-267 -445v-280h-127v282zM374 886l135 -113h-122l-67 51l-68 -51h-121l138 113h105z" />
    <glyph glyph-name="ycircumflex" unicode="&#x177;" horiz-adv-x="496" 
d="M100 -175h-54v91h45q43 0 62 12.5t36 61.5l6 13l-195 535h130l122 -386l122 386h122l-189 -537q-39 -107 -78.5 -141.5t-128.5 -34.5zM297 725l140 -116h-110l-79 48l-80 -48h-109l143 116h95z" />
    <glyph glyph-name="Ydieresis" unicode="&#x178;" horiz-adv-x="643" 
d="M-5 725h145l180 -324l185 324h143l-267 -445v-280h-127v282zM150 884h105v-108h-105v108zM386 884h105v-108h-105v108z" />
    <glyph glyph-name="Zacute" unicode="&#x179;" horiz-adv-x="626" 
d="M588 725v-103l-405 -512h417v-110h-572v103l406 512h-374v110h528zM521 886l-155 -113h-104l105 113h154z" />
    <glyph glyph-name="zacute" unicode="&#x17a;" horiz-adv-x="494" 
d="M26 0v91l288 356h-268v91h416v-91l-289 -356h296v-91h-443zM434 725l-142 -116h-91l93 116h140z" />
    <glyph glyph-name="Zdotaccent" unicode="&#x17b;" horiz-adv-x="626" 
d="M588 725v-103l-405 -512h417v-110h-572v103l406 512h-374v110h528zM253 884h123v-108h-123v108z" />
    <glyph glyph-name="zdotaccent" unicode="&#x17c;" horiz-adv-x="494" 
d="M26 0v91l288 356h-268v91h416v-91l-289 -356h296v-91h-443zM205 725h105v-111h-105v111z" />
    <glyph glyph-name="Zcaron" unicode="&#x17d;" horiz-adv-x="626" 
d="M588 725v-103l-405 -512h417v-110h-572v103l406 512h-374v110h528zM280 773l-135 113h122l66 -52l69 52h121l-138 -113h-105z" />
    <glyph glyph-name="zcaron" unicode="&#x17e;" horiz-adv-x="494" 
d="M26 0v91l288 356h-268v91h416v-91l-289 -356h296v-91h-443zM208 609l-140 116h110l78 -48l81 48h109l-143 -116h-95z" />
    <glyph glyph-name="uni018F" unicode="&#x18f;" horiz-adv-x="775" 
d="M47 423h550q-6 100 -65.5 155.5t-143.5 55.5q-70 0 -121.5 -31.5t-72.5 -87.5h-129q30 112 116.5 167.5t204.5 55.5q159 0 251.5 -100t92.5 -273t-93.5 -275.5t-250.5 -102.5q-177 0 -266 124.5t-73 311.5zM386 91q89 0 146.5 58t65.5 167h-420q2 -107 61 -166t147 -59z
" />
    <glyph glyph-name="uni0218" unicode="&#x218;" horiz-adv-x="648" 
d="M343 312l-88 17q-209 44 -209 205q0 95 82.5 149.5t191.5 54.5q113 0 188 -53.5t96 -162.5h-123q-27 112 -168 112q-51 0 -95 -24t-44 -72q0 -75 108 -96l89 -17q53 -10 93 -24t77.5 -38.5t57.5 -63.5t20 -91q0 -104 -86 -162.5t-202 -58.5q-130 0 -211.5 67t-93.5 186
h125q35 -149 186 -149q67 0 111 29t44 80q0 50 -41.5 75t-107.5 37zM273 -131v95h101v-102l-44 -89h-60l39 96h-36z" />
    <glyph glyph-name="uni0219" unicode="&#x219;" horiz-adv-x="526" 
d="M486 391h-112q-18 68 -118 68q-41 0 -70.5 -16.5t-29.5 -42.5q0 -50 72 -64l76 -15q45 -9 76.5 -19.5t59.5 -28.5t42 -46t14 -66q0 -81 -66 -127.5t-162 -46.5q-97 0 -160 49.5t-73 127.5h116q17 -87 121 -87q48 0 78 19t30 51q0 55 -93 74l-81 16q-76 16 -119 52
t-43 105t64.5 112.5t154.5 43.5q83 0 145 -41t78 -118zM214 -131v95h101v-102l-44 -89h-60l39 96h-36z" />
    <glyph glyph-name="uni021A" unicode="&#x21a;" horiz-adv-x="593" 
d="M245 -131v95h101v-102l-44 -89h-60l39 96h-36zM233 0v619h-228v106h583v-106h-228v-619h-127z" />
    <glyph glyph-name="uni021B" unicode="&#x21b;" horiz-adv-x="340" 
d="M84 538v142h119v-142h108v-86h-108v-293q0 -41 13 -54.5t51 -13.5h43v-91h-88q-85 0 -111.5 28.5t-26.5 112.5v311h-80v86h80zM111 -131v95h101v-102l-44 -89h-60l39 96h-36z" />
    <glyph glyph-name="uni0232" unicode="&#x232;" horiz-adv-x="643" 
d="M-5 725h145l180 -324l185 324h143l-267 -445v-280h-127v282zM474 786h-308v87h308v-87z" />
    <glyph glyph-name="uni0233" unicode="&#x233;" horiz-adv-x="496" 
d="M100 -175h-54v91h45q43 0 62 12.5t36 61.5l6 13l-195 535h130l122 -386l122 386h122l-189 -537q-39 -107 -78.5 -141.5t-128.5 -34.5zM402 628h-308v88h308v-88z" />
    <glyph glyph-name="uni0237" unicode="&#x237;" horiz-adv-x="253" 
d="M67 -13v551h119v-546q0 -101 -31.5 -134t-124.5 -33h-40v92h22q36 0 45.5 13t9.5 57z" />
    <glyph glyph-name="uni0259" unicode="&#x259;" horiz-adv-x="584" 
d="M32 302h401q-6 71 -48.5 110t-97.5 39q-101 0 -132 -75h-117q20 72 83.5 123t160.5 51q125 0 198.5 -82.5t73.5 -203.5t-75 -199t-189 -78q-123 0 -194.5 89.5t-63.5 225.5zM290 80q50 0 92.5 33t50.5 102h-280q2 -61 42 -98t95 -37z" />
    <glyph glyph-name="circumflex" unicode="&#x2c6;" horiz-adv-x="422" 
d="M260 725l140 -116h-110l-79 48l-80 -48h-109l143 116h95z" />
    <glyph glyph-name="caron" unicode="&#x2c7;" horiz-adv-x="422" 
d="M162 609l-140 116h110l78 -48l81 48h109l-143 -116h-95z" />
    <glyph glyph-name="breve" unicode="&#x2d8;" horiz-adv-x="374" 
d="M266 725h86q-14 -121 -166 -121q-155 0 -164 121h87q6 -55 78 -55q73 0 79 55z" />
    <glyph glyph-name="dotaccent" unicode="&#x2d9;" horiz-adv-x="149" 
d="M22 725h105v-111h-105v111z" />
    <glyph glyph-name="ring" unicode="&#x2da;" horiz-adv-x="230" 
d="M115 779q39 0 66 -24.5t27 -62.5t-27 -62.5t-66 -24.5t-66 24.5t-27 62.5t27 62.5t66 24.5zM115 734q-17 0 -29 -12t-12 -30t12 -29.5t29 -11.5q18 0 30 11.5t12 29.5t-12.5 30t-29.5 12z" />
    <glyph glyph-name="ogonek" unicode="&#x2db;" horiz-adv-x="237" 
d="M95 0h120q-45 -22 -66.5 -39t-21.5 -38q0 -37 46 -37q8 0 42 9v-73q-33 -10 -64 -10q-56 0 -92.5 22.5t-36.5 69.5q0 59 73 96z" />
    <glyph glyph-name="tilde" unicode="&#x2dc;" horiz-adv-x="436" 
d="M279 691q41 0 50 44h85q-11 -70 -48.5 -98.5t-80.5 -28.5q-35 0 -73.5 22.5t-56.5 22.5q-40 0 -48 -44h-85q11 68 48.5 97.5t80.5 29.5q35 0 71.5 -22.5t56.5 -22.5z" />
    <glyph glyph-name="hungarumlaut" unicode="&#x2dd;" horiz-adv-x="457" 
d="M255 725l-140 -116h-93l93 116h140zM435 725l-142 -116h-91l92 116h141z" />
    <glyph glyph-name="uni032C" unicode="&#x32c;" horiz-adv-x="422" 
d="M173 -138l-151 138h113l75 -59l78 59h112l-154 -138h-73z" />
    <glyph glyph-name="uni0394" unicode="&#x394;" horiz-adv-x="695" 
d="M-2 0l350 734l349 -734h-699zM535 103l-187 392l-188 -392h375z" />
    <glyph glyph-name="uni0394" unicode="&#x2206;" horiz-adv-x="695" 
d="M-2 0l350 734l349 -734h-699zM535 103l-187 392l-188 -392h375z" />
    <glyph glyph-name="uni03A9" unicode="&#x3a9;" horiz-adv-x="795" 
d="M398 738q145 0 249.5 -84.5t104.5 -229.5q0 -93 -54 -168t-141 -105v-44h194v-107h-306v216q84 12 136.5 72.5t52.5 138.5q0 94 -65.5 154.5t-170.5 60.5q-106 0 -171.5 -60.5t-65.5 -154.5q0 -78 52.5 -138.5t136.5 -72.5v-216h-306v107h194v44q-87 30 -141 105t-54 168
q0 145 104.5 229.5t250.5 84.5z" />
    <glyph glyph-name="uni03A9" unicode="&#x2126;" horiz-adv-x="795" 
d="M398 738q145 0 249.5 -84.5t104.5 -229.5q0 -93 -54 -168t-141 -105v-44h194v-107h-306v216q84 12 136.5 72.5t52.5 138.5q0 94 -65.5 154.5t-170.5 60.5q-106 0 -171.5 -60.5t-65.5 -154.5q0 -78 52.5 -138.5t136.5 -72.5v-216h-306v107h194v44q-87 30 -141 105t-54 168
q0 145 104.5 229.5t250.5 84.5z" />
    <glyph glyph-name="pi" unicode="&#x3c0;" horiz-adv-x="664" 
d="M225 0h-112v431h-81v107h596v-107h-81v-269q0 -41 8.5 -53t43.5 -12h32v-97h-49q-87 0 -116.5 29.5t-29.5 121.5v280h-211v-431z" />
    <glyph glyph-name="Wgrave" unicode="&#x1e80;" horiz-adv-x="896" 
d="M522 725l124 -561l110 561h133l-169 -725h-150l-122 556l-120 -556h-152l-170 725h138l116 -560l115 560h147zM405 773l-165 113h153l106 -113h-94z" />
    <glyph glyph-name="wgrave" unicode="&#x1e81;" horiz-adv-x="734" 
d="M213 156l92 382h123l93 -382l79 382h129l-143 -538h-113l-106 398l-106 -398h-113l-143 538h129zM316 609l-142 116h141l94 -116h-93z" />
    <glyph glyph-name="Wacute" unicode="&#x1e82;" horiz-adv-x="896" 
d="M522 725l124 -561l110 561h133l-169 -725h-150l-122 556l-120 -556h-152l-170 725h138l116 -560l115 560h147zM654 886l-155 -113h-104l105 113h154z" />
    <glyph glyph-name="wacute" unicode="&#x1e83;" horiz-adv-x="734" 
d="M213 156l92 382h123l93 -382l79 382h129l-143 -538h-113l-106 398l-106 -398h-113l-143 538h129zM549 725l-142 -116h-91l93 116h140z" />
    <glyph glyph-name="Wdieresis" unicode="&#x1e84;" horiz-adv-x="896" 
d="M522 725l124 -561l110 561h133l-169 -725h-150l-122 556l-120 -556h-152l-170 725h138l116 -560l115 560h147zM277 884h105v-108h-105v108zM513 884h105v-108h-105v108z" />
    <glyph glyph-name="wdieresis" unicode="&#x1e85;" horiz-adv-x="734" 
d="M213 156l92 382h123l93 -382l79 382h129l-143 -538h-113l-106 398l-106 -398h-113l-143 538h129zM192 614v111h105v-111h-105zM428 725h105v-111h-105v111z" />
    <glyph glyph-name="uni1ECA" unicode="&#x1eca;" horiz-adv-x="273" 
d="M200 725v-725h-127v725h127zM84 -66h105v-109h-105v109z" />
    <glyph glyph-name="uni1ECB" unicode="&#x1ecb;" horiz-adv-x="253" 
d="M67 725h119v-120h-119v120zM67 538h119v-538h-119v538zM74 -66h105v-109h-105v109z" />
    <glyph glyph-name="uni1ECC" unicode="&#x1ecc;" horiz-adv-x="780" 
d="M175 363q0 -128 60.5 -200t154.5 -72t154.5 72t60.5 200t-60.5 199.5t-154.5 71.5t-154.5 -71.5t-60.5 -199.5zM736 363q0 -169 -94 -272.5t-252 -103.5t-252 103.5t-94 272.5t93.5 272t252.5 103t252.5 -103t93.5 -272zM338 -66h105v-109h-105v109z" />
    <glyph glyph-name="uni1ECD" unicode="&#x1ecd;" horiz-adv-x="592" 
d="M154 268q0 -89 40.5 -136.5t101.5 -47.5t101.5 47.5t40.5 136.5t-40.5 137t-101.5 48t-101.5 -48t-40.5 -137zM296 550q108 0 186.5 -73t78.5 -209q0 -137 -78.5 -209t-186.5 -72t-186.5 72t-78.5 209q0 136 78.5 209t186.5 73zM241 -66h105v-109h-105v109z" />
    <glyph glyph-name="uni1EE4" unicode="&#x1ee4;" horiz-adv-x="717" 
d="M62 725h127v-428q0 -106 36.5 -156t133.5 -50q95 0 132 52t37 158v424h127v-419q0 -171 -68.5 -245t-227.5 -74t-228 71t-69 244v423zM306 -66h105v-109h-105v109z" />
    <glyph glyph-name="uni1EE5" unicode="&#x1ee5;" horiz-adv-x="585" 
d="M399 0v74q-48 -87 -159 -87q-180 0 -180 212v339h119v-310q0 -25 1.5 -43t7.5 -38.5t16.5 -33t29 -21t44.5 -8.5q121 0 121 167v287h119v-538h-119zM237 -66h105v-109h-105v109z" />
    <glyph glyph-name="Ygrave" unicode="&#x1ef2;" horiz-adv-x="643" 
d="M-5 725h145l180 -324l185 324h143l-267 -445v-280h-127v282zM298 773l-165 113h153l106 -113h-94z" />
    <glyph glyph-name="ygrave" unicode="&#x1ef3;" horiz-adv-x="496" 
d="M100 -175h-54v91h45q43 0 62 12.5t36 61.5l6 13l-195 535h130l122 -386l122 386h122l-189 -537q-39 -107 -78.5 -141.5t-128.5 -34.5zM212 609l-142 116h141l94 -116h-93z" />
    <glyph glyph-name="endash" unicode="&#x2013;" horiz-adv-x="508" 
d="M475 216h-443v107h443v-107z" />
    <glyph glyph-name="emdash" unicode="&#x2014;" horiz-adv-x="726" 
d="M694 216h-662v107h662v-107z" />
    <glyph glyph-name="quoteleft" unicode="&#x2018;" horiz-adv-x="240" 
d="M188 567v-136h-136v146l70 148h71l-66 -158h61z" />
    <glyph glyph-name="quoteright" unicode="&#x2019;" horiz-adv-x="240" 
d="M52 589v136h136v-146l-70 -148h-71l66 158h-61z" />
    <glyph glyph-name="quotesinglbase" unicode="&#x201a;" horiz-adv-x="240" 
d="M52 0v136h136v-146l-70 -148h-71l66 158h-61z" />
    <glyph glyph-name="quotedblleft" unicode="&#x201c;" horiz-adv-x="426" 
d="M374 567v-136h-136v146l70 148h71l-66 -158h61zM188 567v-136h-136v146l70 148h71l-66 -158h61z" />
    <glyph glyph-name="quotedblright" unicode="&#x201d;" horiz-adv-x="426" 
d="M238 589v136h136v-146l-70 -148h-71l66 158h-61zM52 589v136h136v-146l-70 -148h-71l66 158h-61z" />
    <glyph glyph-name="quotedblbase" unicode="&#x201e;" horiz-adv-x="426" 
d="M238 0v136h136v-146l-70 -148h-71l66 158h-61zM52 0v136h136v-146l-70 -148h-71l66 158h-61z" />
    <glyph glyph-name="dagger" unicode="&#x2020;" horiz-adv-x="585" 
d="M349 0h-111v412h-212v108h212v205h111v-205h211v-108h-211v-412z" />
    <glyph glyph-name="daggerdbl" unicode="&#x2021;" horiz-adv-x="585" 
d="M349 293h211v-107h-211v-186h-111v186h-212v107h212v141h-212v107h212v184h111v-184h211v-107h-211v-141z" />
    <glyph glyph-name="bullet" unicode="&#x2022;" horiz-adv-x="447" 
d="M43 279q0 73 52 125t124 52q78 0 131 -51.5t53 -125.5q0 -78 -52.5 -130.5t-131.5 -52.5q-73 0 -124.5 53t-51.5 130z" />
    <glyph glyph-name="ellipsis" unicode="&#x2026;" horiz-adv-x="720" 
d="M668 0h-136v136h136v-136zM428 0h-136v136h136v-136zM188 0h-136v136h136v-136z" />
    <glyph glyph-name="perthousand" unicode="&#x2030;" horiz-adv-x="1439" 
d="M1237 -7q-83 0 -127 57t-44 155q0 100 43 155t128 55q83 0 126.5 -55.5t43.5 -154.5q0 -98 -44 -155t-126 -57zM1237 57q81 0 81 148q0 145 -81 145q-82 0 -82 -145q0 -148 82 -148zM203 310q-83 0 -127 57t-44 155q0 100 43 155t128 55q83 0 126.5 -55.5t43.5 -154.5
q0 -98 -44 -155t-126 -57zM203 374q81 0 81 148q0 145 -81 145q-82 0 -82 -145q0 -148 82 -148zM330 0h-126l500 725h126zM833 -7q-83 0 -127 57t-44 155q0 100 43 155t128 55q83 0 126.5 -55.5t43.5 -154.5q0 -98 -44 -155t-126 -57zM833 57q81 0 81 148q0 145 -81 145
q-82 0 -82 -145q0 -148 82 -148z" />
    <glyph glyph-name="guilsinglleft" unicode="&#x2039;" horiz-adv-x="321" 
d="M175 43l-159 230l159 229h114l-134 -229l134 -230h-114z" />
    <glyph glyph-name="guilsinglright" unicode="&#x203a;" horiz-adv-x="321" 
d="M305 273l-159 -230h-114l135 230l-135 229h114z" />
    <glyph glyph-name="fraction" unicode="&#x2044;" horiz-adv-x="226" 
d="M-74 0h-126l500 725h126z" />
    <glyph glyph-name="uni2070" unicode="&#x2070;" horiz-adv-x="404" 
d="M203 431q-83 0 -127 57t-44 155q0 100 43 155t128 55q83 0 126.5 -55.5t43.5 -154.5q0 -98 -44 -155t-126 -57zM203 495q81 0 81 148q0 145 -81 145q-82 0 -82 -145q0 -148 82 -148z" />
    <glyph glyph-name="uni2074" unicode="&#x2074;" horiz-adv-x="381" 
d="M216 734l-104 -130h104v130zM365 604v-75h-62v-91h-87v91h-199v68l204 249h82v-242h62z" />
    <glyph glyph-name="uni2075" unicode="&#x2075;" horiz-adv-x="377" 
d="M187 495q33 0 53 20.5t20 56.5q0 37 -21.5 57.5t-51.5 20.5q-50 0 -70 -39l-79 6l28 229h265v-71h-193l-10 -81q32 22 81 22q57 0 98.5 -38t41.5 -105t-46.5 -104.5t-115.5 -37.5q-66 0 -109 36.5t-50 97.5h83q10 -70 76 -70z" />
    <glyph glyph-name="uni2076" unicode="&#x2076;" horiz-adv-x="372" 
d="M120 571q0 -35 19 -55.5t51 -20.5q31 0 49.5 20.5t18.5 55.5q0 34 -18.5 55t-49.5 21t-50.5 -20.5t-19.5 -55.5zM194 789q-36 0 -56.5 -28.5t-19.5 -81.5q33 33 89 33q58 0 99 -39.5t41 -101.5q0 -63 -43.5 -101.5t-113.5 -38.5q-82 0 -122 55.5t-40 145.5q0 97 42 159
t130 62q65 0 101 -33.5t40 -82.5h-86q-6 52 -61 52z" />
    <glyph glyph-name="uni2077" unicode="&#x2077;" horiz-adv-x="317" 
d="M12 775v71h304v-71q-87 -79 -125 -152.5t-42 -184.5h-94q4 198 171 337h-214z" />
    <glyph glyph-name="uni2078" unicode="&#x2078;" horiz-adv-x="383" 
d="M192 853q68 0 109 -30t41 -78q0 -58 -46 -88q58 -36 58 -100q0 -58 -46 -92t-116 -34q-71 0 -116.5 33.5t-45.5 92.5q0 64 58 100q-46 28 -46 88q0 48 41 78t109 30zM192 624q-34 0 -53.5 -17.5t-19.5 -45.5q0 -29 19.5 -47.5t53.5 -18.5t53.5 18.5t19.5 47.5
q0 28 -19.5 45.5t-53.5 17.5zM256 736q0 24 -17 38t-47 14t-47.5 -14t-17.5 -38t17.5 -38.5t47.5 -14.5t47 14.5t17 38.5z" />
    <glyph glyph-name="uni2079" unicode="&#x2079;" horiz-adv-x="369" 
d="M251 713q0 34 -19 54.5t-51 20.5q-30 0 -49 -20t-19 -55q0 -34 19 -55t49 -21q31 0 50.5 20.5t19.5 55.5zM176 495q36 0 57 28.5t21 81.5q-33 -33 -91 -33t-98 39.5t-40 101.5q0 63 43.5 101.5t112.5 38.5q82 0 122 -55.5t40 -146.5q0 -96 -42 -158t-129 -62
q-66 0 -102.5 33t-38.5 82h85q6 -51 60 -51z" />
    <glyph glyph-name="uni207A" unicode="&#x207a;" horiz-adv-x="379" 
d="M229 438h-80v113h-120v74h120v112h80v-112h120v-74h-120v-113z" />
    <glyph glyph-name="uni207B" unicode="&#x207b;" horiz-adv-x="373" 
d="M29 625h316v-74h-316v74z" />
    <glyph glyph-name="uni207C" unicode="&#x207c;" horiz-adv-x="367" 
d="M330 608h-292v74h292v-74zM330 494h-292v74h292v-74z" />
    <glyph glyph-name="uni207D" unicode="&#x207d;" horiz-adv-x="188" 
d="M24 593q0 75 24 142.5t55 110.5h82q-73 -117 -73 -253q0 -137 73 -254h-82q-79 116 -79 254z" />
    <glyph glyph-name="uni207E" unicode="&#x207e;" horiz-adv-x="189" 
d="M164 593q0 -138 -79 -254h-82q72 115 72 254q0 138 -72 253h82q31 -43 55 -110.5t24 -142.5z" />
    <glyph glyph-name="uni207F" unicode="&#x207f;" horiz-adv-x="366" 
d="M132 741v-40q26 47 91 47q55 0 79 -31.5t24 -93.5v-185h-86v165q0 37 -9.5 56.5t-39.5 19.5q-59 0 -59 -85v-156h-87v303h87z" />
    <glyph glyph-name="uni2080" unicode="&#x2080;" horiz-adv-x="404" 
d="M203 -135q-83 0 -127 57t-44 155q0 100 43 155t128 55q83 0 126.5 -55.5t43.5 -154.5q0 -98 -44 -155t-126 -57zM203 -71q81 0 81 148q0 145 -81 145q-82 0 -82 -145q0 -148 82 -148z" />
    <glyph glyph-name="uni2081" unicode="&#x2081;" horiz-adv-x="241" 
d="M188 -128h-86v286h-91v62q49 2 73 15t38 45h66v-408z" />
    <glyph glyph-name="uni2082" unicode="&#x2082;" horiz-adv-x="355" 
d="M181 287q64 0 103.5 -30t39.5 -83q0 -60 -49.5 -115t-147.5 -115h201v-72h-308v71q10 8 30 23q50 39 74.5 58.5t55.5 48.5t43.5 51.5t12.5 44.5q0 26 -16 40t-42 14q-67 0 -67 -84h-85q-2 68 41 108t114 40z" />
    <glyph glyph-name="uni2083" unicode="&#x2083;" horiz-adv-x="372" 
d="M186 -71q32 0 51 15.5t19 44.5q0 58 -94 58h-23v70h20q89 0 89 56q0 23 -18 36t-44 13q-65 0 -75 -62h-84q6 62 51 94.5t113 32.5q59 0 102 -27.5t43 -80.5q0 -29 -16.5 -53.5t-39.5 -37.5q30 -12 47 -40t17 -58q0 -60 -46 -92.5t-114 -32.5q-67 0 -111 35.5t-51 99.5h85
q5 -34 26 -52.5t53 -18.5z" />
    <glyph glyph-name="uni2084" unicode="&#x2084;" horiz-adv-x="381" 
d="M216 168l-104 -130h104v130zM365 38v-75h-62v-91h-87v91h-199v68l204 249h82v-242h62z" />
    <glyph glyph-name="uni2085" unicode="&#x2085;" horiz-adv-x="377" 
d="M187 -71q33 0 53 20.5t20 56.5q0 37 -21.5 57.5t-51.5 20.5q-50 0 -70 -39l-79 6l28 229h265v-71h-193l-10 -81q32 22 81 22q57 0 98.5 -38t41.5 -105t-46.5 -104.5t-115.5 -37.5q-66 0 -109 36.5t-50 97.5h83q10 -70 76 -70z" />
    <glyph glyph-name="uni2086" unicode="&#x2086;" horiz-adv-x="372" 
d="M120 5q0 -35 19 -55.5t51 -20.5q31 0 49.5 20.5t18.5 55.5q0 34 -18.5 55t-49.5 21t-50.5 -20.5t-19.5 -55.5zM194 223q-36 0 -56.5 -28.5t-19.5 -81.5q33 33 89 33q58 0 99 -39.5t41 -101.5q0 -63 -43.5 -101.5t-113.5 -38.5q-82 0 -122 55.5t-40 145.5q0 97 42 159
t130 62q65 0 101 -33.5t40 -82.5h-86q-6 52 -61 52z" />
    <glyph glyph-name="uni2087" unicode="&#x2087;" horiz-adv-x="317" 
d="M12 209v71h304v-71q-87 -79 -125 -152.5t-42 -184.5h-94q4 198 171 337h-214z" />
    <glyph glyph-name="uni2088" unicode="&#x2088;" horiz-adv-x="383" 
d="M192 287q68 0 109 -30t41 -78q0 -58 -46 -88q58 -36 58 -100q0 -58 -46 -92t-116 -34q-71 0 -116.5 33.5t-45.5 92.5q0 64 58 100q-46 28 -46 88q0 48 41 78t109 30zM192 58q-34 0 -53.5 -17.5t-19.5 -45.5q0 -29 19.5 -47.5t53.5 -18.5t53.5 18.5t19.5 47.5
q0 28 -19.5 45.5t-53.5 17.5zM256 170q0 24 -17 38t-47 14t-47.5 -14t-17.5 -38t17.5 -38.5t47.5 -14.5t47 14.5t17 38.5z" />
    <glyph glyph-name="uni2089" unicode="&#x2089;" horiz-adv-x="369" 
d="M251 147q0 34 -19 54.5t-51 20.5q-30 0 -49 -20t-19 -55q0 -34 19 -55t49 -21q31 0 50.5 20.5t19.5 55.5zM176 -71q36 0 57 28.5t21 81.5q-33 -33 -91 -33t-98 39.5t-40 101.5q0 63 43.5 101.5t112.5 38.5q82 0 122 -55.5t40 -146.5q0 -96 -42 -158t-129 -62
q-66 0 -102.5 33t-38.5 82h85q6 -51 60 -51z" />
    <glyph glyph-name="uni208D" unicode="&#x208d;" horiz-adv-x="188" 
d="M24 27q0 75 24 142.5t55 110.5h82q-73 -117 -73 -253q0 -137 73 -254h-82q-79 116 -79 254z" />
    <glyph glyph-name="uni208E" unicode="&#x208e;" horiz-adv-x="189" 
d="M164 27q0 -138 -79 -254h-82q72 115 72 254q0 138 -72 253h82q31 -43 55 -110.5t24 -142.5z" />
    <glyph glyph-name="Euro" unicode="&#x20ac;" horiz-adv-x="732" 
d="M367 250h-142q38 -171 187 -171q156 0 180 154h112q-15 -115 -95 -180.5t-196 -65.5q-121 0 -199 68t-104 195h-123l49 74h65q-1 13 -1 41q0 21 1 32h-114l49 74h73q25 127 105.5 197t202.5 70q114 0 191.5 -66.5t91.5 -179.5h-112q-21 155 -176 155q-153 0 -189 -176
h277l-49 -74h-236q-1 -11 -1 -32q0 -28 1 -41h201z" />
    <glyph glyph-name="uni2113" unicode="&#x2113;" horiz-adv-x="483" 
d="M115 173v18l-73 -55l-48 73l121 92v236q0 201 175 201q72 0 113 -41.5t41 -116.5q0 -45 -13 -83.5t-41.5 -74t-60.5 -64.5t-82 -67l-13 -10v-108q0 -49 17.5 -69.5t52.5 -20.5q49 0 94 38l46 -74q-68 -60 -161 -60q-88 0 -128 43t-40 143zM234 557v-165l6 5q95 71 95 182
q0 71 -49 71q-29 0 -40.5 -21t-11.5 -72z" />
    <glyph glyph-name="uni2116" unicode="&#x2116;" horiz-adv-x="1089" 
d="M1054 556q0 -88 -45 -136.5t-124 -48.5t-124 48.5t-45 136.5q0 87 47.5 134.5t121.5 47.5q76 0 122.5 -46.5t46.5 -135.5zM950 556q0 47 -16.5 73.5t-48.5 26.5q-65 0 -65 -100q0 -102 65 -102q32 0 48.5 27.5t16.5 74.5zM1049 227h-326v107h326v-107zM673 0h-170
l-307 579v-579h-123v725h170l307 -579v579h123v-725z" />
    <glyph glyph-name="uni2117" unicode="&#x2117;" horiz-adv-x="825" 
d="M38 361q0 165 108.5 271t266.5 106t266 -106t108 -271q0 -164 -108 -269t-266 -105q-159 0 -267 105t-108 269zM118 361q0 -133 84.5 -217.5t210.5 -84.5q127 0 211 84.5t84 217.5q0 134 -84 219t-211 85q-126 0 -210.5 -85t-84.5 -219zM423 322h-54v-147h-97v400h145
q90 0 137.5 -28t47.5 -100q0 -125 -179 -125zM505 446q0 24 -17 38t-49 14h-70v-101h71q65 0 65 49z" />
    <glyph glyph-name="trademark" unicode="&#x2122;" horiz-adv-x="922" 
d="M138 326v313h-129v86h360v-86h-129v-313h-102zM691 326h-93l-98 284v-284h-103v399h163l86 -273l89 273h155v-399h-102v285z" />
    <glyph glyph-name="estimated" unicode="&#x212e;" horiz-adv-x="580" 
d="M498 151h40q-26 -74 -87 -119t-154 -45q-128 0 -199 79.5t-71 202.5q0 125 73 203t192 78q121 0 189.5 -80t70.5 -200h-410v-193q23 -25 67.5 -40t95.5 -15q142 0 193 129zM142 463v-160h294v159q-50 53 -145 53q-101 0 -149 -52z" />
    <glyph glyph-name="onethird" unicode="&#x2153;" horiz-adv-x="839" 
d="M188 317h-86v286h-91v62q49 2 73 15t38 45h66v-408zM166 0h-126l500 725h126zM652 57q32 0 51 15.5t19 44.5q0 58 -94 58h-23v70h20q89 0 89 56q0 23 -18 36t-44 13q-65 0 -75 -62h-84q6 62 51 94.5t113 32.5q59 0 102 -27.5t43 -80.5q0 -29 -16.5 -53.5t-39.5 -37.5
q30 -12 47 -40t17 -58q0 -60 -46 -92.5t-114 -32.5q-67 0 -111 35.5t-51 99.5h85q5 -34 26 -52.5t53 -18.5z" />
    <glyph glyph-name="twothirds" unicode="&#x2154;" horiz-adv-x="953" 
d="M181 732q64 0 103.5 -30t39.5 -83q0 -60 -49.5 -115t-147.5 -115h201v-72h-308v71q10 8 30 23q50 39 74.5 58.5t55.5 48.5t43.5 51.5t12.5 44.5q0 26 -16 40t-42 14q-67 0 -67 -84h-85q-2 68 41 108t114 40zM281 0h-126l500 725h126zM767 57q32 0 51 15.5t19 44.5
q0 58 -94 58h-23v70h20q89 0 89 56q0 23 -18 36t-44 13q-65 0 -75 -62h-84q6 62 51 94.5t113 32.5q59 0 102 -27.5t43 -80.5q0 -29 -16.5 -53.5t-39.5 -37.5q30 -12 47 -40t17 -58q0 -60 -46 -92.5t-114 -32.5q-67 0 -111 35.5t-51 99.5h85q5 -34 26 -52.5t53 -18.5z" />
    <glyph glyph-name="uni2155" unicode="&#x2155;" horiz-adv-x="844" 
d="M188 317h-86v286h-91v62q49 2 73 15t38 45h66v-408zM166 0h-126l500 725h126zM653 57q33 0 53 20.5t20 56.5q0 37 -21.5 57.5t-51.5 20.5q-50 0 -70 -39l-79 6l28 229h265v-71h-193l-10 -81q32 22 81 22q57 0 98.5 -38t41.5 -105t-46.5 -104.5t-115.5 -37.5
q-66 0 -109 36.5t-50 97.5h83q10 -70 76 -70z" />
    <glyph glyph-name="uni2156" unicode="&#x2156;" horiz-adv-x="958" 
d="M181 732q64 0 103.5 -30t39.5 -83q0 -60 -49.5 -115t-147.5 -115h201v-72h-308v71q10 8 30 23q50 39 74.5 58.5t55.5 48.5t43.5 51.5t12.5 44.5q0 26 -16 40t-42 14q-67 0 -67 -84h-85q-2 68 41 108t114 40zM281 0h-126l500 725h126zM768 57q33 0 53 20.5t20 56.5
q0 37 -21.5 57.5t-51.5 20.5q-50 0 -70 -39l-79 6l28 229h265v-71h-193l-10 -81q32 22 81 22q57 0 98.5 -38t41.5 -105t-46.5 -104.5t-115.5 -37.5q-66 0 -109 36.5t-50 97.5h83q10 -70 76 -70z" />
    <glyph glyph-name="uni2157" unicode="&#x2157;" horiz-adv-x="975" 
d="M186 374q32 0 51 15.5t19 44.5q0 58 -94 58h-23v70h20q89 0 89 56q0 23 -18 36t-44 13q-65 0 -75 -62h-84q6 62 51 94.5t113 32.5q59 0 102 -27.5t43 -80.5q0 -29 -16.5 -53.5t-39.5 -37.5q30 -12 47 -40t17 -58q0 -60 -46 -92.5t-114 -32.5q-67 0 -111 35.5t-51 99.5h85
q5 -34 26 -52.5t53 -18.5zM298 0h-126l500 725h126zM785 57q33 0 53 20.5t20 56.5q0 37 -21.5 57.5t-51.5 20.5q-50 0 -70 -39l-79 6l28 229h265v-71h-193l-10 -81q32 22 81 22q57 0 98.5 -38t41.5 -105t-46.5 -104.5t-115.5 -37.5q-66 0 -109 36.5t-50 97.5h83
q10 -70 76 -70z" />
    <glyph glyph-name="uni2158" unicode="&#x2158;" horiz-adv-x="984" 
d="M216 613l-104 -130h104v130zM365 483v-75h-62v-91h-87v91h-199v68l204 249h82v-242h62zM307 0h-126l500 725h126zM794 57q33 0 53 20.5t20 56.5q0 37 -21.5 57.5t-51.5 20.5q-50 0 -70 -39l-79 6l28 229h265v-71h-193l-10 -81q32 22 81 22q57 0 98.5 -38t41.5 -105
t-46.5 -104.5t-115.5 -37.5q-66 0 -109 36.5t-50 97.5h83q10 -70 76 -70z" />
    <glyph glyph-name="uni2159" unicode="&#x2159;" horiz-adv-x="839" 
d="M188 317h-86v286h-91v62q49 2 73 15t38 45h66v-408zM166 0h-126l500 725h126zM586 133q0 -35 19 -55.5t51 -20.5q31 0 49.5 20.5t18.5 55.5q0 34 -18.5 55t-49.5 21t-50.5 -20.5t-19.5 -55.5zM660 351q-36 0 -56.5 -28.5t-19.5 -81.5q33 33 89 33q58 0 99 -39.5
t41 -101.5q0 -63 -43.5 -101.5t-113.5 -38.5q-82 0 -122 55.5t-40 145.5q0 97 42 159t130 62q65 0 101 -33.5t40 -82.5h-86q-6 52 -61 52z" />
    <glyph glyph-name="uni215A" unicode="&#x215a;" horiz-adv-x="975" 
d="M187 374q33 0 53 20.5t20 56.5q0 37 -21.5 57.5t-51.5 20.5q-50 0 -70 -39l-79 6l28 229h265v-71h-193l-10 -81q32 22 81 22q57 0 98.5 -38t41.5 -105t-46.5 -104.5t-115.5 -37.5q-66 0 -109 36.5t-50 97.5h83q10 -70 76 -70zM303 0h-126l500 725h126zM723 133
q0 -35 19 -55.5t51 -20.5q31 0 49.5 20.5t18.5 55.5q0 34 -18.5 55t-49.5 21t-50.5 -20.5t-19.5 -55.5zM797 351q-36 0 -56.5 -28.5t-19.5 -81.5q33 33 89 33q58 0 99 -39.5t41 -101.5q0 -63 -43.5 -101.5t-113.5 -38.5q-82 0 -122 55.5t-40 145.5q0 97 42 159t130 62
q65 0 101 -33.5t40 -82.5h-86q-6 52 -61 52z" />
    <glyph glyph-name="oneeighth" unicode="&#x215b;" horiz-adv-x="849" 
d="M188 317h-86v286h-91v62q49 2 73 15t38 45h66v-408zM166 0h-126l500 725h126zM658 415q68 0 109 -30t41 -78q0 -58 -46 -88q58 -36 58 -100q0 -58 -46 -92t-116 -34q-71 0 -116.5 33.5t-45.5 92.5q0 64 58 100q-46 28 -46 88q0 48 41 78t109 30zM658 186
q-34 0 -53.5 -17.5t-19.5 -45.5q0 -29 19.5 -47.5t53.5 -18.5t53.5 18.5t19.5 47.5q0 28 -19.5 45.5t-53.5 17.5zM722 298q0 24 -17 38t-47 14t-47.5 -14t-17.5 -38t17.5 -38.5t47.5 -14.5t47 14.5t17 38.5z" />
    <glyph glyph-name="threeeighths" unicode="&#x215c;" horiz-adv-x="981" 
d="M186 374q32 0 51 15.5t19 44.5q0 58 -94 58h-23v70h20q89 0 89 56q0 23 -18 36t-44 13q-65 0 -75 -62h-84q6 62 51 94.5t113 32.5q59 0 102 -27.5t43 -80.5q0 -29 -16.5 -53.5t-39.5 -37.5q30 -12 47 -40t17 -58q0 -60 -46 -92.5t-114 -32.5q-67 0 -111 35.5t-51 99.5h85
q5 -34 26 -52.5t53 -18.5zM298 0h-126l500 725h126zM790 415q68 0 109 -30t41 -78q0 -58 -46 -88q58 -36 58 -100q0 -58 -46 -92t-116 -34q-71 0 -116.5 33.5t-45.5 92.5q0 64 58 100q-46 28 -46 88q0 48 41 78t109 30zM790 186q-34 0 -53.5 -17.5t-19.5 -45.5
q0 -29 19.5 -47.5t53.5 -18.5t53.5 18.5t19.5 47.5q0 28 -19.5 45.5t-53.5 17.5zM854 298q0 24 -17 38t-47 14t-47.5 -14t-17.5 -38t17.5 -38.5t47.5 -14.5t47 14.5t17 38.5z" />
    <glyph glyph-name="fiveeighths" unicode="&#x215d;" horiz-adv-x="986" 
d="M187 374q33 0 53 20.5t20 56.5q0 37 -21.5 57.5t-51.5 20.5q-50 0 -70 -39l-79 6l28 229h265v-71h-193l-10 -81q32 22 81 22q57 0 98.5 -38t41.5 -105t-46.5 -104.5t-115.5 -37.5q-66 0 -109 36.5t-50 97.5h83q10 -70 76 -70zM303 0h-126l500 725h126zM795 415
q68 0 109 -30t41 -78q0 -58 -46 -88q58 -36 58 -100q0 -58 -46 -92t-116 -34q-71 0 -116.5 33.5t-45.5 92.5q0 64 58 100q-46 28 -46 88q0 48 41 78t109 30zM795 186q-34 0 -53.5 -17.5t-19.5 -45.5q0 -29 19.5 -47.5t53.5 -18.5t53.5 18.5t19.5 47.5q0 28 -19.5 45.5
t-53.5 17.5zM859 298q0 24 -17 38t-47 14t-47.5 -14t-17.5 -38t17.5 -38.5t47.5 -14.5t47 14.5t17 38.5z" />
    <glyph glyph-name="seveneighths" unicode="&#x215e;" horiz-adv-x="925" 
d="M12 654v71h304v-71q-87 -79 -125 -152.5t-42 -184.5h-94q4 198 171 337h-214zM242 0h-126l500 725h126zM734 415q68 0 109 -30t41 -78q0 -58 -46 -88q58 -36 58 -100q0 -58 -46 -92t-116 -34q-71 0 -116.5 33.5t-45.5 92.5q0 64 58 100q-46 28 -46 88q0 48 41 78t109 30z
M734 186q-34 0 -53.5 -17.5t-19.5 -45.5q0 -29 19.5 -47.5t53.5 -18.5t53.5 18.5t19.5 47.5q0 28 -19.5 45.5t-53.5 17.5zM798 298q0 24 -17 38t-47 14t-47.5 -14t-17.5 -38t17.5 -38.5t47.5 -14.5t47 14.5t17 38.5z" />
    <glyph glyph-name="uni215F" unicode="&#x215f;" horiz-adv-x="467" 
d="M188 317h-86v286h-91v62q49 2 73 15t38 45h66v-408zM166 0h-126l500 725h126z" />
    <glyph glyph-name="arrowleft" unicode="&#x2190;" horiz-adv-x="800" 
d="M7 269l309 310l72 -77l-185 -181h560v-107h-558l183 -180l-72 -75z" />
    <glyph glyph-name="arrowup" unicode="&#x2191;" horiz-adv-x="800" 
d="M400 746l310 -310l-73 -72l-184 185v-549h-107v548l-183 -184l-73 72z" />
    <glyph glyph-name="arrowright" unicode="&#x2192;" horiz-adv-x="800" 
d="M483 579l308 -310l-308 -310l-72 75l181 180h-557v107h560l-184 181z" />
    <glyph glyph-name="arrowdown" unicode="&#x2193;" horiz-adv-x="800" 
d="M710 288l-310 -310l-310 310l73 72l183 -183v548h107v-549l184 184z" />
    <glyph glyph-name="uni2196" unicode="&#x2196;" horiz-adv-x="800" 
d="M114 538h438v-103h-258l392 -396l-73 -73l-396 392v-258h-103v438z" />
    <glyph glyph-name="uni2197" unicode="&#x2197;" horiz-adv-x="800" 
d="M249 538h437v-438h-102v259l-396 -393l-74 73l393 396h-258v103z" />
    <glyph glyph-name="uni2198" unicode="&#x2198;" horiz-adv-x="800" 
d="M676 438v-438h-437v102h259l-394 396l74 74l396 -393v259h102z" />
    <glyph glyph-name="uni2199" unicode="&#x2199;" horiz-adv-x="800" 
d="M124 0v438h103v-258l396 392l73 -74l-393 -396h259v-102h-438z" />
    <glyph glyph-name="uni219E" unicode="&#x219e;" horiz-adv-x="800" 
d="M22 269l309 310l72 -77l-185 -181h117l258 258l71 -77l-184 -181h298v-107h-296l183 -180l-72 -75l-255 255h-118l183 -180l-72 -75z" />
    <glyph glyph-name="uni219F" unicode="&#x219f;" horiz-adv-x="800" 
d="M400 746l310 -310l-73 -72l-184 185v-114l257 -257l-73 -72l-184 185v-291h-107v290l-183 -184l-73 72l256 256v114l-183 -184l-73 72z" />
    <glyph glyph-name="uni21A0" unicode="&#x21a0;" horiz-adv-x="800" 
d="M470 579l308 -310l-308 -310l-72 75l181 180h-117l-255 -255l-72 75l182 180h-295v107h298l-185 181l72 77l258 -258h117l-184 181z" />
    <glyph glyph-name="uni21A1" unicode="&#x21a1;" horiz-adv-x="800" 
d="M710 288l-310 -310l-310 310l73 72l183 -183v113l-256 256l73 72l183 -184v291h107v-292l184 185l73 -72l-257 -257v-113l184 184z" />
    <glyph glyph-name="uni21A2" unicode="&#x21a2;" horiz-adv-x="800" 
d="M0 269l310 310l72 -77l-184 -180h264l257 257l71 -77l-235 -233l235 -235l-71 -75l-256 256h-265l184 -181l-72 -75z" />
    <glyph glyph-name="uni21A3" unicode="&#x21a3;" horiz-adv-x="800" 
d="M490 579l310 -310l-310 -310l-72 75l182 180h-264l-255 -255l-71 75l235 235l-235 233l71 77l258 -258h264l-185 181z" />
    <glyph glyph-name="uni21A4" unicode="&#x21a4;" horiz-adv-x="800" 
d="M756 538v-538h-111v215h-448l184 -181l-72 -75l-309 310l309 310l72 -77l-184 -180h448v216h111z" />
    <glyph glyph-name="uni21A5" unicode="&#x21a5;" horiz-adv-x="800" 
d="M400 746l310 -310l-77 -72l-180 184v-439h215v-109h-537v109h215v438l-180 -183l-76 72z" />
    <glyph glyph-name="uni21A6" unicode="&#x21a6;" horiz-adv-x="800" 
d="M44 0v527h112v-206h448l-184 181l72 77l308 -310l-308 -310l-72 75l181 180h-445v-214h-112z" />
    <glyph glyph-name="uni21A7" unicode="&#x21a7;" horiz-adv-x="800" 
d="M710 288l-310 -310l-310 310l76 72l180 -183v440h-215v108h537v-108h-215v-440l180 183z" />
    <glyph glyph-name="uni21B0" unicode="&#x21b0;" horiz-adv-x="800" 
d="M2 269l309 310l72 -77l-185 -181h560v-496h-107v389h-451l183 -180l-72 -75z" />
    <glyph glyph-name="uni21B1" unicode="&#x21b1;" horiz-adv-x="800" 
d="M489 579l309 -310l-309 -310l-72 75l182 180h-450v-389h-107v496h560l-185 181z" />
    <glyph glyph-name="uni21B2" unicode="&#x21b2;" horiz-adv-x="800" 
d="M2 269l308 310l72 -77l-184 -181h455v404h105v-511h-558l182 -180l-72 -75z" />
    <glyph glyph-name="uni21B3" unicode="&#x21b3;" horiz-adv-x="800" 
d="M490 579l308 -310l-308 -310l-72 75l181 180h-557v511h105v-404h455l-184 181z" />
    <glyph glyph-name="partialdiff" unicode="&#x2202;" horiz-adv-x="593" 
d="M429 243q0 76 -39 117.5t-101 41.5q-63 0 -99.5 -42.5t-36.5 -116.5q0 -75 36.5 -117.5t99.5 -42.5q62 0 101 42t39 118zM289 -13q-116 0 -187.5 71t-71.5 187q0 117 68.5 185t173.5 68q104 0 158 -72l1 1q-16 90 -90.5 146.5t-186.5 60.5v97q185 -4 293.5 -118
t108.5 -285q0 -160 -68.5 -250.5t-198.5 -90.5z" />
    <glyph glyph-name="product" unicode="&#x220f;" horiz-adv-x="689" 
d="M178 -175h-111v900h555v-900h-112v794h-332v-794z" />
    <glyph glyph-name="summation" unicode="&#x2211;" horiz-adv-x="596" 
d="M26 -77l272 351l-270 354v97h542v-106h-398l266 -345l-269 -343h401v-106h-544v98z" />
    <glyph glyph-name="minus" unicode="&#x2212;" 
d="M70 321h538v-107h-538v107z" />
    <glyph glyph-name="radical" unicode="&#x221a;" horiz-adv-x="547" 
d="M0 172l166 82l123 -266l140 737h118l-180 -900h-112l-141 286l-69 -35z" />
    <glyph glyph-name="infinity" unicode="&#x221e;" horiz-adv-x="779" 
d="M564 426q80 0 131 -47t51 -121q0 -75 -49.5 -122.5t-130.5 -47.5q-90 0 -176 93q-87 -92 -177 -92q-81 0 -131 47t-50 122q0 74 51.5 121t132.5 47q92 0 174 -87q79 87 174 87zM215 192q31 0 55.5 16.5t54.5 50.5q-58 65 -108 65q-33 0 -54.5 -18t-21.5 -48
q0 -27 21 -46.5t53 -19.5zM561 324q-50 0 -105 -65q56 -67 109 -67q32 0 52.5 19t20.5 47t-21 47t-56 19z" />
    <glyph glyph-name="integral" unicode="&#x222b;" horiz-adv-x="342" 
d="M111 190v251q0 295 167 295q41 0 69 -20.5t28 -58.5q0 -25 -15 -41.5t-41 -16.5q-22 0 -37.5 15t-15.5 41q0 15 3 25q-26 -3 -35.5 -33.5t-9.5 -88.5q0 -19 3.5 -83.5t3.5 -136.5v-230q0 -160 -43.5 -224.5t-119.5 -64.5q-41 0 -70.5 20t-29.5 58q0 25 15.5 41.5
t40.5 16.5q22 0 37.5 -14.5t15.5 -40.5q0 -15 -4 -26q26 3 34.5 33t8.5 89q0 16 -2.5 81.5t-2.5 112.5z" />
    <glyph glyph-name="approxequal" unicode="&#x2248;" 
d="M444 395q61 0 65 69h98q-4 -81 -43.5 -126.5t-115.5 -45.5q-42 0 -112 34t-102 34q-60 0 -64 -68h-98q3 80 43.5 126t115.5 46q40 0 80 -17t74 -34.5t59 -17.5zM444 197q61 0 65 69h98q-4 -81 -43.5 -126.5t-115.5 -45.5q-42 0 -112 34t-102 34q-60 0 -64 -68h-98
q3 81 43 126.5t116 45.5q40 0 80 -17t74 -34.5t59 -17.5z" />
    <glyph glyph-name="notequal" unicode="&#x2260;" 
d="M196 111h-110v107h166l52 100h-218v108h275l71 136l91 -47l-47 -89h116v-108h-173l-52 -100h225v-107h-282l-79 -151l-90 45z" />
    <glyph glyph-name="lessequal" unicode="&#x2264;" 
d="M227 332l375 -95v-113l-526 159v99l526 161v-114zM75 0v107h529v-107h-529z" />
    <glyph glyph-name="greaterequal" unicode="&#x2265;" 
d="M453 332l-376 97v114l526 -161v-99l-526 -159v113zM604 0h-529v107h529v-107z" />
    <glyph glyph-name="filledbox" unicode="&#x25a0;" horiz-adv-x="624" 
d="M43 0v538h538v-538h-538z" />
    <glyph glyph-name="H22073" unicode="&#x25a1;" horiz-adv-x="624" 
d="M43 0v538h538v-538h-538zM150 431v-324h324v324h-324z" />
    <glyph glyph-name="lozenge" unicode="&#x25ca;" horiz-adv-x="549" 
d="M278 575l-146 -237l146 -237l146 237zM5 338l272 431l266 -431l-266 -432z" />
    <glyph glyph-name="circle" unicode="&#x25cb;" horiz-adv-x="602" 
d="M301 445q-76 0 -125.5 -51.5t-49.5 -125.5q0 -73 49.5 -124.5t125.5 -51.5q75 0 125 51.5t50 124.5q0 74 -50 125.5t-125 51.5zM301 550q121 0 202 -82t81 -200q0 -117 -81 -199t-202 -82t-202 82t-81 199q0 118 81 200t202 82z" />
    <glyph glyph-name="H18533" unicode="&#x25cf;" horiz-adv-x="602" 
d="M301 -13q-121 0 -202 82t-81 199q0 118 81 200t202 82t202 -82t81 -200q0 -117 -81 -199t-202 -82z" />
    <glyph glyph-name="fi" unicode="&#xfb01;" horiz-adv-x="575" 
d="M390 538h119v-538h-119v538zM83 538v33q0 91 38.5 122.5t139.5 31.5h47v-91h-34q-45 0 -58.5 -12.5t-13.5 -54.5v-29h106v-86h-106v-452h-119v452h-75v86h75zM390 725h119v-120h-119v120z" />
    <glyph glyph-name="fl" unicode="&#xfb02;" horiz-adv-x="575" 
d="M83 538v33q0 91 38.5 122.5t139.5 31.5h47v-91h-34q-45 0 -58.5 -12.5t-13.5 -54.5v-29h106v-86h-106v-452h-119v452h-75v86h75zM509 725v-725h-119v725h119z" />
    <glyph glyph-name="_001" horiz-adv-x="0" 
 />
    <glyph glyph-name="_002" horiz-adv-x="230" 
 />
    <glyph glyph-name="bullet.001" horiz-adv-x="447" 
d="M43 279q0 73 52 125t124 52q78 0 131 -51.5t53 -125.5q0 -78 -52.5 -130.5t-131.5 -52.5q-73 0 -124.5 53t-51.5 130z" />
    <glyph glyph-name="_383" horiz-adv-x="253" 
d="M67 725h119v-120h-119v120z" />
    <glyph glyph-name="_384" horiz-adv-x="149" 
d="M22 -66h105v-109h-105v109z" />
    <glyph glyph-name="_386" horiz-adv-x="148" 
d="M25 -131v95h101v-102l-44 -89h-60l39 96h-36z" />
    <glyph glyph-name="_390" horiz-adv-x="191" 
d="M169 725l-70 -170h-77l30 170h117z" />
    <glyph glyph-name="zero.zero" horiz-adv-x="656" 
d="M328 -13q-140 0 -214 102t-74 274q0 171 74 273t214 102q141 0 215 -101.5t74 -273.5q0 -173 -74 -274.5t-215 -101.5zM164 363v-23l320 134q-32 173 -156 173q-79 0 -121.5 -73t-42.5 -211zM328 79q79 0 122 73t43 211q0 3 -0.5 10t-0.5 11l-319 -135q32 -170 155 -170z
" />
    <glyph glyph-name="one.onum" horiz-adv-x="346" 
d="M271 0h-119v481h-152v83q81 2 120.5 19.5t62.5 69.5h88v-653z" />
    <glyph glyph-name="two.onum" horiz-adv-x="550" 
d="M286 663q99 0 163 -47.5t64 -131.5q0 -47 -23.5 -94t-73.5 -96.5t-101.5 -90.5t-131.5 -99h344v-104h-504v99q201 148 261 203q105 98 105 173q0 45 -29 69.5t-80 24.5q-52 0 -88.5 -32.5t-36.5 -102.5l-118 1q-2 103 67.5 165.5t181.5 62.5z" />
    <glyph glyph-name="three.onum" horiz-adv-x="577" 
d="M281 84q59 0 96.5 26.5t37.5 73.5q0 105 -177 105h-26v98h23q164 0 164 95q0 41 -33.5 63.5t-82.5 22.5q-59 0 -94 -29.5t-43 -81.5l-116 12q13 92 80.5 143t178.5 51q97 0 164.5 -42.5t67.5 -128.5q0 -49 -27 -87.5t-73 -59.5q116 -41 116 -159q0 -95 -74 -146.5
t-184 -51.5q-112 0 -179.5 57.5t-77.5 146.5l116 11q9 -55 45.5 -87t97.5 -32z" />
    <glyph glyph-name="four.onum" horiz-adv-x="588" 
d="M345 497l-206 -240h206v240zM580 257v-106h-116v-151h-119v151h-337v99l340 402h116v-395h116z" />
    <glyph glyph-name="five.onum" horiz-adv-x="583" 
d="M287 84q59 0 96 34t37 96q0 65 -39.5 98t-95.5 33q-44 0 -77 -17.5t-45 -43.5l-112 8l46 360h418v-104h-321l-19 -146q52 40 140 40q94 0 161 -60.5t67 -166.5q0 -107 -73.5 -167t-183.5 -60q-111 0 -177 58t-77 143l116 14q20 -119 139 -119z" />
    <glyph glyph-name="six.onum" horiz-adv-x="592" 
d="M169 211q0 -59 36 -93t94 -34t94.5 35t36.5 92q0 56 -36.5 92t-93.5 36q-58 0 -94.5 -35.5t-36.5 -92.5zM307 568q-69 0 -106.5 -52t-38.5 -148q54 68 162 68q96 0 162 -62.5t66 -162.5q0 -98 -70 -160.5t-182 -62.5q-130 0 -195 86t-65 234q0 73 15.5 135t47 112.5
t86.5 79t128 28.5q102 0 159 -52t64 -126l-120 -1q-6 41 -36.5 62.5t-76.5 21.5z" />
    <glyph glyph-name="seven.onum" horiz-adv-x="450" 
d="M-3 548v104h494v-102q-139 -122 -206.5 -248t-76.5 -302h-134q15 315 289 548h-366z" />
    <glyph glyph-name="eight.onum" horiz-adv-x="607" 
d="M303 663q107 0 172 -48t65 -121q0 -95 -85 -145q105 -54 105 -163q0 -92 -72.5 -145t-184.5 -53t-184.5 53t-72.5 145q0 109 105 163q-85 49 -85 145q0 73 65 121t172 48zM303 297q-63 0 -98.5 -29t-35.5 -78q0 -48 36 -77t98 -29t98.5 29t36.5 77q0 49 -36.5 78
t-98.5 29zM423 481q0 40 -33 63.5t-87 23.5t-86.5 -23.5t-32.5 -63.5t33 -66.5t86 -26.5t86.5 26.5t33.5 66.5z" />
    <glyph glyph-name="nine.onum" horiz-adv-x="584" 
d="M416 440q0 59 -36.5 93.5t-94.5 34.5t-93.5 -34.5t-35.5 -93.5q0 -56 35.5 -91.5t93.5 -35.5q57 0 94 35.5t37 91.5zM277 83q69 0 107.5 52t39.5 148q-53 -67 -161 -67q-98 0 -164 61t-66 161q0 98 69 161.5t180 63.5q134 0 198 -85.5t64 -234.5q0 -73 -15 -135
t-46 -112.5t-85.5 -79t-126.5 -28.5q-103 0 -160 52t-66 127l119 1q7 -42 37 -63.5t76 -21.5z" />
    <glyph glyph-name="zero.onum" horiz-adv-x="629" 
d="M314 -12q-135 0 -204.5 90.5t-69.5 248.5t69.5 247t204.5 89t205.5 -89.5t70.5 -246.5t-71 -248t-205 -91zM314 84q152 0 152 243q0 241 -152 241q-151 0 -151 -241q0 -121 39 -182t112 -61z" />
    <glyph glyph-name="zero.onum_zero" horiz-adv-x="629" 
d="M314 -12q-135 0 -204.5 90.5t-69.5 248.5t69.5 247t204.5 89t205.5 -89.5t70.5 -246.5t-71 -248t-205 -91zM314 84q152 0 152 243q0 3 -0.5 9t-0.5 10l-293 -123q30 -139 142 -139zM163 327v-13l292 123q-29 131 -141 131q-151 0 -151 -241z" />
    <glyph glyph-name="one.tnum" 
d="M404 101h167v-101h-466v101h180v440h-179v82q93 3 139.5 19.5t70.5 71.5h88v-613z" />
    <glyph glyph-name="two.002" 
d="M350 738q104 0 170 -51t66 -141q0 -106 -92.5 -212t-270.5 -230h380v-104h-528v98q203 158 295 256t92 182q0 53 -31 82t-86 29q-58 0 -96.5 -37.5t-38.5 -116.5h-119q-2 110 69 177.5t190 67.5z" />
    <glyph glyph-name="three.003" 
d="M339 79q65 0 106 33.5t41 91.5q0 125 -181 125h-35v99h30q168 0 168 112q0 52 -36 79.5t-90 27.5q-65 0 -102.5 -36.5t-45.5 -101.5h-116q8 105 80 167t191 62q101 0 171 -48t70 -143q0 -53 -28.5 -96t-77.5 -67q63 -23 94 -70t31 -107q0 -106 -78 -163t-194 -57
q-121 0 -191.5 68t-76.5 170h116q9 -64 48.5 -105t105.5 -41z" />
    <glyph glyph-name="four.004" 
d="M395 570l-228 -297h228v297zM642 273v-103h-128v-170h-119v170h-358v99l359 456h118v-452h128z" />
    <glyph glyph-name="five.005" 
d="M339 79q62 0 102.5 41.5t40.5 112.5q0 76 -43.5 117.5t-102.5 41.5q-49 0 -84 -21.5t-47 -54.5l-112 6l48 403h434v-105h-336l-23 -182q56 45 150 45q99 0 169 -66t70 -182q0 -117 -77 -182.5t-191 -65.5q-120 0 -189 67.5t-75 167.5h115q19 -143 151 -143z" />
    <glyph glyph-name="six.006" 
d="M200 233q0 -71 39 -112.5t102 -41.5t102.5 41.5t39.5 112.5t-39 113t-102 42t-102.5 -42t-39.5 -113zM349 647q-73 0 -114.5 -67.5t-43.5 -180.5q57 83 174 83q102 0 171.5 -68t69.5 -179q0 -108 -73.5 -178t-190.5 -70q-137 0 -204.5 94.5t-67.5 259.5q0 82 15.5 151
t48.5 125.5t90 88.5t134 32q107 0 166 -57t68 -138h-121q-6 52 -38.5 78t-83.5 26z" />
    <glyph glyph-name="seven.007" 
d="M79 620v105h521v-105q-144 -138 -216 -282t-84 -338h-135q18 353 309 620h-395z" />
    <glyph glyph-name="eight.008" 
d="M338 738q112 0 180 -52t68 -134q0 -111 -93 -165q115 -60 115 -181q0 -104 -75.5 -161.5t-194.5 -57.5t-194.5 57.5t-75.5 161.5q0 123 115 181q-46 26 -69.5 70.5t-23.5 94.5q0 82 67.5 134t180.5 52zM338 341q-67 0 -106.5 -35t-39.5 -96q0 -62 39.5 -96.5t106.5 -34.5
t106.5 34.5t39.5 96.5q0 61 -39.5 96t-106.5 35zM468 537q0 52 -35 81t-95 29t-95.5 -29.5t-35.5 -80.5q0 -52 36 -83.5t95 -31.5q60 0 95 31.5t35 83.5z" />
    <glyph glyph-name="nine.009" 
d="M477 492q0 71 -39.5 113t-101.5 42q-64 0 -103 -41.5t-39 -113.5q0 -71 39 -113t102 -42q61 0 101.5 42.5t40.5 112.5zM328 79q73 0 114.5 66.5t43.5 180.5q-57 -83 -174 -83q-102 0 -171.5 68.5t-69.5 179.5q0 109 73.5 178t190.5 69q137 0 204.5 -94.5t67.5 -259.5
q0 -65 -9.5 -122t-31.5 -108t-54.5 -87.5t-82 -58t-111.5 -21.5q-106 0 -165 57t-68 138h121q6 -51 38.5 -77t83.5 -26z" />
    <glyph glyph-name="zero.010" 
d="M339 79q79 0 122 73t43 211t-43 211t-122 73t-121.5 -73t-42.5 -211t42.5 -211t121.5 -73zM339 -13q-140 0 -214 102t-74 274q0 171 74 273t214 102q141 0 215 -101.5t74 -273.5q0 -173 -74 -274.5t-215 -101.5z" />
    <glyph glyph-name="zero.010_zero" 
d="M339 -13q-140 0 -214 102t-74 274q0 171 74 273t214 102q141 0 215 -101.5t74 -273.5q0 -173 -74 -274.5t-215 -101.5zM175 363v-23l320 134q-32 173 -156 173q-79 0 -121.5 -73t-42.5 -211zM339 79q79 0 122 73t43 211q0 3 -0.5 10t-0.5 11l-319 -135q32 -170 155 -170z
" />
    <glyph glyph-name="one.case" horiz-adv-x="364" 
d="M288 0h-127v541h-161v88q87 2 127.5 20.5t66.5 75.5h94v-725z" />
    <glyph glyph-name="two.case" horiz-adv-x="579" 
d="M301 738q105 0 172.5 -53t67.5 -146q0 -53 -26 -106.5t-78.5 -109.5t-108.5 -104.5t-140 -111.5h368v-107h-533v105q86 68 132.5 105.5t103.5 88.5t84 84.5t46.5 72t19.5 73.5q0 49 -31.5 77.5t-83.5 28.5q-55 0 -93 -36.5t-38 -113.5h-126q-2 112 71 182.5t193 70.5z
" />
    <glyph glyph-name="three.case" horiz-adv-x="610" 
d="M296 91q62 0 102.5 30.5t40.5 83.5q0 62 -51 91t-136 29h-28v106h24q173 0 173 107q0 46 -35 71.5t-86 25.5q-61 0 -100 -32.5t-48 -86.5h-121q14 105 85 163.5t190 58.5q104 0 176 -48t72 -143q0 -52 -29 -94.5t-77 -66.5q61 -24 92 -72t31 -106q0 -105 -79.5 -163
t-197.5 -58q-119 0 -189 65t-83 169h124q9 -56 47.5 -93t102.5 -37z" />
    <glyph glyph-name="four.case" horiz-adv-x="623" 
d="M365 557l-218 -271h218v271zM616 286v-111h-124v-175h-127v175h-357v103l360 447h124v-439h124z" />
    <glyph glyph-name="five.case" horiz-adv-x="613" 
d="M301 91q62 0 101 38.5t39 108.5q0 71 -42.5 110.5t-99.5 39.5q-47 0 -81.5 -20t-47.5 -49l-119 7l49 399h442v-106h-338l-21 -172q53 43 148 43q99 0 170.5 -67t71.5 -185q0 -117 -79 -184t-195 -67q-119 0 -188 66.5t-79 167.5h122q11 -57 47.5 -93.5t99.5 -36.5z" />
    <glyph glyph-name="six.case" horiz-adv-x="624" 
d="M179 233q0 -65 37.5 -103.5t100.5 -38.5q61 0 98.5 38.5t37.5 103.5q0 64 -38 104t-98 40q-61 0 -99.5 -40t-38.5 -104zM325 635q-72 0 -113.5 -61.5t-42.5 -167.5q58 76 173 76q102 0 172 -69t70 -179q0 -108 -74.5 -177.5t-191.5 -69.5q-138 0 -208 97t-70 259
q0 80 16.5 149t50.5 125t92 88.5t135 32.5q108 0 168.5 -59t67.5 -139h-126q-7 45 -39.5 70t-79.5 25z" />
    <glyph glyph-name="seven.case" horiz-adv-x="502" 
d="M-3 619v106h525v-106q-146 -134 -217 -278.5t-83 -340.5h-141q8 182 91 340t219 279h-394z" />
    <glyph glyph-name="eight.case" horiz-adv-x="638" 
d="M318 738q114 0 183 -53t69 -134q0 -108 -89 -162q111 -59 111 -181q0 -102 -77.5 -161.5t-196.5 -59.5t-195.5 59.5t-76.5 161.5q0 122 112 181q-44 25 -67 69t-23 92q0 81 68.5 134.5t181.5 53.5zM318 333q-65 0 -103 -33t-38 -87q0 -55 38 -88.5t103 -33.5t104 33.5
t39 88.5q0 54 -38.5 87t-104.5 33zM444 536q0 45 -34 72t-92 27q-57 0 -91 -27t-34 -72q0 -46 34.5 -75t90.5 -29q57 0 91.5 29t34.5 75z" />
    <glyph glyph-name="nine.case" horiz-adv-x="618" 
d="M440 492q0 65 -38.5 104t-99.5 39q-62 0 -100 -39t-38 -104q0 -64 38 -104t99 -40q60 0 99.5 40.5t39.5 103.5zM293 91q72 0 113 61t42 166q-55 -74 -170 -74q-104 0 -174.5 67.5t-70.5 178.5q0 107 73.5 177.5t191.5 70.5q141 0 210 -95t69 -258q0 -80 -16 -149
t-49 -126t-91 -90t-135 -33q-108 0 -169 58.5t-70 139.5h127q7 -45 38.5 -69.5t80.5 -24.5z" />
    <glyph glyph-name="zero.case" horiz-adv-x="664" 
d="M333 -13q-142 0 -217.5 102.5t-75.5 274.5q0 173 75 273.5t218 100.5t217 -100.5t74 -273.5q0 -172 -74.5 -274.5t-216.5 -102.5zM333 91q75 0 117.5 70t42.5 203q0 134 -42 202.5t-118 68.5t-118.5 -68.5t-42.5 -202.5q0 -133 42.5 -203t118.5 -70z" />
    <glyph glyph-name="zero.case_zero" horiz-adv-x="664" 
d="M333 -13q-142 0 -217.5 102.5t-75.5 274.5q0 173 75 273.5t218 100.5t217 -100.5t74 -273.5q0 -172 -74.5 -274.5t-216.5 -102.5zM172 364v-23l312 131q-16 80 -54.5 121.5t-96.5 41.5q-76 0 -118.5 -68.5t-42.5 -202.5zM333 91q75 0 117.5 70t42.5 203v18l-311 -131
q34 -160 151 -160z" />
    <glyph glyph-name="a.sups" horiz-adv-x="351" 
d="M132 431q-46 0 -76 23.5t-30 64.5q0 52 51 75.5t150 32.5v9q0 54 -54 54q-53 0 -57 -46h-81q4 46 43 76t101 30q66 0 100 -30t34 -100l-1 -32v-38q0 -84 6 -112h-84q0 4 -0.5 18t-0.5 19q-32 -44 -101 -44zM229 566v8q-59 -6 -86 -16t-27 -33q0 -16 12.5 -25t32.5 -9
q68 0 68 75z" />
    <glyph glyph-name="b.sups" horiz-adv-x="380" 
d="M197 498q30 0 48.5 24.5t18.5 66.5q0 43 -18.5 67t-48.5 24q-31 0 -50 -23t-19 -68t19 -68t50 -23zM132 438h-87v408h87v-145q29 47 91 47q59 0 95.5 -43t36.5 -116t-37 -115.5t-95 -42.5q-65 0 -91 47v-40z" />
    <glyph glyph-name="c.sups" horiz-adv-x="349" 
d="M179 749q53 0 93.5 -28t51.5 -88h-82q-11 49 -59 49q-30 0 -49 -23t-19 -69t19 -69t49 -23q49 0 63 48h81q-15 -61 -55.5 -88t-93.5 -27q-72 0 -112 43.5t-40 115.5t41.5 115.5t111.5 43.5z" />
    <glyph glyph-name="d.sups" horiz-adv-x="381" 
d="M337 438h-87v40q-26 -47 -91 -47q-58 0 -95 42.5t-37 115.5t36.5 116t95.5 43q62 0 91 -47v145h87v-408zM185 498q31 0 50 23t19 68t-19 68t-50 23q-30 0 -48.5 -24t-18.5 -67q0 -42 18.5 -66.5t48.5 -24.5z" />
    <glyph glyph-name="e.sups" horiz-adv-x="361" 
d="M187 431q-74 0 -117.5 43.5t-43.5 116.5q0 69 44.5 113.5t113.5 44.5q73 0 114.5 -50.5t37.5 -131.5h-222q2 -32 22 -50.5t49 -18.5q46 0 66 32h83q-17 -46 -55.5 -72.5t-91.5 -26.5zM183 684q-26 0 -45.5 -16t-23.5 -46h135q-1 31 -19.5 46.5t-46.5 15.5z" />
    <glyph glyph-name="f.sups" horiz-adv-x="220" 
d="M55 741v18q0 54 25 70.5t88 16.5h39v-62h-22q-27 0 -35 -5t-8 -23v-15h65v-61h-65v-242h-87v242h-42v61h42z" />
    <glyph glyph-name="g.sups" horiz-adv-x="378" 
d="M184 516q31 0 49.5 20.5t18.5 61.5q0 83 -68 83q-30 0 -48.5 -22t-18.5 -61q0 -38 18.5 -60t48.5 -22zM249 741h86v-266q0 -143 -152 -143q-60 0 -98.5 27t-45.5 73h82q11 -38 62 -38q66 0 66 64v38q-27 -47 -91 -47q-59 0 -95.5 40t-36.5 109t36 109.5t96 40.5
q28 0 53.5 -13t37.5 -35v41z" />
    <glyph glyph-name="h.sups" horiz-adv-x="366" 
d="M132 846v-145q26 47 91 47q55 0 79 -31.5t24 -93.5v-185h-86v165q0 37 -9.5 56.5t-39.5 19.5q-59 0 -59 -85v-156h-87v408h87z" />
    <glyph glyph-name="i.sups" horiz-adv-x="176" 
d="M45 741h87v-303h-87v303zM45 846h87v-73h-87v73z" />
    <glyph glyph-name="j.sups" horiz-adv-x="177" 
d="M44 440v301h87v-303q0 -58 -21.5 -78.5t-77.5 -20.5h-29v64h10q20 0 25.5 7.5t5.5 29.5zM44 846h87v-73h-87v73z" />
    <glyph glyph-name="k.sups" horiz-adv-x="354" 
d="M45 846h87v-223l105 118h101l-109 -116l117 -187h-100l-75 124l-39 -41v-83h-87v408z" />
    <glyph glyph-name="l.sups" horiz-adv-x="176" 
d="M132 846v-408h-87v408h87z" />
    <glyph glyph-name="m.sups" horiz-adv-x="552" 
d="M45 438v303h85v-37q30 43 89 43q64 0 89 -49q36 49 102 49q62 0 85 -38q18 -25 18 -85v-186h-86v164q0 42 -9 58q-11 17 -39 17q-31 0 -43.5 -20.5t-12.5 -61.5v-157h-87v164q0 44 -10 58q-11 17 -38 17q-56 0 -56 -82v-157h-87z" />
    <glyph glyph-name="o.sups" horiz-adv-x="363" 
d="M114 590q0 -92 68 -92q32 0 50.5 23t18.5 69t-18.5 68.5t-50.5 22.5q-31 0 -49.5 -22.5t-18.5 -68.5zM26 590q0 77 45.5 118t110.5 41q66 0 111.5 -41t45.5 -118t-45.5 -118t-111.5 -41t-111 41t-45 118z" />
    <glyph glyph-name="p.sups" horiz-adv-x="380" 
d="M197 498q30 0 48.5 24.5t18.5 66.5q0 43 -18.5 67t-48.5 24q-31 0 -50 -23t-19 -68t19 -68t50 -23zM132 339h-87v402h87v-40q29 47 91 47q59 0 95.5 -43t36.5 -116t-37 -115.5t-96 -42.5q-64 0 -90 47v-139z" />
    <glyph glyph-name="q.sups" horiz-adv-x="380" 
d="M184 498q31 0 50 23t19 68t-19 68t-50 23q-30 0 -48.5 -24t-18.5 -67q0 -42 18.5 -66.5t48.5 -24.5zM336 741v-402h-87v139q-26 -47 -91 -47q-58 0 -95 42.5t-37 115.5t36.5 116t95.5 43q62 0 91 -47v40h87z" />
    <glyph glyph-name="r.sups" horiz-adv-x="237" 
d="M226 741v-84q-7 2 -28 2q-34 0 -50 -14.5t-16 -51.5v-155h-87v303h84v-56q24 56 82 57q12 0 15 -1z" />
    <glyph glyph-name="s.sups" horiz-adv-x="331" 
d="M168 431q-61 0 -99.5 27t-45.5 79h82q9 -43 65 -43t56 30q0 21 -49 31l-50 10q-98 18 -98 92q0 43 38.5 67.5t95.5 24.5q54 0 93 -24.5t47 -73.5h-81q-10 35 -62 35q-50 0 -50 -25q0 -23 40 -30l50 -10q57 -12 83.5 -31t26.5 -59q0 -47 -40 -73.5t-102 -26.5z" />
    <glyph glyph-name="t.sups" horiz-adv-x="233" 
d="M57 741v82h87v-82h65v-61h-65v-144q0 -22 8 -28.5t31 -6.5h26v-63h-59q-55 0 -74 17t-19 67v158h-46v61h46z" />
    <glyph glyph-name="u.sups" horiz-adv-x="365" 
d="M233 438v41q-29 -48 -89 -48q-56 0 -79.5 30.5t-23.5 93.5v186h87v-165q0 -26 2 -40t13 -25.5t32 -11.5q32 0 45 20.5t13 62.5v159h87v-303h-87z" />
    <glyph glyph-name="v.sups" horiz-adv-x="334" 
d="M104 741l67 -218l65 218h88l-108 -303h-95l-110 303h93z" />
    <glyph glyph-name="w.sups" horiz-adv-x="448" 
d="M139 534l40 207h90l41 -207l40 207h88l-70 -303h-98l-46 226l-46 -226h-97l-70 303h88z" />
    <glyph glyph-name="x.sups" horiz-adv-x="344" 
d="M329 741l-109 -146l114 -157h-98l-66 91l-68 -91h-91l114 152l-109 151h98l61 -85l64 85h90z" />
    <glyph glyph-name="y.sups" horiz-adv-x="328" 
d="M72 339h-31v65h23q28 0 36.5 4t16.5 23l3 8l-114 302h95l61 -201l64 201h91l-115 -299q-24 -64 -48.5 -83.5t-81.5 -19.5z" />
    <glyph glyph-name="z.sups" horiz-adv-x="317" 
d="M19 438v69l159 165h-149v69h258v-69l-159 -165h165v-69h-274z" />
    <glyph glyph-name="uni2070.zero" horiz-adv-x="404" 
d="M203 431q-83 0 -127 57t-44 155q0 100 43 155t128 55q83 0 126.5 -55.5t43.5 -154.5q0 -98 -44 -155t-126 -57zM121 643v-10l158 70q-16 85 -76 85q-82 0 -82 -145zM203 495q81 0 81 148v3l-158 -69q16 -82 77 -82z" />
    <glyph glyph-name="period.sups" horiz-adv-x="168" 
d="M132 438h-96v94h96v-94z" />
    <glyph glyph-name="hyphen.sups" horiz-adv-x="235" 
d="M214 551h-194v74h194v-74z" />
    <glyph glyph-name="comma.sups" horiz-adv-x="177" 
d="M39 438v94h98v-100l-53 -86h-51l46 92h-40z" />
    <glyph glyph-name="a.subs" horiz-adv-x="351" 
d="M132 -135q-46 0 -76 23.5t-30 64.5q0 52 51 75.5t150 32.5v9q0 54 -54 54q-53 0 -57 -46h-81q4 46 43 76t101 30q66 0 100 -30t34 -100l-1 -32v-38q0 -84 6 -112h-84q0 4 -0.5 18t-0.5 19q-32 -44 -101 -44zM229 0v8q-59 -6 -86 -16t-27 -33q0 -16 12.5 -25t32.5 -9
q68 0 68 75z" />
    <glyph glyph-name="b.subs" horiz-adv-x="380" 
d="M197 -68q30 0 48.5 24.5t18.5 66.5q0 43 -18.5 67t-48.5 24q-31 0 -50 -23t-19 -68t19 -68t50 -23zM132 -128h-87v408h87v-145q29 47 91 47q59 0 95.5 -43t36.5 -116t-37 -115.5t-95 -42.5q-65 0 -91 47v-40z" />
    <glyph glyph-name="c.subs" horiz-adv-x="349" 
d="M179 183q53 0 93.5 -28t51.5 -88h-82q-11 49 -59 49q-30 0 -49 -23t-19 -69t19 -69t49 -23q49 0 63 48h81q-15 -61 -55.5 -88t-93.5 -27q-72 0 -112 43.5t-40 115.5t41.5 115.5t111.5 43.5z" />
    <glyph glyph-name="d.subs" horiz-adv-x="381" 
d="M337 -128h-87v40q-26 -47 -91 -47q-58 0 -95 42.5t-37 115.5t36.5 116t95.5 43q62 0 91 -47v145h87v-408zM185 -68q31 0 50 23t19 68t-19 68t-50 23q-30 0 -48.5 -24t-18.5 -67q0 -42 18.5 -66.5t48.5 -24.5z" />
    <glyph glyph-name="e.subs" horiz-adv-x="361" 
d="M187 -135q-74 0 -117.5 43.5t-43.5 116.5q0 69 44.5 113.5t113.5 44.5q73 0 114.5 -50.5t37.5 -131.5h-222q2 -32 22 -50.5t49 -18.5q46 0 66 32h83q-17 -46 -55.5 -72.5t-91.5 -26.5zM183 118q-26 0 -45.5 -16t-23.5 -46h135q-1 31 -19.5 46.5t-46.5 15.5z" />
    <glyph glyph-name="f.subs" horiz-adv-x="220" 
d="M55 175v18q0 54 25 70.5t88 16.5h39v-62h-22q-27 0 -35 -5t-8 -23v-15h65v-61h-65v-242h-87v242h-42v61h42z" />
    <glyph glyph-name="g.subs" horiz-adv-x="378" 
d="M184 -50q31 0 49.5 20.5t18.5 61.5q0 83 -68 83q-30 0 -48.5 -22t-18.5 -61q0 -38 18.5 -60t48.5 -22zM249 175h86v-266q0 -143 -152 -143q-60 0 -98.5 27t-45.5 73h82q11 -38 62 -38q66 0 66 64v38q-27 -47 -91 -47q-59 0 -95.5 40t-36.5 109t36 109.5t96 40.5
q28 0 53.5 -13t37.5 -35v41z" />
    <glyph glyph-name="h.subs" horiz-adv-x="366" 
d="M132 280v-145q26 47 91 47q55 0 79 -31.5t24 -93.5v-185h-86v165q0 37 -9.5 56.5t-39.5 19.5q-59 0 -59 -85v-156h-87v408h87z" />
    <glyph glyph-name="i.subs" horiz-adv-x="176" 
d="M45 175h87v-303h-87v303zM45 280h87v-73h-87v73z" />
    <glyph glyph-name="j.subs" horiz-adv-x="177" 
d="M44 -126v301h87v-303q0 -58 -21.5 -78.5t-77.5 -20.5h-29v64h10q20 0 25.5 7.5t5.5 29.5zM44 280h87v-73h-87v73z" />
    <glyph glyph-name="k.subs" horiz-adv-x="354" 
d="M45 280h87v-223l105 118h101l-109 -116l117 -187h-100l-75 124l-39 -41v-83h-87v408z" />
    <glyph glyph-name="l.subs" horiz-adv-x="176" 
d="M132 280v-408h-87v408h87z" />
    <glyph glyph-name="m.subs" horiz-adv-x="552" 
d="M45 -128v303h85v-37q30 43 89 43q64 0 89 -49q36 49 102 49q62 0 85 -38q18 -25 18 -85v-186h-86v164q0 42 -9 58q-11 17 -39 17q-31 0 -43.5 -20.5t-12.5 -61.5v-157h-87v164q0 44 -10 58q-11 17 -38 17q-56 0 -56 -82v-157h-87z" />
    <glyph glyph-name="uni207F.011" horiz-adv-x="366" 
d="M132 175v-40q26 47 91 47q55 0 79 -31.5t24 -93.5v-185h-86v165q0 37 -9.5 56.5t-39.5 19.5q-59 0 -59 -85v-156h-87v303h87z" />
    <glyph glyph-name="o.subs" horiz-adv-x="363" 
d="M114 24q0 -92 68 -92q32 0 50.5 23t18.5 69t-18.5 68.5t-50.5 22.5q-31 0 -49.5 -22.5t-18.5 -68.5zM26 24q0 77 45.5 118t110.5 41q66 0 111.5 -41t45.5 -118t-45.5 -118t-111.5 -41t-111 41t-45 118z" />
    <glyph glyph-name="p.subs" horiz-adv-x="380" 
d="M197 -68q30 0 48.5 24.5t18.5 66.5q0 43 -18.5 67t-48.5 24q-31 0 -50 -23t-19 -68t19 -68t50 -23zM132 -227h-87v402h87v-40q29 47 91 47q59 0 95.5 -43t36.5 -116t-37 -115.5t-96 -42.5q-64 0 -90 47v-139z" />
    <glyph glyph-name="q.subs" horiz-adv-x="380" 
d="M184 -68q31 0 50 23t19 68t-19 68t-50 23q-30 0 -48.5 -24t-18.5 -67q0 -42 18.5 -66.5t48.5 -24.5zM336 175v-402h-87v139q-26 -47 -91 -47q-58 0 -95 42.5t-37 115.5t36.5 116t95.5 43q62 0 91 -47v40h87z" />
    <glyph glyph-name="r.subs" horiz-adv-x="237" 
d="M226 175v-84q-7 2 -28 2q-34 0 -50 -14.5t-16 -51.5v-155h-87v303h84v-56q24 56 82 57q12 0 15 -1z" />
    <glyph glyph-name="s.subs" horiz-adv-x="331" 
d="M168 -135q-61 0 -99.5 27t-45.5 79h82q9 -43 65 -43t56 30q0 21 -49 31l-50 10q-98 18 -98 92q0 43 38.5 67.5t95.5 24.5q54 0 93 -24.5t47 -73.5h-81q-10 35 -62 35q-50 0 -50 -25q0 -23 40 -30l50 -10q57 -12 83.5 -31t26.5 -59q0 -47 -40 -73.5t-102 -26.5z" />
    <glyph glyph-name="t.subs" horiz-adv-x="233" 
d="M57 175v82h87v-82h65v-61h-65v-144q0 -22 8 -28.5t31 -6.5h26v-63h-59q-55 0 -74 17t-19 67v158h-46v61h46z" />
    <glyph glyph-name="u.subs" horiz-adv-x="365" 
d="M233 -128v41q-29 -48 -89 -48q-56 0 -79.5 30.5t-23.5 93.5v186h87v-165q0 -26 2 -40t13 -25.5t32 -11.5q32 0 45 20.5t13 62.5v159h87v-303h-87z" />
    <glyph glyph-name="v.subs" horiz-adv-x="334" 
d="M104 175l67 -218l65 218h88l-108 -303h-95l-110 303h93z" />
    <glyph glyph-name="w.subs" horiz-adv-x="448" 
d="M139 -32l40 207h90l41 -207l40 207h88l-70 -303h-98l-46 226l-46 -226h-97l-70 303h88z" />
    <glyph glyph-name="x.subs" horiz-adv-x="344" 
d="M329 175l-109 -146l114 -157h-98l-66 91l-68 -91h-91l114 152l-109 151h98l61 -85l64 85h90z" />
    <glyph glyph-name="y.subs" horiz-adv-x="328" 
d="M72 -227h-31v65h23q28 0 36.5 4t16.5 23l3 8l-114 302h95l61 -201l64 201h91l-115 -299q-24 -64 -48.5 -83.5t-81.5 -19.5z" />
    <glyph glyph-name="z.subs" horiz-adv-x="317" 
d="M19 -128v69l159 165h-149v69h258v-69l-159 -165h165v-69h-274z" />
    <glyph glyph-name="uni2080.zero" horiz-adv-x="404" 
d="M203 -135q-83 0 -127 57t-44 155q0 100 43 155t128 55q83 0 126.5 -55.5t43.5 -154.5q0 -98 -44 -155t-126 -57zM121 77v-10l158 70q-16 85 -76 85q-82 0 -82 -145zM203 -71q81 0 81 148v3l-158 -69q16 -82 77 -82z" />
    <glyph glyph-name="period.subs" horiz-adv-x="168" 
d="M132 -128h-96v94h96v-94z" />
    <glyph glyph-name="hyphen.subs" horiz-adv-x="235" 
d="M214 -15h-194v74h194v-74z" />
    <glyph glyph-name="comma.subs" horiz-adv-x="177" 
d="M39 -128v94h98v-100l-53 -86h-51l46 92h-40z" />
    <glyph glyph-name="uni207C.012" horiz-adv-x="367" 
d="M330 42h-292v74h292v-74zM330 -72h-292v74h292v-74z" />
    <glyph glyph-name="uni207A.013" horiz-adv-x="379" 
d="M229 -128h-80v113h-120v74h120v112h80v-112h120v-74h-120v-113z" />
    <glyph glyph-name="uni207B.014" horiz-adv-x="373" 
d="M29 59h316v-74h-316v74z" />
    <glyph glyph-name="one.frac" horiz-adv-x="241" 
d="M188 317h-86v286h-91v62q49 2 73 15t38 45h66v-408z" />
    <glyph glyph-name="two.frac" horiz-adv-x="355" 
d="M181 732q64 0 103.5 -30t39.5 -83q0 -60 -49.5 -115t-147.5 -115h201v-72h-308v71q10 8 30 23q50 39 74.5 58.5t55.5 48.5t43.5 51.5t12.5 44.5q0 26 -16 40t-42 14q-67 0 -67 -84h-85q-2 68 41 108t114 40z" />
    <glyph glyph-name="three.frac" horiz-adv-x="372" 
d="M186 374q32 0 51 15.5t19 44.5q0 58 -94 58h-23v70h20q89 0 89 56q0 23 -18 36t-44 13q-65 0 -75 -62h-84q6 62 51 94.5t113 32.5q59 0 102 -27.5t43 -80.5q0 -29 -16.5 -53.5t-39.5 -37.5q30 -12 47 -40t17 -58q0 -60 -46 -92.5t-114 -32.5q-67 0 -111 35.5t-51 99.5h85
q5 -34 26 -52.5t53 -18.5z" />
    <glyph glyph-name="four.frac" horiz-adv-x="381" 
d="M216 613l-104 -130h104v130zM365 483v-75h-62v-91h-87v91h-199v68l204 249h82v-242h62z" />
    <glyph glyph-name="five.frac" horiz-adv-x="377" 
d="M187 374q33 0 53 20.5t20 56.5q0 37 -21.5 57.5t-51.5 20.5q-50 0 -70 -39l-79 6l28 229h265v-71h-193l-10 -81q32 22 81 22q57 0 98.5 -38t41.5 -105t-46.5 -104.5t-115.5 -37.5q-66 0 -109 36.5t-50 97.5h83q10 -70 76 -70z" />
    <glyph glyph-name="six.frac" horiz-adv-x="372" 
d="M120 450q0 -35 19 -55.5t51 -20.5q31 0 49.5 20.5t18.5 55.5q0 34 -18.5 55t-49.5 21t-50.5 -20.5t-19.5 -55.5zM194 668q-36 0 -56.5 -28.5t-19.5 -81.5q33 33 89 33q58 0 99 -39.5t41 -101.5q0 -63 -43.5 -101.5t-113.5 -38.5q-82 0 -122 55.5t-40 145.5q0 97 42 159
t130 62q65 0 101 -33.5t40 -82.5h-86q-6 52 -61 52z" />
    <glyph glyph-name="seven.frac" horiz-adv-x="317" 
d="M12 654v71h304v-71q-87 -79 -125 -152.5t-42 -184.5h-94q4 198 171 337h-214z" />
    <glyph glyph-name="eight.frac" horiz-adv-x="383" 
d="M192 732q68 0 109 -30t41 -78q0 -58 -46 -88q58 -36 58 -100q0 -58 -46 -92t-116 -34q-71 0 -116.5 33.5t-45.5 92.5q0 64 58 100q-46 28 -46 88q0 48 41 78t109 30zM192 503q-34 0 -53.5 -17.5t-19.5 -45.5q0 -29 19.5 -47.5t53.5 -18.5t53.5 18.5t19.5 47.5
q0 28 -19.5 45.5t-53.5 17.5zM256 615q0 24 -17 38t-47 14t-47.5 -14t-17.5 -38t17.5 -38.5t47.5 -14.5t47 14.5t17 38.5z" />
    <glyph glyph-name="nine.frac" horiz-adv-x="369" 
d="M251 592q0 34 -19 54.5t-51 20.5q-30 0 -49 -20t-19 -55q0 -34 19 -55t49 -21q31 0 50.5 20.5t19.5 55.5zM176 374q36 0 57 28.5t21 81.5q-33 -33 -91 -33t-98 39.5t-40 101.5q0 63 43.5 101.5t112.5 38.5q82 0 122 -55.5t40 -146.5q0 -96 -42 -158t-129 -62
q-66 0 -102.5 33t-38.5 82h85q6 -51 60 -51z" />
    <glyph glyph-name="zero.frac" horiz-adv-x="404" 
d="M203 310q-83 0 -127 57t-44 155q0 100 43 155t128 55q83 0 126.5 -55.5t43.5 -154.5q0 -98 -44 -155t-126 -57zM203 374q81 0 81 148q0 145 -81 145q-82 0 -82 -145q0 -148 82 -148z" />
    <glyph glyph-name="zero.frac_zero" horiz-adv-x="404" 
d="M203 310q-83 0 -127 57t-44 155q0 100 43 155t128 55q83 0 126.5 -55.5t43.5 -154.5q0 -98 -44 -155t-126 -57zM121 522v-10l158 70q-16 85 -76 85q-82 0 -82 -145zM203 374q81 0 81 148v3l-158 -69q16 -82 77 -82z" />
    <glyph glyph-name="one.dnom" horiz-adv-x="241" 
d="M188 0h-86v286h-91v62q49 2 73 15t38 45h66v-408z" />
    <glyph glyph-name="two.dnom" horiz-adv-x="355" 
d="M181 415q64 0 103.5 -30t39.5 -83q0 -60 -49.5 -115t-147.5 -115h201v-72h-308v71q10 8 30 23q50 39 74.5 58.5t55.5 48.5t43.5 51.5t12.5 44.5q0 26 -16 40t-42 14q-67 0 -67 -84h-85q-2 68 41 108t114 40z" />
    <glyph glyph-name="three.dnom" horiz-adv-x="372" 
d="M186 57q32 0 51 15.5t19 44.5q0 58 -94 58h-23v70h20q89 0 89 56q0 23 -18 36t-44 13q-65 0 -75 -62h-84q6 62 51 94.5t113 32.5q59 0 102 -27.5t43 -80.5q0 -29 -16.5 -53.5t-39.5 -37.5q30 -12 47 -40t17 -58q0 -60 -46 -92.5t-114 -32.5q-67 0 -111 35.5t-51 99.5h85
q5 -34 26 -52.5t53 -18.5z" />
    <glyph glyph-name="four.dnom" horiz-adv-x="381" 
d="M216 296l-104 -130h104v130zM365 166v-75h-62v-91h-87v91h-199v68l204 249h82v-242h62z" />
    <glyph glyph-name="five.dnom" horiz-adv-x="377" 
d="M187 57q33 0 53 20.5t20 56.5q0 37 -21.5 57.5t-51.5 20.5q-50 0 -70 -39l-79 6l28 229h265v-71h-193l-10 -81q32 22 81 22q57 0 98.5 -38t41.5 -105t-46.5 -104.5t-115.5 -37.5q-66 0 -109 36.5t-50 97.5h83q10 -70 76 -70z" />
    <glyph glyph-name="six.dnom" horiz-adv-x="372" 
d="M120 133q0 -35 19 -55.5t51 -20.5q31 0 49.5 20.5t18.5 55.5q0 34 -18.5 55t-49.5 21t-50.5 -20.5t-19.5 -55.5zM194 351q-36 0 -56.5 -28.5t-19.5 -81.5q33 33 89 33q58 0 99 -39.5t41 -101.5q0 -63 -43.5 -101.5t-113.5 -38.5q-82 0 -122 55.5t-40 145.5q0 97 42 159
t130 62q65 0 101 -33.5t40 -82.5h-86q-6 52 -61 52z" />
    <glyph glyph-name="seven.dnom" horiz-adv-x="317" 
d="M12 337v71h304v-71q-87 -79 -125 -152.5t-42 -184.5h-94q4 198 171 337h-214z" />
    <glyph glyph-name="eight.dnom" horiz-adv-x="383" 
d="M192 415q68 0 109 -30t41 -78q0 -58 -46 -88q58 -36 58 -100q0 -58 -46 -92t-116 -34q-71 0 -116.5 33.5t-45.5 92.5q0 64 58 100q-46 28 -46 88q0 48 41 78t109 30zM192 186q-34 0 -53.5 -17.5t-19.5 -45.5q0 -29 19.5 -47.5t53.5 -18.5t53.5 18.5t19.5 47.5
q0 28 -19.5 45.5t-53.5 17.5zM256 298q0 24 -17 38t-47 14t-47.5 -14t-17.5 -38t17.5 -38.5t47.5 -14.5t47 14.5t17 38.5z" />
    <glyph glyph-name="nine.dnom" horiz-adv-x="369" 
d="M251 275q0 34 -19 54.5t-51 20.5q-30 0 -49 -20t-19 -55q0 -34 19 -55t49 -21q31 0 50.5 20.5t19.5 55.5zM176 57q36 0 57 28.5t21 81.5q-33 -33 -91 -33t-98 39.5t-40 101.5q0 63 43.5 101.5t112.5 38.5q82 0 122 -55.5t40 -146.5q0 -96 -42 -158t-129 -62
q-66 0 -102.5 33t-38.5 82h85q6 -51 60 -51z" />
    <glyph glyph-name="zero.dnom" horiz-adv-x="404" 
d="M203 -7q-83 0 -127 57t-44 155q0 100 43 155t128 55q83 0 126.5 -55.5t43.5 -154.5q0 -98 -44 -155t-126 -57zM203 57q81 0 81 148q0 145 -81 145q-82 0 -82 -145q0 -148 82 -148z" />
    <glyph glyph-name="zero.dnom_zero" horiz-adv-x="404" 
d="M203 -7q-83 0 -127 57t-44 155q0 100 43 155t128 55q83 0 126.5 -55.5t43.5 -154.5q0 -98 -44 -155t-126 -57zM121 205v-10l158 70q-16 85 -76 85q-82 0 -82 -145zM203 57q81 0 81 148v3l-158 -69q16 -82 77 -82z" />
    <glyph glyph-name="ampersand.case" horiz-adv-x="710" 
d="M267 -13q-109 0 -176.5 61t-67.5 153q0 76 49 131t127 83q-77 90 -77 165q0 72 57.5 115t146.5 43q50 0 92 -14t73 -52t31 -94q0 -61 -38.5 -109.5t-101.5 -77.5l113 -123q22 60 27 133h124q-13 -120 -70 -220l167 -181h-167l-76 83q-98 -96 -233 -96zM288 86
q80 0 144 72l-169 186q-113 -43 -113 -136q0 -57 36 -89.5t102 -32.5zM250 583q0 -48 70 -124v-1q85 40 85 116q0 35 -21.5 53.5t-56.5 18.5q-34 0 -55.5 -16.5t-21.5 -46.5z" />
    <glyph glyph-name="hyphen.015" horiz-adv-x="422" 
d="M374 311h-326v107h326v-107z" />
    <glyph glyph-name="endash.016" horiz-adv-x="508" 
d="M475 311h-443v107h443v-107z" />
    <glyph glyph-name="emdash.017" horiz-adv-x="726" 
d="M694 311h-662v107h662v-107z" />
    <glyph glyph-name="question.case" horiz-adv-x="530" 
d="M275 738q63 0 116.5 -17.5t91 -59t37.5 -101.5q0 -119 -126 -195q-53 -32 -72 -55t-19 -69v-31h-128v34q0 66 26.5 105t86.5 75q49 29 75 59t26 70q0 38 -33.5 59.5t-82.5 21.5q-137 0 -140 -125h-124q0 106 75 167.5t191 61.5zM307 0h-136v136h136v-136z" />
    <glyph glyph-name="questiondown.case" horiz-adv-x="530" 
d="M256 -13q-63 0 -116.5 17.5t-91 59.5t-37.5 102q0 108 126 184q53 32 72 54.5t19 68.5v32h128v-35q0 -66 -26.5 -104.5t-86.5 -74.5q-64 -40 -80 -59q-21 -25 -21 -60q0 -38 33.5 -59.5t82.5 -21.5q135 0 140 127h124q0 -105 -75 -168t-191 -63zM360 590h-136v136h136
v-136z" />
    <glyph glyph-name="exclam.case" horiz-adv-x="268" 
d="M174 213h-78l-32 313v199h140v-199zM202 0h-136v136h136v-136z" />
    <glyph glyph-name="exclamdown.case" horiz-adv-x="268" 
d="M94 501h78l32 -313v-188h-140v188zM202 589h-136v136h136v-136z" />
    <glyph glyph-name="guilsinglleft.018" horiz-adv-x="321" 
d="M175 138l-159 230l159 229h114l-134 -229l134 -230h-114z" />
    <glyph glyph-name="guilsinglright.019" horiz-adv-x="321" 
d="M305 368l-159 -230h-114l135 230l-135 229h114z" />
    <glyph glyph-name="guilsinglleft_guilsinglleft" horiz-adv-x="543" 
d="M175 138l-159 230l159 229h114l-134 -229l134 -230h-114zM397 138l-159 230l159 229h114l-134 -229l134 -230h-114z" />
    <glyph glyph-name="guilsinglright_guilsinglright" horiz-adv-x="543" 
d="M527 368l-159 -230h-114l135 230l-135 229h114zM305 368l-159 -230h-114l135 230l-135 229h114z" />
    <glyph glyph-name="parenleft.case" horiz-adv-x="258" 
d="M24 363q0 184 113 362h122q-105 -167 -105 -362q0 -192 105 -363h-122q-113 180 -113 363z" />
    <glyph glyph-name="parenright.case" horiz-adv-x="258" 
d="M232 363q0 -188 -112 -363h-121q104 172 104 363q0 194 -104 362h121q112 -175 112 -362z" />
    <glyph glyph-name="bracketleft.case" horiz-adv-x="337" 
d="M73 725h244v-91h-131v-543h131v-91h-244v725z" />
    <glyph glyph-name="bracketright.case" horiz-adv-x="337" 
d="M20 725h244v-725h-244v91h131v543h-131v91z" />
    <glyph glyph-name="braceleft.case" horiz-adv-x="319" 
d="M299 0h-41q-100 0 -139 34.5t-39 129.5v48q0 52 -15 77.5t-61 25.5v96q46 0 61 25.5t15 77.5v48q0 94 39 128.5t139 34.5h41v-97h-24q-44 0 -60.5 -15.5t-16.5 -55.5v-56q0 -66 -20.5 -95.5t-63.5 -40.5v-2q42 -10 63 -41t21 -96v-58q0 -40 16.5 -55.5t60.5 -15.5h24v-97
z" />
    <glyph glyph-name="braceright.case" horiz-adv-x="319" 
d="M20 0v97h24q44 0 60.5 15.5t16.5 55.5v58q0 65 21 96t63 41v2q-43 10 -63.5 40.5t-20.5 95.5v56q0 40 -16.5 55.5t-60.5 15.5h-24v97h40q100 0 139 -34.5t39 -128.5v-48q0 -52 15.5 -77.5t61.5 -25.5v-96q-46 0 -61.5 -25.5t-15.5 -77.5v-48q0 -95 -39 -129.5t-139 -34.5
h-40z" />
    <glyph glyph-name="bar.case" horiz-adv-x="248" 
d="M73 725h102v-725h-102v725z" />
    <glyph glyph-name="brokenbar.case" horiz-adv-x="236" 
d="M67 725h102v-260h-102v260zM67 260h102v-260h-102v260z" />
    <glyph glyph-name="period.020" horiz-adv-x="240" 
d="M188 296h-136v136h136v-136z" />
    <glyph glyph-name="bullet.021" horiz-adv-x="447" 
d="M43 374q0 73 52 125t124 52q78 0 131 -51.5t53 -125.5q0 -78 -52.5 -130.5t-131.5 -52.5q-73 0 -124.5 53t-51.5 130z" />
    <glyph glyph-name="plus.022" 
d="M395 95h-110v214h-221v107h221v215h110v-215h220v-107h-220v-214z" />
    <glyph glyph-name="minus.023" 
d="M70 416h538v-107h-538v107z" />
    <glyph glyph-name="divide.024" 
d="M272 121v130h135v-130h-135zM272 466v130h135v-130h-135zM604 305h-529v107h529v-107z" />
    <glyph glyph-name="multiply.025" 
d="M575 199l-74 -74l-166 166l-162 -163l-70 69l162 164l-161 161l74 74l162 -161l163 162l69 -69l-162 -163z" />
    <glyph glyph-name="equal.026" 
d="M592 413h-506v108h506v-108zM592 206h-506v107h506v-107z" />
    <glyph glyph-name="plusminus.027" 
d="M283 488v136h113v-136h214v-108h-214v-139h-113v139h-215v108h215zM610 95h-542v107h542v-107z" />
    <glyph glyph-name="less.028" 
d="M77 412l515 223v-120l-378 -153l378 -152v-119l-515 221v100z" />
    <glyph glyph-name="greater.029" 
d="M601 412v-100l-515 -221v119l379 152l-379 153v120z" />
    <glyph glyph-name="lessequal.030" 
d="M227 427l375 -95v-113l-526 159v99l526 161v-114zM75 95v107h529v-107h-529z" />
    <glyph glyph-name="greaterequal.031" 
d="M453 427l-376 97v114l526 -161v-99l-526 -159v113zM604 95h-529v107h529v-107z" />
    <glyph glyph-name="notequal.032" 
d="M196 206h-110v107h166l52 100h-218v108h275l71 136l91 -47l-47 -89h116v-108h-173l-52 -100h225v-107h-282l-79 -151l-90 45z" />
    <glyph glyph-name="acute.case" horiz-adv-x="303" 
d="M281 886l-155 -113h-104l105 113h154z" />
    <glyph glyph-name="breve.case" horiz-adv-x="373" 
d="M262 886h89q-11 -117 -165 -117q-152 0 -164 117h89q7 -51 76 -51t75 51z" />
    <glyph glyph-name="caron.case" horiz-adv-x="422" 
d="M157 773l-135 113h122l66 -52l69 52h121l-138 -113h-105z" />
    <glyph glyph-name="cedilla.case" horiz-adv-x="252" 
d="M22 -176l17 43q26 -14 58 -14q57 0 57 30q0 29 -41 29q-24 0 -38 -9l-30 17l51 83h53l-32 -51q18 3 35 3q34 -1 56 -19.5t22 -48.5q0 -37 -34 -59.5t-79 -22.5q-56 0 -95 19z" />
    <glyph glyph-name="circumflex.case" horiz-adv-x="422" 
d="M265 886l135 -113h-122l-67 51l-68 -51h-121l138 113h105z" />
    <glyph glyph-name="dieresis.case" horiz-adv-x="385" 
d="M22 884h105v-108h-105v108zM258 884h105v-108h-105v108z" />
    <glyph glyph-name="dotaccent.case" horiz-adv-x="167" 
d="M22 884h123v-108h-123v108z" />
    <glyph glyph-name="grave.case" horiz-adv-x="303" 
d="M187 773l-165 113h153l106 -113h-94z" />
    <glyph glyph-name="hungarumlaut.case" horiz-adv-x="483" 
d="M281 886l-155 -113h-104l105 113h154zM461 886l-155 -113h-103l105 113h153z" />
    <glyph glyph-name="overscore.case" horiz-adv-x="352" 
d="M330 786h-308v87h308v-87z" />
    <glyph glyph-name="ogonek.case" horiz-adv-x="240" 
d="M91 0h127q-91 -45 -91 -78q0 -35 45 -35q27 0 46 7v-73q-36 -9 -73 -9q-29 0 -55 7t-47 28.5t-21 55.5q0 61 69 97z" />
    <glyph glyph-name="ring.case" horiz-adv-x="225" 
d="M112 935q39 0 65 -23.5t26 -61.5q0 -37 -26 -61t-65 -24q-38 0 -64 24t-26 61t26 61t64 24zM112 893q-18 0 -30.5 -12.5t-12.5 -30.5t12.5 -30t30.5 -12t30.5 12t12.5 30t-12.5 30.5t-30.5 12.5z" />
    <glyph glyph-name="tilde.case" horiz-adv-x="432" 
d="M277 847q41 0 50 39h83q-18 -113 -128 -113q-33 0 -71.5 19.5t-56.5 19.5q-41 0 -47 -39h-85q19 113 128 113q34 0 71 -19.5t56 -19.5z" />
    <glyph glyph-name="a.salt" horiz-adv-x="610" 
d="M424 466v72h119v-538h-119v71q-51 -84 -160 -84q-103 0 -168.5 77t-65.5 205t65.5 204.5t168.5 76.5q109 0 160 -84zM429 269q0 89 -39 136.5t-100 47.5q-66 0 -101 -48t-35 -136t35 -136.5t101 -48.5q61 0 100 48t39 137z" />
    <glyph glyph-name="aacute.salt" horiz-adv-x="610" 
d="M424 466v72h119v-538h-119v71q-51 -84 -160 -84q-103 0 -168.5 77t-65.5 205t65.5 204.5t168.5 76.5q109 0 160 -84zM429 269q0 89 -39 136.5t-100 47.5q-66 0 -101 -48t-35 -136t35 -136.5t101 -48.5q61 0 100 48t39 137zM472 725l-142 -116h-91l93 116h140z" />
    <glyph glyph-name="abreve.salt" horiz-adv-x="610" 
d="M424 466v72h119v-538h-119v71q-51 -84 -160 -84q-103 0 -168.5 77t-65.5 205t65.5 204.5t168.5 76.5q109 0 160 -84zM429 269q0 89 -39 136.5t-100 47.5q-66 0 -101 -48t-35 -136t35 -136.5t101 -48.5q61 0 100 48t39 137zM366 725h86q-14 -121 -166 -121
q-155 0 -164 121h87q6 -55 78 -55q73 0 79 55z" />
    <glyph glyph-name="acircumflex.salt" horiz-adv-x="610" 
d="M424 466v72h119v-538h-119v71q-51 -84 -160 -84q-103 0 -168.5 77t-65.5 205t65.5 204.5t168.5 76.5q109 0 160 -84zM429 269q0 89 -39 136.5t-100 47.5q-66 0 -101 -48t-35 -136t35 -136.5t101 -48.5q61 0 100 48t39 137zM344 725l140 -116h-110l-79 48l-80 -48h-109
l143 116h95z" />
    <glyph glyph-name="adieresis.salt" horiz-adv-x="610" 
d="M424 466v72h119v-538h-119v71q-51 -84 -160 -84q-103 0 -168.5 77t-65.5 205t65.5 204.5t168.5 76.5q109 0 160 -84zM429 269q0 89 -39 136.5t-100 47.5q-66 0 -101 -48t-35 -136t35 -136.5t101 -48.5q61 0 100 48t39 137zM135 614v111h105v-111h-105zM371 725h105v-111
h-105v111z" />
    <glyph glyph-name="agrave.salt" horiz-adv-x="610" 
d="M424 466v72h119v-538h-119v71q-51 -84 -160 -84q-103 0 -168.5 77t-65.5 205t65.5 204.5t168.5 76.5q109 0 160 -84zM429 269q0 89 -39 136.5t-100 47.5q-66 0 -101 -48t-35 -136t35 -136.5t101 -48.5q61 0 100 48t39 137zM249 609l-142 116h141l94 -116h-93z" />
    <glyph glyph-name="amacron.salt" horiz-adv-x="610" 
d="M424 466v72h119v-538h-119v71q-51 -84 -160 -84q-103 0 -168.5 77t-65.5 205t65.5 204.5t168.5 76.5q109 0 160 -84zM429 269q0 89 -39 136.5t-100 47.5q-66 0 -101 -48t-35 -136t35 -136.5t101 -48.5q61 0 100 48t39 137zM449 628h-308v88h308v-88z" />
    <glyph glyph-name="aogonek.salt" horiz-adv-x="610" 
d="M424 466v72h119v-538q-45 -22 -66 -39t-21 -38q0 -37 52 -37q20 0 54 9v-73q-33 -10 -76 -10q-57 0 -96 22.5t-39 69.5q0 59 73 96v71q-51 -84 -160 -84q-103 0 -168.5 77t-65.5 205t65.5 204.5t168.5 76.5q109 0 160 -84zM429 269q0 89 -39 136.5t-100 47.5
q-66 0 -101 -48t-35 -136t35 -136.5t101 -48.5q61 0 100 48t39 137z" />
    <glyph glyph-name="aring.salt" horiz-adv-x="610" 
d="M424 466v72h119v-538h-119v71q-51 -84 -160 -84q-103 0 -168.5 77t-65.5 205t65.5 204.5t168.5 76.5q109 0 160 -84zM429 269q0 89 -39 136.5t-100 47.5q-66 0 -101 -48t-35 -136t35 -136.5t101 -48.5q61 0 100 48t39 137zM295 779q39 0 66 -24.5t27 -62.5t-27 -62.5
t-66 -24.5t-66 24.5t-27 62.5t27 62.5t66 24.5zM295 734q-17 0 -29 -12t-12 -30t12 -29.5t29 -11.5q18 0 30 11.5t12 29.5t-12.5 30t-29.5 12z" />
    <glyph glyph-name="atilde.salt" horiz-adv-x="610" 
d="M424 466v72h119v-538h-119v71q-51 -84 -160 -84q-103 0 -168.5 77t-65.5 205t65.5 204.5t168.5 76.5q109 0 160 -84zM429 269q0 89 -39 136.5t-100 47.5q-66 0 -101 -48t-35 -136t35 -136.5t101 -48.5q61 0 100 48t39 137zM358 691q41 0 50 44h85q-11 -70 -48.5 -98.5
t-80.5 -28.5q-35 0 -73.5 22.5t-56.5 22.5q-40 0 -48 -44h-85q11 68 48.5 97.5t80.5 29.5q35 0 71.5 -22.5t56.5 -22.5z" />
    <glyph glyph-name="l.ss02" horiz-adv-x="292" 
d="M63 141v584h119v-563q0 -41 11 -54t49 -13h20v-95h-63q-85 0 -110.5 28t-25.5 113z" />
    <glyph glyph-name="lacute.ss02" horiz-adv-x="292" 
d="M333 886l-155 -113h-104l105 113h154zM63 141v584h119v-563q0 -41 11 -54t49 -13h20v-95h-63q-85 0 -110.5 28t-25.5 113z" />
    <glyph glyph-name="lcaron.ss02" horiz-adv-x="354" 
d="M374 725l-70 -170h-77l30 170h117zM67 141v584h119v-563q0 -41 11 -54t49 -13h20v-95h-63q-85 0 -110.5 28t-25.5 113z" />
    <glyph glyph-name="uni013C.ss02" horiz-adv-x="292" 
d="M63 141v584h119v-563q0 -41 11 -54t49 -13h20v-95h-63q-85 0 -110.5 28t-25.5 113zM109 -131v95h101v-102l-44 -89h-60l39 96h-36z" />
    <glyph glyph-name="ldot.ss02" horiz-adv-x="358" 
d="M63 141v584h119v-563q0 -41 11 -54t49 -13h20v-95h-63q-85 0 -110.5 28t-25.5 113zM249 472h105v-111h-105v111z" />
    <glyph glyph-name="lslash.ss02" horiz-adv-x="323" 
d="M15 256v98l76 46v325h119v-253l70 43v-98l-70 -43v-212q0 -41 11 -54t49 -13h20v-95h-63q-85 0 -110.5 28t-25.5 113v161z" />
    <glyph glyph-name="fl.ss02" horiz-adv-x="586" 
d="M83 538v33q0 91 38.5 122.5t139.5 31.5h47v-91h-34q-45 0 -58.5 -12.5t-13.5 -54.5v-29h106v-86h-106v-452h-119v452h-75v86h75zM386 141v584h119v-563q0 -41 11 -54t49 -13h20v-95h-63q-85 0 -110.5 28t-25.5 113z" />
    <glyph glyph-name="germandbls.ss03" horiz-adv-x="645" 
d="M186 -175h-119v654q0 129 58 192q64 67 206 67q105 0 170.5 -46t65.5 -134q0 -106 -90 -148q59 -18 96 -67t37 -128q0 -112 -73.5 -170t-190.5 -58q-62 0 -114 12l19 101q45 -15 94 -15q61 0 102 33.5t41 95.5q0 136 -188 136h-12v100h9q151 0 151 101q0 45 -31.5 70.5
t-88.5 25.5q-78 0 -114 -43q-28 -38 -28 -124v-655z" />
    </font>
</defs>
</svg>
