<?xml version="1.0" encoding="utf-8"?>
<!-- Generator: Adobe Illustrator 21.0.0, SVG Export Plug-In . SVG Version: 6.00 Build 0)  -->
<svg version="1.1" id="Слой_1" xmlns="http://www.w3.org/2000/svg" xmlns:xlink="http://www.w3.org/1999/xlink" x="0px" y="0px"
	 viewBox="0 0 1000 1000" style="enable-background:new 0 0 1000 1000;" xml:space="preserve">
<style type="text/css">
	.st0{fill:#0E0F0F;}
	.st1{fill:none;stroke:#0E0F0F;stroke-width:30;stroke-miterlimit:10;}
</style>
<g>
	<path class="st0" d="M598.4,280.5H401.6c-66.8,0-121.2,54.4-121.2,121.2v196.7c0,66.8,54.4,121.2,121.2,121.2h196.7
		c66.8,0,121.2-54.4,121.2-121.2V401.6C719.5,334.8,665.2,280.5,598.4,280.5z M680.6,598.4c0,45.3-36.9,82.2-82.2,82.2H401.6
		c-45.3,0-82.2-36.9-82.2-82.2V401.6c0-45.3,36.9-82.2,82.2-82.2h196.7c45.3,0,82.2,36.9,82.2,82.2L680.6,598.4L680.6,598.4z"/>
	<path class="st0" d="M500,386.9c-62.4,0-113.1,50.7-113.1,113.1c0,62.4,50.7,113.1,113.1,113.1S613.1,562.4,613.1,500
		C613.1,437.6,562.4,386.9,500,386.9z M500,574.2c-40.9,0-74.2-33.3-74.2-74.2c0-40.9,33.3-74.2,74.2-74.2s74.2,33.3,74.2,74.2
		C574.2,540.9,540.9,574.2,500,574.2z"/>
	<path class="st0" d="M617.9,353.8c-7.5,0-14.9,3-20.2,8.4c-5.3,5.3-8.4,12.7-8.4,20.2c0,7.5,3.1,14.9,8.4,20.2
		c5.3,5.3,12.7,8.4,20.2,8.4c7.5,0,14.9-3.1,20.2-8.4c5.3-5.3,8.4-12.7,8.4-20.2c0-7.5-3-14.9-8.4-20.2
		C632.8,356.9,625.4,353.8,617.9,353.8z"/>
</g>
<circle class="st1" cx="500" cy="500" r="485.3"/>
</svg>
