<?xml version="1.0" encoding="utf-8"?>
<!-- Generator: Adobe Illustrator 21.0.0, SVG Export Plug-In . SVG Version: 6.00 Build 0)  -->
<svg version="1.1" id="Слой_1" xmlns="http://www.w3.org/2000/svg" xmlns:xlink="http://www.w3.org/1999/xlink" x="0px" y="0px"
	 viewBox="0 0 1000 1000" style="enable-background:new 0 0 1000 1000;" xml:space="preserve">
<style type="text/css">
	.st0{fill:none;stroke:#0E0F0F;stroke-width:30;stroke-miterlimit:10;}
	.st1{fill:#0E0F0F;}
</style>
<circle class="st0" cx="500" cy="500" r="485.3"/>
<g>
	<g>
		<path class="st1" d="M769.9,332.6c-19.9,8.8-41.2,14.8-63.6,17.4c22.9-13.7,40.4-35.4,48.7-61.2c-21.5,12.7-45.1,21.9-70.4,26.9
			c-20.2-21.6-48.9-35-80.8-35c-61.2,0-110.7,49.6-110.7,110.7c0,8.7,1,17.1,2.9,25.2c-92-4.6-173.6-48.7-228.2-115.7
			c-9.5,16.3-15,35.4-15,55.7c0,38.4,19.6,72.3,49.3,92.2c-18.1-0.6-35.2-5.6-50.2-13.9v1.4c0,53.6,38.2,98.4,88.8,108.6
			c-9.3,2.5-19.1,3.9-29.2,3.9c-7.2,0-14.1-0.7-20.8-2.1c14.1,44,55,76,103.4,76.9c-37.9,29.7-85.6,47.3-137.5,47.3
			c-8.9,0-17.7-0.5-26.4-1.5c49,31.5,107.2,49.8,169.7,49.8c203.7,0,315.1-168.7,315.1-315.1l-0.4-14.3
			C736.3,374.3,755.1,354.8,769.9,332.6z"/>
	</g>
</g>
</svg>
